<svg id="Слой_1" xmlns="http://www.w3.org/2000/svg" xmlns:xlink="http://www.w3.org/1999/xlink" viewBox="0 0 930.9 500">
  <style>
    .st0{clip-path:url(#SVGID_2_);fill:#0e1e33}.st2{fill:#356394}.st3{fill:#184c80}.st4{fill:#fff}.st5{fill:#a8cfe3}.st6{fill:#366991}.st7{fill:#295478}.st8{fill:#245680}.st9{fill:#264469}.st10{fill:#4d7cab}.st11{fill:#193c66}.st12{fill:#547699}.st13{fill:#1b3c66}.st14{fill:#6b92b2}.st16{fill:#517b9c}.st17{clip-path:url(#SVGID_4_)}.st20{fill:#122947}
  </style>
  <defs>
    <path id="SVGID_1_" d="M0 0h930.9v500H0z"/>
  </defs>
  <use xlink:href="#SVGID_1_" overflow="visible" fill="#142945"/>
  <clipPath id="SVGID_2_">
    <use xlink:href="#SVGID_1_" overflow="visible"/>
  </clipPath>
  <path class="st0" d="M895.3 388.3c-69.6-62.4-124.4-39.8-168.6-91.6-70.4-82.4 23.3-189-42.1-271.9-64.9-82.3-239.8-55.9-258.3-52.9-61.5 10-68.4 28.4-171 49.9-83.8 17.5-126.6 26-169.2 7.8C33.6 7.2 40.3-33.2-21-74.1c-42.6-28.4-87.2-36.4-117.9-38.9 7.8 6.7 19.4 18.4 26.6 35.9 6.3 15.3 6.5 28.4 6.7 34 .4 13.6 3 108.8 52.6 146.7 14.6 11.1 29.6 14.9 40.8 17.6 55.9 13.7 82.6-17.3 124.3-14.2 54.8 4 108.4 64.7 122.4 121.8 18.5 75.3-40 111.8-13.5 181.9 19 50.3 65.2 74.1 71.6 77.3 52.2 26 107.3 11.5 207-14.9 92.5-24.5 105.2-42.3 142.3-31.1 49.3 14.8 78.9 23.3 103 31.4 52.9 17.7 61.1.3 121.9 12.9 27.5 5.7 67 17.7 112.7 46.7-10.7-39.9-32.8-98.6-84.2-144.7zM1166.4 269.3c-21.8-10.7-32.6-16-36.8-20.5-26.6-29.1 41.2-87.7 21.6-139.8-19-50.4-108.8-64.6-118.3-66-31.7-4.7-37.9 3.3-91.5-2.1-43.8-4.4-66.1-6.9-84.1-22.5C835-.7 844.5-19.5 820.9-49c-16.4-20.5-37.1-31.4-51.7-37.3 2.8 4.5 6.7 12 7.5 21.7.7 8.5-1.2 14.9-2 17.7-1.9 6.7-15.4 53.8 3 80.1 5.4 7.7 12.2 11.9 17.3 15 25.2 15.4 43.2 4.4 63.1 12.3 26.2 10.5 43 48.6 41 78.7-2.6 39.7-36.9 48.6-34.9 87 1.5 27.6 20.4 46.4 23.1 49C908.8 296 938.1 297.5 991 300c49.1 2.4 58.1-4.4 74.5 6.8 11.2 7.6 21.1 20.4 45.6 31.3 4.4 2 9.7 4.9 17.2 6.4 28 5.6 41.8-8.9 72.1-1 20.4 5.3 34.9 17.3 44.1 26.9-.8-14.1-4.3-36-18.6-57.5-7.7-11.5-15.7-18.8-17.9-20.7-12.3-10.7-22.2-13.4-41.6-22.9zM98.5 465.7c-23.8-11.6-35.6-17.4-40.2-22.4-29-31.8 45-95.7 23.6-152.5-20.8-55-118.7-70.5-129.2-72-34.6-5.1-41.4 3.6-99.9-2.3-47.8-4.8-72.1-7.6-91.8-24.5-24.3-20.9-13.8-41.3-39.7-73.6C-296.5 96-319 84.1-335 77.6c3.1 4.9 7.3 13.1 8.1 23.7.8 9.3-1.4 16.3-2.2 19.3-2.1 7.3-16.9 58.7 3.2 87.4 5.9 8.4 13.3 13 18.8 16.3 27.5 16.8 47.1 4.8 68.9 13.4 28.6 11.4 47 53 44.8 85.9-2.9 43.4-40.3 53-38.1 95 1.6 30.1 22.3 50.7 25.2 53.5 23.5 22.8 55.4 24.3 113.2 27.1 53.6 2.6 63.4-4.8 81.3 7.5 12.2 8.3 23 22.3 49.7 34.2 4.8 2.2 10.6 5.4 18.7 7 30.6 6.1 45.6-9.7 78.7-1.1 22.2 5.8 38.1 18.9 48.2 29.4-.8-15.4-4.7-39.3-20.3-62.8-8.4-12.6-17.1-20.5-19.5-22.6-13.1-11.8-23.9-14.7-45.2-25.1z"/>
  <path d="M-105.9-37.2c-2.4 6.9-22.7 68.7 11.2 107.3 19.6 22.3 47.8 26.1 74.6 29.6 55.8 7.4 76.7-10.6 139.7-15 46.2-3.2 81.1-5.6 117.1 11.8 53 25.6 99.4 89.9 92.7 149.8-7.5 66.8-76.6 90.8-65 130.9 9 31.1 59.1 45.4 89.7 48.5 92.1 9.4 124.1-70.3 209.3-59.4 48.3 6.2 41.3 32.2 110.7 50 60.5 15.5 94.3-12 154.7 12.7 22.5 9.2 43.1 22.6 45.3 19.3 2.4-3.5-17.6-22.6-34.5-35.4-52.3-39.6-91.4-24.8-119.5-48-79.7-65.6-18.2-212-76-238.9-41.4-19.2-93.1 46.4-180.7 22.9-2.9-.8-15.5-4.3-31.2-11.6-61.4-28.6-61.1-63-110.5-83.7-25-10.5-46.4-10.7-69.7-10.9-56-.5-71.2 18.7-121.6 27.7-16.2 2.9-109.2 17.8-180-36.3-31.1-23.7-47.8-53-56.3-71.3z" clip-path="url(#SVGID_2_)" fill="#091624"/>
  <path class="st2" d="M223.1 205.6c.4 0 .8.4.8.8s-.4.8-.8.8-.8-.4-.8-.8.4-.8.8-.8zM179.3 277.3c.5 0 1 .4 1 1 0 .5-.4 1-1 1-.5 0-1-.4-1-1s.5-1 1-1zM253.9 293.8c.7 0 1.3.6 1.3 1.3 0 .7-.6 1.3-1.3 1.3-.7 0-1.3-.6-1.3-1.3 0-.8.6-1.3 1.3-1.3zM316.7 195.5c.7 0 1.2.6 1.2 1.2 0 .7-.6 1.2-1.2 1.2-.7 0-1.2-.6-1.2-1.2-.1-.7.5-1.2 1.2-1.2zM301.3 195.1c.7 0 1.3.6 1.3 1.3 0 .7-.6 1.3-1.3 1.3-.7 0-1.3-.6-1.3-1.3 0-.8.6-1.3 1.3-1.3zM256.1 172c.9 0 1.7.8 1.7 1.7 0 .9-.8 1.7-1.7 1.7-.9 0-1.7-.8-1.7-1.7 0-.9.8-1.7 1.7-1.7zM287.3 171.3c.5 0 1 .4 1 1 0 .5-.4 1-1 1-.5 0-1-.4-1-1s.5-1 1-1zM299.8 150.1c.2 0 .4.2.4.4s-.2.4-.4.4-.4-.2-.4-.4.2-.4.4-.4zM345.7 142.1c.9 0 1.6.7 1.6 1.6 0 .9-.7 1.6-1.6 1.6-.9 0-1.6-.7-1.6-1.6 0-.9.7-1.6 1.6-1.6zM339.1 101.1c.5 0 .9.4.9.9s-.4.9-.9.9-.9-.4-.9-.9c-.1-.5.3-.9.9-.9zM362.1 44.2c.6 0 1 .4 1 1s-.4 1-1 1-1-.4-1-1 .5-1 1-1zM269.8 50.6c.7 0 1.2.5 1.2 1.2s-.5 1.2-1.2 1.2-1.2-.5-1.2-1.2c0-.6.5-1.2 1.2-1.2zM225.9 63.1c.5 0 .8.4.8.8 0 .5-.4.8-.8.8s-.8-.4-.8-.8c-.1-.5.3-.8.8-.8zM190.1 16.3c.8 0 1.4.6 1.4 1.4 0 .8-.6 1.4-1.4 1.4-.8 0-1.4-.6-1.4-1.4 0-.8.6-1.4 1.4-1.4zM210.9 47.8c.4 0 .8.3.8.8 0 .4-.3.8-.8.8-.4 0-.8-.3-.8-.8s.4-.8.8-.8z"/>
  <circle class="st2" cx="171.2" cy="33.8" r=".5"/>
  <path class="st2" d="M132.5 41.2c.7 0 1.3.6 1.3 1.3 0 .7-.6 1.3-1.3 1.3-.7 0-1.3-.6-1.3-1.3-.1-.7.5-1.3 1.3-1.3zM105.4 35.4c.5 0 1 .4 1 1s-.4 1-1 1c-.5 0-1-.4-1-1s.4-1 1-1zM86 68.1c.6 0 1.1.5 1.1 1.1 0 .6-.5 1.1-1.1 1.1s-1.1-.5-1.1-1.1c0-.6.5-1.1 1.1-1.1zM19 96.4c1 0 1.8.8 1.8 1.8S20 100 19 100s-1.8-.8-1.8-1.8.8-1.8 1.8-1.8zM113.6 90.4c.4 0 .7.3.7.7s-.3.7-.7.7-.7-.3-.7-.7.3-.7.7-.7zM26.9 136.2c.7 0 1.3.6 1.3 1.3s-.6 1.3-1.3 1.3c-.7 0-1.3-.6-1.3-1.3s.5-1.3 1.3-1.3zM75.1 168.7c.3 0 .5.2.5.5s-.2.5-.5.5-.5-.2-.5-.5.2-.5.5-.5zM58.5 200.6c.8 0 1.4.6 1.4 1.4 0 .8-.6 1.4-1.4 1.4-.8 0-1.4-.6-1.4-1.4 0-.8.6-1.4 1.4-1.4zM92.3 270.1c.6 0 1.1.5 1.1 1.1 0 .6-.5 1.1-1.1 1.1-.6 0-1.1-.5-1.1-1.1 0-.7.5-1.1 1.1-1.1zM22.5 274c.5 0 .9.4.9.9s-.4.9-.9.9-.9-.4-.9-.9.4-.9.9-.9zM38.6 215c.6 0 1.1.5 1.1 1.1s-.5 1.1-1.1 1.1c-.6 0-1.1-.5-1.1-1.1s.5-1.1 1.1-1.1zM70.8 178.4c.9 0 1.6.7 1.6 1.6 0 .9-.7 1.6-1.6 1.6s-1.6-.7-1.6-1.6c0-.9.7-1.6 1.6-1.6zM96.6 207.9c.6 0 1.1.5 1.1 1.1 0 .6-.5 1.1-1.1 1.1-.6 0-1.1-.5-1.1-1.1 0-.6.4-1.1 1.1-1.1zM145.1 231.1c.2 0 .4.2.4.4s-.2.4-.4.4-.4-.2-.4-.4.2-.4.4-.4z"/>
  <circle class="st2" cx="102" cy="288.7" r=".7"/>
  <path class="st2" d="M122.6 262.1c.8 0 1.4.6 1.4 1.4 0 .8-.6 1.4-1.4 1.4-.8 0-1.4-.6-1.4-1.4 0-.7.6-1.4 1.4-1.4z"/>
  <circle class="st2" cx="104.1" cy="245.8" r="1.4"/>
  <path class="st2" d="M142 275.4c.6 0 1.1.5 1.1 1.1 0 .6-.5 1.1-1.1 1.1-.6 0-1.1-.5-1.1-1.1 0-.6.5-1.1 1.1-1.1zM168.9 278.3c.4 0 .8.3.8.8 0 .4-.3.8-.8.8-.4 0-.8-.3-.8-.8.1-.5.4-.8.8-.8zM202.2 282.4c.9 0 1.6.7 1.6 1.6 0 .9-.7 1.6-1.6 1.6-.9 0-1.6-.7-1.6-1.6 0-.9.7-1.6 1.6-1.6z"/>
  <path class="st3" d="M462.7 480.8c0 .4-.3.7-.7.7-.4 0-.7-.3-.7-.7s.3-.7.7-.7c.4-.1.7.3.7.7zM461 472.6c0 .5-.4.9-.9.9s-.9-.4-.9-.9.4-.9.9-.9.9.4.9.9zM433.5 479.6c0 .5-.4.9-.9.9s-.9-.4-.9-.9.4-.9.9-.9c.4 0 .9.4.9.9zM422.3 454.9c0 .4-.3.7-.7.7-.4 0-.7-.3-.7-.7 0-.4.3-.7.7-.7.4 0 .7.3.7.7zM427.7 429.3c0 .4-.3.7-.7.7s-.7-.3-.7-.7c0-.4.3-.7.7-.7s.7.3.7.7zM395 418.1c0 .4-.3.8-.8.8-.4 0-.8-.3-.8-.8s.3-.8.8-.8c.4 0 .8.4.8.8zM402.6 384.5c0 .5-.4.9-.9.9s-.9-.4-.9-.9.4-.9.9-.9.9.4.9.9zM422.4 394.5c0 .5-.4.8-.8.8-.5 0-.8-.4-.8-.8 0-.5.4-.8.8-.8.4-.1.8.3.8.8zM405.5 379.6c0 .5-.4.8-.8.8-.5 0-.8-.4-.8-.8 0-.5.4-.8.8-.8s.8.3.8.8zM409.6 380c0 .4-.3.7-.7.7-.4 0-.7-.3-.7-.7 0-.4.3-.7.7-.7.4-.1.7.3.7.7z"/>
  <path class="st3" d="M409.7 379.7c0 .4-.3.8-.8.8-.4 0-.8-.3-.8-.8 0-.4.3-.8.8-.8s.8.4.8.8zM428.4 356.6c0 .4-.3.7-.7.7-.4 0-.7-.3-.7-.7 0-.4.3-.7.7-.7.3.1.7.4.7.7zM406.9 363.7c0 .4-.3.7-.7.7-.4 0-.7-.3-.7-.7 0-.4.3-.7.7-.7.4.1.7.4.7.7z"/>
  <circle class="st3" cx="402.9" cy="335.1" r=".8"/>
  <path class="st3" d="M381.7 340.1c0 .5-.4.9-.9.9s-.9-.4-.9-.9.4-.9.9-.9.9.4.9.9zM376.1 347.3c0 .3-.3.6-.6.6s-.6-.3-.6-.6.3-.6.6-.6c.3-.1.6.2.6.6zM370.7 356.4c0 .4-.3.8-.8.8-.4 0-.8-.3-.8-.8 0-.4.3-.8.8-.8s.8.4.8.8zM354.8 352c0 .5-.4.9-.9.9s-.9-.4-.9-.9.4-.9.9-.9.9.4.9.9zM355.6 362c0 .4-.3.8-.8.8s-.8-.3-.8-.8c0-.4.3-.8.8-.8s.8.4.8.8zM328.5 337.8c0 .4-.3.7-.7.7-.4 0-.7-.3-.7-.7 0-.4.3-.7.7-.7.4 0 .7.3.7.7z"/>
  <path class="st4" d="M494.8 1.9c.5.1.9.6.8 1.1-.1.5-.6.9-1.1.8-.5-.1-.9-.6-.8-1.1.1-.5.6-.9 1.1-.8zM495.2 34.6c.6.1 1 .7.9 1.3-.1.6-.7 1-1.3.9-.6-.1-1-.7-.9-1.3.1-.6.7-1 1.3-.9zM479.8 25c.5.1.8.5.7 1-.1.5-.5.8-1 .7-.5-.1-.8-.5-.7-1 .1-.4.5-.8 1-.7zM463.1 12.7c.5.1.8.5.7 1-.1.5-.5.8-1 .7-.5-.1-.8-.5-.7-1 .1-.5.6-.8 1-.7zM468.9 14c.6.1 1 .6.9 1.2-.1.6-.6 1-1.2.9-.6-.1-1-.6-.9-1.2.1-.6.7-1 1.2-.9zM466.7 13.1c.5.1.8.5.7 1-.1.5-.5.8-1 .7-.5-.1-.8-.5-.7-1 .1-.5.5-.8 1-.7zM392 7.5c.5.1.9.6.8 1.1-.1.5-.6.9-1.1.8-.5-.1-.9-.6-.8-1.1.1-.5.6-.9 1.1-.8zM387.5 10.2c.6.1 1 .7.9 1.3-.1.6-.7 1-1.3.9-.6-.1-1-.7-.9-1.3.1-.6.7-1 1.3-.9zM378.6 29.3c.4.1.7.5.7.9-.1.4-.5.7-.9.7-.4-.1-.7-.5-.7-.9.1-.5.5-.8.9-.7zM348.8 29.5c.5.1.8.5.7 1-.1.5-.5.8-1 .7-.5-.1-.8-.5-.7-1 .1-.5.5-.8 1-.7zM341.1 28.4c.4.1.8.5.7.9-.1.4-.5.8-.9.7s-.8-.5-.7-.9c.1-.4.5-.7.9-.7zM355.7 43.8c.5.1.9.6.8 1.1-.1.5-.6.9-1.1.8-.5-.1-.9-.6-.8-1.1.1-.6.6-.9 1.1-.8z"/>
  <g>
    <path class="st4" d="M151.9 274.8c.6.1 1 .7.9 1.2-.1.6-.7 1-1.2.9-.6-.1-1-.7-.9-1.2.1-.6.6-1 1.2-.9zM155.7 307.8c.6.1.9.6.8 1.2-.1.6-.6.9-1.2.8-.6-.1-.9-.6-.8-1.2.2-.5.7-.8 1.2-.8zM160.2 313.6c.5.1.8.5.7 1-.1.5-.5.8-1 .7-.5-.1-.8-.5-.7-1 .1-.4.6-.7 1-.7zM138.6 322.7c.5.1.9.6.8 1.1-.1.5-.6.9-1.1.8-.5-.1-.9-.6-.8-1.1.1-.6.6-.9 1.1-.8zM139 355.3c.6.1 1 .7.9 1.3-.1.6-.7 1-1.3.9-.6-.1-1-.7-.9-1.3.1-.6.7-1 1.3-.9zM123.6 345.7c.5.1.8.5.7 1-.1.5-.5.8-1 .7-.5-.1-.8-.5-.7-1s.6-.7 1-.7zM107 333.4c.5.1.8.5.7 1-.1.5-.5.8-1 .7-.5-.1-.8-.5-.7-1 0-.5.5-.8 1-.7zM112.7 334.8c.6.1 1 .6.9 1.2-.1.6-.6 1-1.2.9-.6-.1-1-.6-.9-1.2.1-.6.7-1 1.2-.9zM110.5 333.8c.5.1.8.5.7 1-.1.5-.5.8-1 .7-.5-.1-.8-.5-.7-1 .1-.4.5-.8 1-.7zM86.2 305.2c.5.1.8.5.7 1-.1.5-.5.8-1 .7-.5-.1-.8-.5-.7-1 .1-.5.6-.8 1-.7zM53.4 302.7c.6.1 1 .6.9 1.2-.1.6-.6 1-1.2.9-.6-.1-1-.6-.9-1.2 0-.6.6-1 1.2-.9zM35.9 328.2c.5.1.9.6.8 1.1-.1.5-.6.9-1.1.8-.5-.1-.9-.6-.8-1.1.1-.5.5-.9 1.1-.8zM31.3 330.9c.6.1 1 .7.9 1.3-.1.6-.7 1-1.3.9-.6-.1-1-.7-.9-1.3.1-.6.7-1 1.3-.9zM22.5 350c.4.1.7.5.7.9-.1.4-.5.7-.9.7-.4-.1-.7-.5-.7-.9 0-.5.4-.8.9-.7z"/>
  </g>
  <g>
    <path class="st4" d="M914.9 21.8c.6.1 1 .7.9 1.2-.1.6-.7 1-1.2.9-.6-.1-1-.7-.9-1.2s.6-1 1.2-.9zM918.7 54.9c.6.1.9.6.8 1.2-.1.6-.6.9-1.2.8-.6-.1-.9-.6-.8-1.2.1-.5.6-.9 1.2-.8zM923.2 60.7c.5.1.8.5.7 1-.1.5-.5.8-1 .7-.5-.1-.8-.5-.7-1 .1-.5.5-.8 1-.7zM901.6 69.7c.5.1.9.6.8 1.1-.1.5-.6.9-1.1.8-.5-.1-.9-.6-.8-1.1.1-.5.5-.9 1.1-.8zM902 102.4c.6.1 1 .7.9 1.3-.1.6-.7 1-1.3.9-.6-.1-1-.7-.9-1.3.1-.6.7-1 1.3-.9zM886.6 92.8c.5.1.8.5.7 1-.1.5-.5.8-1 .7-.5-.1-.8-.5-.7-1 .1-.5.5-.8 1-.7zM869.9 80.4c.5.1.8.5.7 1-.1.5-.5.8-1 .7-.5-.1-.8-.5-.7-1 .1-.4.5-.7 1-.7zM875.7 81.8c.6.1 1 .6.9 1.2-.1.6-.6 1-1.2.9-.6-.1-1-.6-.9-1.2.1-.6.6-1 1.2-.9zM873.4 80.9c.5.1.8.5.7 1-.1.5-.5.8-1 .7-.5-.1-.8-.5-.7-1 .1-.5.6-.8 1-.7zM849.2 52.2c.5.1.8.5.7 1-.1.5-.5.8-1 .7-.5-.1-.8-.5-.7-1 .1-.4.5-.7 1-.7zM816.3 49.8c.6.1 1 .6.9 1.2-.1.6-.6 1-1.2.9-.6-.1-1-.6-.9-1.2.1-.6.6-1 1.2-.9zM798.8 75.3c.5.1.9.6.8 1.1-.1.5-.6.9-1.1.8-.5-.1-.9-.6-.8-1.1.1-.6.6-.9 1.1-.8zM794.2 78c.6.1 1 .7.9 1.3-.1.6-.7 1-1.3.9-.6-.1-1-.7-.9-1.3.2-.6.7-1 1.3-.9zM785.4 97c.4.1.7.5.7.9-.1.4-.5.7-.9.7-.4-.1-.7-.5-.7-.9.1-.4.5-.7.9-.7zM755.6 97.2c.5.1.8.5.7 1-.1.5-.5.8-1 .7-.5-.1-.8-.5-.7-1 0-.4.5-.7 1-.7zM747.9 96.2c.4.1.8.5.7.9-.1.4-.5.8-.9.7-.4-.1-.8-.5-.7-.9 0-.5.5-.8.9-.7zM762.5 111.5c.5.1.9.6.8 1.1-.1.5-.6.9-1.1.8-.5-.1-.9-.6-.8-1.1.1-.5.5-.9 1.1-.8z"/>
  </g>
  <g>
    <path class="st5" d="M70.7 197.6c1.4 0 2.5 1.1 2.5 2.5s-1.1 2.5-2.5 2.5-2.5-1.1-2.5-2.5c.1-1.4 1.2-2.5 2.5-2.5zM138.4 210.2c.4 0 .7.3.7.7 0 .4-.3.7-.7.7-.4 0-.7-.3-.7-.7 0-.4.3-.7.7-.7zM189 333.5c.6 0 1.2.5 1.2 1.2 0 .6-.5 1.2-1.2 1.2-.6 0-1.2-.5-1.2-1.2s.6-1.2 1.2-1.2zM204.5 385.9c1.7 0 3.1 1.4 3.1 3.1 0 1.7-1.4 3.1-3.1 3.1-1.7 0-3.1-1.4-3.1-3.1-.1-1.7 1.3-3.1 3.1-3.1z"/>
  </g>
  <g>
    <path class="st6" d="M664.5 452.1c.5 0 .9.4.9.9s-.4.9-.9.9-.9-.4-.9-.9.4-.9.9-.9zM707.7 413.4c.5 0 .9.4.9.9s-.4.9-.9.9-.9-.4-.9-.9.4-.9.9-.9zM644.3 426.4c.5 0 .9.4.9.9s-.4.9-.9.9-.9-.4-.9-.9c-.1-.4.4-.9.9-.9zM681.9 358.7c.5 0 .9.4.9.9s-.4.9-.9.9-.9-.4-.9-.9.4-.9.9-.9zM629.7 362c.5 0 .9.4.9.9s-.4.9-.9.9-.9-.4-.9-.9.4-.9.9-.9zM568.7 325.3c.6 0 1.1.5 1.1 1.1s-.5 1.1-1.1 1.1c-.6 0-1.1-.5-1.1-1.1s.5-1.1 1.1-1.1zM527.9 350.2c.5 0 1 .4 1 1s-.4 1-1 1c-.5 0-1-.4-1-1s.5-1 1-1zM508.5 397.1c.4 0 .7.3.7.7s-.3.7-.7.7c-.4 0-.7-.3-.7-.7s.3-.7.7-.7zM529.8 403.5c.2 0 .4.2.4.4s-.2.4-.4.4-.4-.2-.4-.4.2-.4.4-.4zM567.5 395c.7 0 1.3.6 1.3 1.3s-.6 1.3-1.3 1.3-1.3-.6-1.3-1.3.6-1.3 1.3-1.3z"/>
    <circle class="st6" cx="606.8" cy="405.2" r=".8"/>
    <path class="st6" d="M618.9 430.7c.4 0 .7.3.7.7 0 .4-.3.7-.7.7-.4 0-.7-.3-.7-.7 0-.4.3-.7.7-.7z"/>
    <circle class="st6" cx="618.6" cy="476.6" r="1.6"/>
    <path class="st6" d="M654.7 494.2c1 0 1.8.8 1.8 1.8s-.8 1.8-1.8 1.8-1.8-.8-1.8-1.8.8-1.8 1.8-1.8zM705.1 443.4c1 0 1.8.8 1.8 1.8s-.8 1.8-1.8 1.8-1.8-.8-1.8-1.8.8-1.8 1.8-1.8zM578.2 478.8c.6 0 1.2.5 1.2 1.2 0 .6-.5 1.2-1.2 1.2-.6 0-1.2-.5-1.2-1.2s.5-1.2 1.2-1.2z"/>
    <circle class="st6" cx="533.3" cy="499" r=".5"/>
    <path class="st6" d="M519.3 495c.7 0 1.3.6 1.3 1.3 0 .7-.6 1.3-1.3 1.3-.7 0-1.3-.6-1.3-1.3.1-.7.6-1.3 1.3-1.3zM500.1 479.3c.5 0 .9.4.9.9s-.4.9-.9.9-.9-.4-.9-.9.4-.9.9-.9zM547 487.1c.6 0 1.2.5 1.2 1.2s-.5 1.2-1.2 1.2c-.6 0-1.2-.5-1.2-1.2s.6-1.2 1.2-1.2zM620.3 491.5c.5 0 .9.4.9.9s-.4.9-.9.9-.9-.4-.9-.9.4-.9.9-.9zM610.3 461.1c.6 0 1.1.5 1.1 1.1 0 .6-.5 1.1-1.1 1.1-.6 0-1.1-.5-1.1-1.1-.1-.6.4-1.1 1.1-1.1zM600.9 442.5c.5 0 .9.4.9.9s-.4.9-.9.9-.9-.4-.9-.9.4-.9.9-.9zM603.9 398c.5 0 .8.4.8.8s-.4.8-.8.8-.8-.4-.8-.8.4-.8.8-.8zM635.6 471c.9 0 1.7.8 1.7 1.7 0 .9-.8 1.7-1.7 1.7-.9 0-1.7-.8-1.7-1.7.1-.9.8-1.7 1.7-1.7zM664.5 433.4c.4 0 .7.3.7.7 0 .4-.3.7-.7.7-.4 0-.7-.3-.7-.7.1-.4.4-.7.7-.7zM639.9 359.8c.3 0 .5.2.5.5s-.2.5-.5.5-.5-.2-.5-.5.2-.5.5-.5zM629.8 442c.7 0 1.3.6 1.3 1.3 0 .7-.6 1.3-1.3 1.3-.7 0-1.3-.6-1.3-1.3 0-.7.6-1.3 1.3-1.3zM541.2 455.6c.8 0 1.5.7 1.5 1.5s-.7 1.5-1.5 1.5-1.5-.7-1.5-1.5c0-.9.7-1.5 1.5-1.5zM529.4 412.9c.8 0 1.4.6 1.4 1.4 0 .8-.6 1.4-1.4 1.4-.8 0-1.4-.6-1.4-1.4 0-.8.6-1.4 1.4-1.4zM502.9 413c.7 0 1.3.6 1.3 1.3 0 .7-.6 1.3-1.3 1.3-.7 0-1.3-.6-1.3-1.3 0-.7.6-1.3 1.3-1.3zM462.9 374.4c.5 0 .9.4.9.9s-.4.9-.9.9-.9-.4-.9-.9c0-.6.4-.9.9-.9zM442.6 411.9c.9 0 1.5.7 1.5 1.5 0 .9-.7 1.5-1.5 1.5-.9 0-1.5-.7-1.5-1.5-.1-.8.6-1.5 1.5-1.5zM429.9 484.1c.3 0 .6.3.6.6s-.3.6-.6.6-.6-.3-.6-.6c-.1-.4.2-.6.6-.6zM453 490.4c.7 0 1.2.5 1.2 1.2s-.5 1.2-1.2 1.2-1.2-.5-1.2-1.2.5-1.2 1.2-1.2zM537.6 479.9c.3 0 .6.3.6.6s-.3.6-.6.6-.6-.3-.6-.6.3-.6.6-.6zM577 494.5c.5 0 .8.4.8.8s-.4.8-.8.8c-.5 0-.8-.4-.8-.8s.3-.8.8-.8z"/>
  </g>
  <g>
    <circle class="st6" cx="17.4" cy="183.9" r=".9"/>
    <path class="st6" d="M37.7 210.5c-.5 0-.9-.4-.9-.9s.4-.9.9-.9.9.4.9.9-.4.9-.9.9zM52.2 274.9c-.5 0-.9-.4-.9-.9s.4-.9.9-.9.9.4.9.9-.4.9-.9.9zM113.2 311.6c-.6 0-1.1-.5-1.1-1.1s.5-1.1 1.1-1.1c.6 0 1.1.5 1.1 1.1s-.5 1.1-1.1 1.1zM154 286.8c-.5 0-1-.4-1-1s.4-1 1-1c.5 0 1 .4 1 1s-.5 1-1 1zM173.4 239.9c-.4 0-.7-.3-.7-.7s.3-.7.7-.7c.4 0 .7.3.7.7s-.3.7-.7.7zM152.1 233.4c-.2 0-.4-.2-.4-.4s.2-.4.4-.4.4.2.4.4-.2.4-.4.4zM114.4 241.9c-.7 0-1.3-.6-1.3-1.3s.6-1.3 1.3-1.3c.7 0 1.3.6 1.3 1.3s-.6 1.3-1.3 1.3zM75.2 232.5c-.5 0-.8-.4-.8-.8s.4-.8.8-.8c.5 0 .8.4.8.8s-.4.8-.8.8zM63 206.3c-.4 0-.7-.3-.7-.7 0-.4.3-.7.7-.7.4 0 .7.3.7.7.1.3-.3.7-.7.7zM63.3 162c-.9 0-1.6-.7-1.6-1.6 0-.9.7-1.6 1.6-1.6.9 0 1.6.7 1.6 1.6.1.8-.7 1.6-1.6 1.6zM27.3 142.7c-1 0-1.8-.8-1.8-1.8s.8-1.8 1.8-1.8 1.7.9 1.7 1.9-.8 1.7-1.7 1.7zM16.7 113.8c-.3 0-.6-.3-.6-.6s.3-.6.6-.6.6.2.6.6c0 .4-.3.6-.6.6zM60.6 83.3c-.9 0-1.6-.7-1.6-1.6 0-.9.7-1.6 1.6-1.6.9 0 1.6.7 1.6 1.6 0 .9-.7 1.6-1.6 1.6zM90 80.8c-.4 0-.8-.4-.8-.8s.4-.8.8-.8.8.4.8.8-.4.8-.8.8zM133.9 76.4c-.2 0-.3-.2-.3-.3 0-.2.2-.3.3-.3s.3.2.3.3c.1.2-.1.3-.3.3zM212.8 56.4c-.8 0-1.4-.6-1.4-1.4 0-.8.6-1.4 1.4-1.4.8 0 1.4.6 1.4 1.4 0 .8-.6 1.4-1.4 1.4zM127.7 81.9c-.7 0-1.2-.6-1.2-1.2s.6-1.2 1.2-1.2c.7 0 1.2.6 1.2 1.2s-.5 1.2-1.2 1.2zM66.9 43.9c-.4 0-.6-.3-.6-.6 0-.4.3-.6.6-.6.4 0 .6.3.6.6s-.2.6-.6.6zM61.7 66.5c-.2 0-.4-.2-.4-.4s.2-.4.4-.4.4.2.4.4c-.1.2-.2.4-.4.4zM103.8 158.2c-.6 0-1.2-.5-1.2-1.2 0-.6.5-1.2 1.2-1.2s1.2.5 1.2 1.2c-.1.7-.6 1.2-1.2 1.2zM113.5 126.6c-.4 0-.8-.3-.8-.8 0-.4.3-.8.8-.8.4 0 .8.3.8.8s-.4.8-.8.8z"/>
    <circle class="st6" cx="148.6" cy="137.9" r=".5"/>
    <path class="st6" d="M218.6 109.5c-.9 0-1.7-.8-1.7-1.7 0-.9.8-1.7 1.7-1.7.9 0 1.7.8 1.7 1.7-.1.9-.8 1.7-1.7 1.7zM162.6 141.9c-.7 0-1.3-.6-1.3-1.3 0-.7.6-1.3 1.3-1.3.7 0 1.3.6 1.3 1.3 0 .8-.6 1.3-1.3 1.3zM181.9 157.7c-.5 0-.9-.4-.9-.9s.4-.9.9-.9.9.4.9.9-.4.9-.9.9zM134.9 149.9c-.6 0-1.2-.5-1.2-1.2s.5-1.2 1.2-1.2c.6 0 1.2.5 1.2 1.2s-.6 1.2-1.2 1.2zM152.1 75.9c-.4 0-.7-.3-.7-.7 0-.4.3-.7.7-.7.4 0 .7.3.7.7.1.4-.3.7-.7.7zM97.1 118.2c-.3 0-.6-.3-.6-.6s.3-.6.6-.6.6.3.6.6c0 .4-.2.6-.6.6zM61.6 145.4c-.5 0-.9-.4-.9-.9s.4-.9.9-.9.9.4.9.9-.4.9-.9.9zM41.5 93.3c-.5 0-.9-.4-.9-.9s.4-.9.9-.9.9.4.9.9-.4.9-.9.9zM110.7 113.8c-.6 0-1.2-.5-1.2-1.2 0-.6.5-1.2 1.2-1.2.6 0 1.2.5 1.2 1.2-.1.7-.6 1.2-1.2 1.2zM71.7 175.9c-.6 0-1.1-.5-1.1-1.1 0-.6.5-1.1 1.1-1.1.6 0 1.1.5 1.1 1.1 0 .6-.5 1.1-1.1 1.1zM81 194.4c-.5 0-.9-.4-.9-.9s.4-.9.9-.9.9.4.9.9-.4.9-.9.9zM78 238.9c-.5 0-.8-.4-.8-.8s.4-.8.8-.8c.5 0 .8.4.8.8s-.3.8-.8.8zM46.3 165.9c-.9 0-1.7-.8-1.7-1.7 0-.9.8-1.7 1.7-1.7.9 0 1.7.8 1.7 1.7 0 1-.8 1.7-1.7 1.7zM17.4 203.6c-.4 0-.7-.3-.7-.7 0-.4.3-.7.7-.7.4 0 .7.3.7.7 0 .4-.3.7-.7.7z"/>
    <circle class="st6" cx="42" cy="276.6" r=".5"/>
    <path class="st6" d="M52.1 194.9c-.7 0-1.3-.6-1.3-1.3 0-.7.6-1.3 1.3-1.3.7 0 1.3.6 1.3 1.3 0 .7-.6 1.3-1.3 1.3zM140.7 181.4c-.8 0-1.5-.7-1.5-1.5s.7-1.5 1.5-1.5 1.5.7 1.5 1.5-.6 1.5-1.5 1.5zM152.5 224.1c-.8 0-1.4-.6-1.4-1.4 0-.8.6-1.4 1.4-1.4.8 0 1.4.6 1.4 1.4 0 .7-.6 1.4-1.4 1.4zM179 223.9c-.7 0-1.3-.6-1.3-1.3 0-.7.6-1.3 1.3-1.3.7 0 1.3.6 1.3 1.3 0 .8-.5 1.3-1.3 1.3zM219.1 262.6c-.5 0-.9-.4-.9-.9s.4-.9.9-.9.9.4.9.9c-.1.5-.5.9-.9.9zM247.6 216.4c-.9 0-1.5-.7-1.5-1.5 0-.9.7-1.5 1.5-1.5.9 0 1.5.7 1.5 1.5s-.7 1.5-1.5 1.5zM252.1 152.9c-.3 0-.6-.3-.6-.6s.3-.6.6-.6.6.3.6.6-.3.6-.6.6z"/>
    <circle class="st6" cx="228.9" cy="145.4" r="1.2"/>
    <path class="st6" d="M201.8 129.6c-.9 0-1.6-.7-1.6-1.6 0-.9.7-1.7 1.6-1.7.9 0 1.6.7 1.6 1.7.1.8-.6 1.6-1.6 1.6zM144.3 157c-.3 0-.6-.3-.6-.6s.3-.6.6-.6.6.3.6.6-.2.6-.6.6zM104.9 142.4c-.5 0-.8-.4-.8-.8s.4-.8.8-.8c.5 0 .8.4.8.8s-.3.8-.8.8z"/>
    <ellipse transform="rotate(-87.437 93.87 94.88)" class="st6" cx="93.9" cy="94.9" rx="1" ry="1"/>
    <path class="st6" d="M108.1 33.6c-.2 0-.4-.2-.4-.4s.2-.4.4-.4.4.2.4.4-.2.4-.4.4z"/>
  </g>
  <g>
    <path class="st6" d="M725.1 267.4c-.5 0-.9-.4-.9-.9s.4-.9.9-.9.9.4.9.9-.4.9-.9.9zM681.9 306.1c-.5 0-.9-.4-.9-.9s.4-.9.9-.9.9.4.9.9-.4.9-.9.9zM745.3 293.1c-.5 0-.9-.4-.9-.9s.4-.9.9-.9.9.4.9.9c.1.5-.3.9-.9.9zM707.8 360.8c-.5 0-.9-.4-.9-.9s.4-.9.9-.9.9.4.9.9c-.1.5-.5.9-.9.9zM759.9 357.5c-.5 0-.9-.4-.9-.9s.4-.9.9-.9.9.4.9.9-.4.9-.9.9zM820.9 394.2c-.6 0-1.1-.5-1.1-1.1 0-.6.5-1.1 1.1-1.1.6 0 1.1.5 1.1 1.1 0 .6-.5 1.1-1.1 1.1zM861.7 369.4c-.5 0-1-.4-1-1s.4-1 1-1c.5 0 1 .4 1 1s-.5 1-1 1zM881.1 322.5c-.4 0-.7-.3-.7-.7s.3-.7.7-.7c.4 0 .7.3.7.7s-.3.7-.7.7zM859.8 316c-.2 0-.4-.2-.4-.4s.2-.4.4-.4.4.2.4.4-.2.4-.4.4zM822.1 324.5c-.7 0-1.3-.6-1.3-1.3s.6-1.3 1.3-1.3c.7 0 1.3.6 1.3 1.3s-.6 1.3-1.3 1.3zM782.8 315.1c-.5 0-.8-.4-.8-.8 0-.5.4-.8.8-.8.5 0 .8.4.8.8.1.5-.3.8-.8.8zM770.7 288.9c-.4 0-.7-.3-.7-.7 0-.4.3-.7.7-.7.4 0 .7.3.7.7.1.3-.3.7-.7.7z"/>
    <circle class="st6" cx="771" cy="242.9" r="1.6"/>
    <path class="st6" d="M735 225.3c-1 0-1.8-.8-1.8-1.8s.8-1.8 1.8-1.8 1.8.8 1.8 1.8c-.1 1-.9 1.8-1.8 1.8zM684.5 276.1c-1 0-1.8-.8-1.8-1.8s.8-1.8 1.8-1.8 1.8.8 1.8 1.8-.8 1.8-1.8 1.8z"/>
    <circle class="st6" cx="724.4" cy="195.9" r=".6"/>
    <path class="st6" d="M683.2 159c-.7 0-1.3-.6-1.3-1.3 0-.7.6-1.3 1.3-1.3s1.3.6 1.3 1.3c0 .7-.6 1.3-1.3 1.3zM768.3 165.9c-.9 0-1.6-.7-1.6-1.6 0-.9.7-1.6 1.6-1.6.9 0 1.6.7 1.6 1.6 0 .8-.7 1.6-1.6 1.6zM797.7 163.3c-.4 0-.8-.4-.8-.8s.4-.8.8-.8.8.4.8.8c0 .5-.4.8-.8.8zM798.3 79.8c-.9 0-1.7-.7-1.7-1.7s.7-1.7 1.7-1.7c.9 0 1.7.7 1.7 1.7s-.8 1.7-1.7 1.7zM841.6 159c-.2 0-.3-.2-.3-.3 0-.2.2-.3.3-.3.2 0 .3.2.3.3 0 .1-.1.3-.3.3zM920.5 139c-.8 0-1.4-.6-1.4-1.4 0-.8.6-1.4 1.4-1.4.8 0 1.4.6 1.4 1.4 0 .8-.6 1.4-1.4 1.4zM835.4 164.5c-.7 0-1.2-.6-1.2-1.2 0-.7.6-1.2 1.2-1.2.7 0 1.2.6 1.2 1.2s-.5 1.2-1.2 1.2zM816.8 80.1c-.7 0-1.2-.6-1.2-1.2 0-.7.6-1.2 1.2-1.2.7 0 1.2.6 1.2 1.2.1.7-.5 1.2-1.2 1.2zM774.6 126.4c-.4 0-.6-.3-.6-.6 0-.4.3-.6.6-.6.4 0 .6.3.6.6s-.3.6-.6.6zM769.4 149.1c-.2 0-.4-.2-.4-.4s.2-.4.4-.4.4.2.4.4c-.1.2-.3.4-.4.4zM811.5 240.8c-.6 0-1.2-.5-1.2-1.2 0-.6.5-1.2 1.2-1.2.6 0 1.2.5 1.2 1.2-.1.7-.6 1.2-1.2 1.2zM821.2 209.2c-.4 0-.8-.3-.8-.8 0-.4.3-.8.8-.8.4 0 .8.3.8.8-.1.5-.4.8-.8.8z"/>
    <circle class="st6" cx="856.3" cy="220.5" r=".5"/>
    <path class="st6" d="M926.2 192.1c-.9 0-1.7-.8-1.7-1.7 0-.9.8-1.7 1.7-1.7.9 0 1.7.8 1.7 1.7 0 .9-.7 1.7-1.7 1.7zM870.3 224.5c-.7 0-1.3-.6-1.3-1.3 0-.7.6-1.3 1.3-1.3.7 0 1.3.6 1.3 1.3 0 .7-.6 1.3-1.3 1.3zM889.6 240.2c-.5 0-.9-.4-.9-.9s.4-.9.9-.9.9.4.9.9-.4.9-.9.9zM842.6 232.5c-.6 0-1.2-.5-1.2-1.2 0-.6.5-1.2 1.2-1.2.6 0 1.2.5 1.2 1.2-.1.7-.6 1.2-1.2 1.2zM859.8 158.5c-.4 0-.7-.3-.7-.7 0-.4.3-.7.7-.7.4 0 .7.3.7.7.1.4-.3.7-.7.7zM804.8 200.8c-.3 0-.6-.3-.6-.6s.3-.6.6-.6.6.3.6.6-.3.6-.6.6zM769.3 228c-.5 0-.9-.4-.9-.9s.4-.9.9-.9.9.4.9.9-.4.9-.9.9zM749.2 175.9c-.5 0-.9-.4-.9-.9s.4-.9.9-.9.9.4.9.9-.4.9-.9.9zM818.4 196.4c-.6 0-1.2-.5-1.2-1.2 0-.6.5-1.2 1.2-1.2.6 0 1.2.5 1.2 1.2-.1.6-.6 1.2-1.2 1.2zM779.4 258.5c-.6 0-1.1-.5-1.1-1.1 0-.6.5-1.1 1.1-1.1.6 0 1.1.5 1.1 1.1 0 .6-.5 1.1-1.1 1.1zM788.7 277c-.5 0-.9-.4-.9-.9s.4-.9.9-.9.9.4.9.9-.4.9-.9.9zM785.7 321.5c-.5 0-.8-.4-.8-.8s.4-.8.8-.8.8.4.8.8-.3.8-.8.8zM754 248.5c-.9 0-1.7-.8-1.7-1.7 0-.9.8-1.7 1.7-1.7.9 0 1.7.8 1.7 1.7 0 1-.8 1.7-1.7 1.7zM725.1 286.2c-.4 0-.7-.3-.7-.7 0-.4.3-.7.7-.7.4 0 .7.3.7.7 0 .4-.3.7-.7.7zM749.7 359.7c-.3 0-.5-.2-.5-.5s.2-.5.5-.5.5.2.5.5-.2.5-.5.5z"/>
    <circle class="st6" cx="759.8" cy="276.2" r="1.3"/>
    <path class="st6" d="M848.4 264c-.8 0-1.5-.7-1.5-1.5s.7-1.5 1.5-1.5 1.5.7 1.5 1.5-.6 1.5-1.5 1.5zM860.2 306.6c-.8 0-1.4-.6-1.4-1.4 0-.8.6-1.4 1.4-1.4.8 0 1.4.6 1.4 1.4 0 .8-.6 1.4-1.4 1.4zM886.7 306.5c-.7 0-1.3-.6-1.3-1.3 0-.7.6-1.3 1.3-1.3s1.3.6 1.3 1.3c0 .7-.6 1.3-1.3 1.3zM926.8 345.2c-.5 0-.9-.4-.9-.9s.4-.9.9-.9.9.4.9.9c-.1.5-.5.9-.9.9z"/>
    <circle class="st6" cx="909.5" cy="210.5" r="1.6"/>
    <path class="st6" d="M852 239.6c-.3 0-.6-.3-.6-.6s.3-.6.6-.6.6.3.6.6-.3.6-.6.6zM812.6 225c-.5 0-.8-.4-.8-.8 0-.5.4-.8.8-.8.5 0 .8.4.8.8.1.4-.3.8-.8.8zM801.6 178.4c-.5 0-1-.4-1-1 0-.5.4-1 1-1 .5 0 1 .4 1 1-.1.6-.5 1-1 1z"/>
    <circle class="st6" cx="815.8" cy="115.8" r=".4"/>
  </g>
  <g>
    <path class="st6" d="M466.6 29.3c-.5 0-.9-.4-.9-.9s.4-.9.9-.9.9.4.9.9-.4.9-.9.9zM423.4 68c-.5 0-.9-.4-.9-.9s.4-.9.9-.9.9.4.9.9-.4.9-.9.9zM486.8 55c-.5 0-.9-.4-.9-.9s.4-.9.9-.9.9.4.9.9c.1.5-.3.9-.9.9zM449.3 122.7c-.5 0-.9-.4-.9-.9s.4-.9.9-.9.9.4.9.9c-.1.5-.5.9-.9.9zM501.4 119.4c-.5 0-.9-.4-.9-.9s.4-.9.9-.9.9.4.9.9-.4.9-.9.9zM562.4 156.1c-.6 0-1.1-.5-1.1-1.1 0-.6.5-1.1 1.1-1.1.6 0 1.1.5 1.1 1.1 0 .6-.5 1.1-1.1 1.1zM603.2 131.2c-.5 0-1-.4-1-1s.4-1 1-1c.5 0 1 .4 1 1s-.5 1-1 1zM622.6 84.3c-.4 0-.7-.3-.7-.7 0-.4.3-.7.7-.7.4 0 .7.3.7.7 0 .4-.3.7-.7.7zM601.3 77.9c-.2 0-.4-.2-.4-.4s.2-.4.4-.4.4.2.4.4-.2.4-.4.4zM563.6 86.4c-.7 0-1.3-.6-1.3-1.3 0-.7.6-1.3 1.3-1.3.7 0 1.3.6 1.3 1.3 0 .7-.6 1.3-1.3 1.3zM524.3 77c-.5 0-.8-.4-.8-.8 0-.5.4-.8.8-.8.5 0 .8.4.8.8.1.4-.3.8-.8.8zM512.2 50.7c-.4 0-.7-.3-.7-.7 0-.4.3-.7.7-.7.4 0 .7.3.7.7.1.4-.3.7-.7.7zM426 38c-1 0-1.8-.8-1.8-1.8s.8-1.8 1.8-1.8 1.8.8 1.8 1.8S427 38 426 38zM520.9 20.3c-.6 0-1.1-.5-1.1-1.1 0-.6.5-1.1 1.1-1.1.6 0 1.1.5 1.1 1.1 0 .6-.5 1.1-1.1 1.1zM530.2 38.9c-.5 0-.9-.4-.9-.9s.4-.9.9-.9.9.4.9.9-.4.9-.9.9zM527.2 83.4c-.5 0-.8-.4-.8-.8 0-.5.4-.8.8-.8.5 0 .8.4.8.8s-.3.8-.8.8zM495.5 10.4c-.9 0-1.7-.8-1.7-1.7 0-.9.8-1.7 1.7-1.7s1.7.8 1.7 1.7c0 .9-.8 1.7-1.7 1.7zM466.6 48c-.4 0-.7-.3-.7-.7 0-.4.3-.7.7-.7.4 0 .7.3.7.7-.1.4-.3.7-.7.7zM491.2 121.6c-.3 0-.5-.2-.5-.5s.2-.5.5-.5.5.2.5.5-.2.5-.5.5z"/>
    <circle class="st6" cx="501.3" cy="38.1" r="1.3"/>
    <path class="st6" d="M589.9 25.8c-.8 0-1.5-.7-1.5-1.5s.7-1.5 1.5-1.5 1.5.7 1.5 1.5-.7 1.5-1.5 1.5zM601.7 68.5c-.8 0-1.4-.6-1.4-1.4 0-.8.6-1.4 1.4-1.4.8 0 1.4.6 1.4 1.4 0 .8-.6 1.4-1.4 1.4zM628.2 68.4c-.7 0-1.3-.6-1.3-1.3 0-.7.6-1.3 1.3-1.3s1.3.6 1.3 1.3c0 .7-.6 1.3-1.3 1.3zM668.3 107c-.5 0-.9-.4-.9-.9s.4-.9.9-.9.9.4.9.9c-.1.6-.5.9-.9.9zM696.8 60.8c-.9 0-1.5-.7-1.5-1.5s.7-1.5 1.5-1.5c.9 0 1.5.7 1.5 1.5s-.7 1.5-1.5 1.5z"/>
  </g>
  <g>
    <path class="st6" d="M823.5 358.5c-.5 0-.9-.4-.9-.9s.4-.9.9-.9.9.4.9.9-.5.9-.9.9zM780.2 397.2c-.5 0-.9-.4-.9-.9s.4-.9.9-.9.9.4.9.9-.4.9-.9.9z"/>
    <circle class="st6" cx="843.7" cy="383.2" r=".9"/>
    <path class="st6" d="M806.1 451.9c-.5 0-.9-.4-.9-.9s.4-.9.9-.9.9.4.9.9c-.1.5-.4.9-.9.9zM858.2 448.6c-.5 0-.9-.4-.9-.9s.4-.9.9-.9.9.4.9.9-.4.9-.9.9zM919.2 485.3c-.6 0-1.1-.5-1.1-1.1 0-.6.5-1.1 1.1-1.1.6 0 1.1.5 1.1 1.1 0 .6-.5 1.1-1.1 1.1zM920.4 415.6c-.7 0-1.3-.6-1.3-1.3 0-.7.6-1.3 1.3-1.3.7 0 1.3.6 1.3 1.3.1.7-.5 1.3-1.3 1.3zM881.2 406.2c-.5 0-.8-.4-.8-.8s.4-.8.8-.8c.5 0 .8.4.8.8s-.4.8-.8.8zM869.1 379.9c-.4 0-.7-.3-.7-.7 0-.4.3-.7.7-.7s.7.3.7.7c0 .4-.3.7-.7.7zM869.4 335.6c-.9 0-1.6-.7-1.6-1.6s.7-1.6 1.6-1.6c.9 0 1.6.7 1.6 1.6s-.7 1.6-1.6 1.6zM833.3 316.4c-1 0-1.8-.8-1.8-1.8s.8-1.8 1.8-1.8 1.8.8 1.8 1.8-.8 1.8-1.8 1.8zM782.8 367.2c-1 0-1.8-.8-1.8-1.8s.8-1.8 1.8-1.8 1.8.8 1.8 1.8-.8 1.8-1.8 1.8zM822.8 287.5c-.3 0-.6-.3-.6-.6s.3-.6.6-.6.6.2.6.6c-.1.3-.3.6-.6.6zM781.5 250.1c-.7 0-1.3-.6-1.3-1.3 0-.7.6-1.3 1.3-1.3.7 0 1.3.6 1.3 1.3 0 .7-.5 1.3-1.3 1.3zM866.6 256.9c-.9 0-1.6-.7-1.6-1.6 0-.9.7-1.6 1.6-1.6s1.6.7 1.6 1.6c0 .9-.7 1.6-1.6 1.6z"/>
    <circle class="st6" cx="896" cy="253.6" r=".8"/>
    <path class="st6" d="M896.6 170.9c-.9 0-1.7-.7-1.7-1.7 0-.9.7-1.7 1.7-1.7.9 0 1.7.7 1.7 1.7s-.8 1.7-1.7 1.7zM915.2 171.2c-.7 0-1.2-.6-1.2-1.2 0-.7.6-1.2 1.2-1.2.7 0 1.2.6 1.2 1.2s-.5 1.2-1.2 1.2zM872.9 217.5c-.4 0-.6-.3-.6-.6 0-.4.3-.6.6-.6.4 0 .6.3.6.6.1.3-.2.6-.6.6zM867.7 240.1c-.2 0-.4-.2-.4-.4s.2-.4.4-.4.4.2.4.4c-.1.3-.2.4-.4.4zM909.8 331.8c-.6 0-1.2-.5-1.2-1.2 0-.6.5-1.2 1.2-1.2.6 0 1.2.5 1.2 1.2-.1.7-.6 1.2-1.2 1.2zM919.5 300.3c-.4 0-.8-.3-.8-.8 0-.4.3-.8.8-.8.4 0 .8.3.8.8 0 .4-.4.8-.8.8zM903.1 291.9c-.3 0-.6-.3-.6-.6s.3-.6.6-.6.6.3.6.6-.2.6-.6.6zM867.6 319.1c-.5 0-.9-.4-.9-.9s.4-.9.9-.9.9.4.9.9-.4.9-.9.9zM847.6 267c-.5 0-.9-.4-.9-.9s.4-.9.9-.9.9.4.9.9-.4.9-.9.9z"/>
    <circle class="st6" cx="916.7" cy="286.3" r="1.2"/>
    <circle class="st6" cx="877.7" cy="348.4" r="1.1"/>
    <path class="st6" d="M887 368.1c-.5 0-.9-.4-.9-.9s.4-.9.9-.9.9.4.9.9-.4.9-.9.9zM884 412.6c-.5 0-.8-.4-.8-.8 0-.5.4-.8.8-.8.5 0 .8.4.8.8.1.4-.3.8-.8.8z"/>
    <circle class="st6" cx="852.3" cy="337.9" r="1.7"/>
    <path class="st6" d="M823.4 377.2c-.4 0-.7-.3-.7-.7 0-.4.3-.7.7-.7.4 0 .7.3.7.7 0 .4-.3.7-.7.7zM848 450.8c-.3 0-.5-.2-.5-.5s.2-.5.5-.5.5.2.5.5c.1.3-.2.5-.5.5zM858.2 368.6c-.7 0-1.3-.6-1.3-1.3s.6-1.3 1.3-1.3c.7 0 1.3.6 1.3 1.3s-.6 1.3-1.3 1.3zM910.9 316.1c-.5 0-.8-.4-.8-.8 0-.5.4-.8.8-.8s.8.4.8.8c.1.4-.3.8-.8.8zM899.9 269.5c-.5 0-1-.4-1-1 0-.5.4-1 1-1 .5 0 1 .4 1 1s-.5 1-1 1z"/>
    <circle class="st6" cx="914.1" cy="206.9" r=".4"/>
  </g>
  <g>
    <path class="st4" d="M845.6 434.9c0 .4-.3.8-.8.8-.4 0-.8-.3-.8-.8s.3-.8.8-.8c.4.1.8.4.8.8zM827.1 417.2c0 .7-.5 1.2-1.2 1.2s-1.2-.5-1.2-1.2.5-1.2 1.2-1.2 1.2.5 1.2 1.2zM768.5 406.7c0 .5-.4.9-.9.9s-.9-.4-.9-.9.4-.9.9-.9.9.4.9.9zM812.4 371c0 .7-.5 1.2-1.2 1.2s-1.2-.5-1.2-1.2.5-1.2 1.2-1.2 1.2.5 1.2 1.2zM761.6 380c0 .5-.4.9-.9.9s-.9-.4-.9-.9.4-.9.9-.9c.5.1.9.5.9.9zM745 368.4c0 .6-.5 1.1-1.1 1.1-.6 0-1.1-.5-1.1-1.1 0-.6.5-1.1 1.1-1.1.6-.1 1.1.4 1.1 1.1zM742.9 334.7c0 .7-.5 1.2-1.2 1.2s-1.2-.5-1.2-1.2.5-1.2 1.2-1.2 1.2.6 1.2 1.2zM747.5 289.8c0 .5-.4.8-.8.8-.5 0-.8-.4-.8-.8 0-.5.4-.8.8-.8.5 0 .8.3.8.8z"/>
  </g>
  <g>
    <path class="st7" d="M731.7 427.1c0 .7-.6 1.3-1.3 1.3-.7 0-1.3-.6-1.3-1.3 0-.7.6-1.3 1.3-1.3.7.1 1.3.6 1.3 1.3zM709.2 469.3c0 .4-.3.8-.8.8-.4 0-.8-.3-.8-.8 0-.4.3-.8.8-.8.4.1.8.4.8.8zM687.4 401.7c0 .7-.6 1.2-1.2 1.2-.7 0-1.2-.6-1.2-1.2 0-.7.6-1.2 1.2-1.2.7 0 1.2.6 1.2 1.2zM664.8 419.4c0 .5-.4.9-.9.9s-.9-.4-.9-.9.4-.9.9-.9.9.4.9.9zM651.3 445c0 .7-.5 1.2-1.2 1.2s-1.2-.5-1.2-1.2.5-1.2 1.2-1.2c.6 0 1.2.6 1.2 1.2zM685 441c0 .7-.5 1.2-1.2 1.2s-1.2-.5-1.2-1.2.5-1.2 1.2-1.2 1.2.5 1.2 1.2zM698.4 407.6c0 .7-.5 1.2-1.2 1.2s-1.2-.5-1.2-1.2.5-1.2 1.2-1.2 1.2.5 1.2 1.2zM643.6 380.4c0 .7-.5 1.2-1.2 1.2s-1.2-.5-1.2-1.2.5-1.2 1.2-1.2c.7.1 1.2.6 1.2 1.2zM632.8 357.6c0 .7-.6 1.2-1.2 1.2s-1.2-.6-1.2-1.2c0-.7.6-1.2 1.2-1.2s1.2.5 1.2 1.2zM639.6 332.3c0 .7-.5 1.2-1.2 1.2s-1.2-.5-1.2-1.2.5-1.2 1.2-1.2c.6-.1 1.2.5 1.2 1.2z"/>
    <circle class="st7" cx="691" cy="307.7" r=".8"/>
    <path class="st7" d="M682.6 293.2c0 .5-.4.8-.8.8-.5 0-.8-.4-.8-.8s.4-.8.8-.8.8.3.8.8zM702.8 282.8c0 .5-.4.9-.9.9s-.9-.4-.9-.9.4-.9.9-.9.9.4.9.9zM727 270c0 .5-.4 1-1 1-.5 0-1-.4-1-1 0-.5.4-1 1-1 .5 0 1 .5 1 1zM715.7 289.5c0 .7-.5 1.2-1.2 1.2s-1.2-.5-1.2-1.2.5-1.2 1.2-1.2c.6 0 1.2.6 1.2 1.2zM761.2 328.7c0 .6-.5 1-1 1-.6 0-1-.5-1-1 0-.6.5-1 1-1 .6-.1 1 .4 1 1z"/>
    <circle class="st7" cx="738" cy="335.6" r=".9"/>
    <path class="st7" d="M680 361c0 .5-.4.8-.8.8-.5 0-.8-.4-.8-.8s.4-.8.8-.8c.4-.1.8.3.8.8zM737.9 368c0 .6-.5 1.1-1.1 1.1s-1.1-.5-1.1-1.1c0-.6.5-1.1 1.1-1.1s1.1.5 1.1 1.1zM758.8 364.3c0 .5-.4.9-.9.9s-.9-.4-.9-.9.4-.9.9-.9c.4-.1.9.4.9.9zM755.5 414.6c0 .5-.4 1-1 1-.5 0-1-.4-1-1 0-.5.4-1 1-1s1 .4 1 1zM783.8 448c0 .5-.4 1-1 1-.5 0-1-.4-1-1s.4-1 1-1 1 .5 1 1zM801.3 369.6c0 .5-.4.8-.8.8-.5 0-.8-.4-.8-.8 0-.5.4-.8.8-.8.4-.1.8.3.8.8z"/>
  </g>
  <g>
    <path class="st8" d="M816.9 371.4c0 .5-.4.9-.9.9s-.9-.4-.9-.9.4-.9.9-.9.9.4.9.9zM884 340.1c0 .6-.5 1.1-1.1 1.1-.6 0-1.1-.5-1.1-1.1 0-.6.5-1.1 1.1-1.1.6 0 1.1.5 1.1 1.1zM880.3 377.3c0 .5-.4.8-.8.8-.5 0-.8-.4-.8-.8 0-.5.4-.8.8-.8.4-.1.8.3.8.8z"/>
    <circle class="st8" cx="905.7" cy="387.6" r=".8"/>
    <path class="st8" d="M879.2 428.6c0 .6-.5 1.2-1.2 1.2-.6 0-1.2-.5-1.2-1.2s.5-1.2 1.2-1.2 1.2.5 1.2 1.2z"/>
  </g>
  <g>
    <path class="st9" d="M457.6 158.6c0 .5-.4.9-.9.9s-.9-.4-.9-.9.4-.9.9-.9c.5.1.9.5.9.9zM413.1 96.8c0 .5-.4.9-.9.9s-.9-.4-.9-.9.4-.9.9-.9.9.4.9.9zM417.3 86.4c0 .6-.5 1.1-1.1 1.1-.6 0-1.1-.5-1.1-1.1 0-.6.5-1.1 1.1-1.1.6.1 1.1.5 1.1 1.1zM460.3 86.7c0 .6-.5 1.1-1.1 1.1-.6 0-1.1-.5-1.1-1.1 0-.6.5-1.1 1.1-1.1.6 0 1.1.5 1.1 1.1z"/>
    <circle class="st9" cx="464.2" cy="103.4" r=".7"/>
    <path class="st9" d="M440.7 109.3c0 .4-.3.8-.8.8-.4 0-.8-.3-.8-.8s.3-.8.8-.8c.4.1.8.4.8.8zM443.4 43.8c0 .6-.5 1-1 1-.6 0-1-.5-1-1 0-.6.5-1 1-1 .6 0 1 .4 1 1zM409.6 70.9c0 .5-.4 1-1 1-.5 0-1-.4-1-1 0-.5.4-1 1-1 .5 0 1 .5 1 1zM388.7 60.1c0 .4-.3.7-.7.7-.4 0-.7-.3-.7-.7 0-.4.3-.7.7-.7.3 0 .7.3.7.7zM367.1 81.5c0 .5-.4.9-.9.9s-.9-.4-.9-.9.4-.9.9-.9.9.4.9.9zM354.1 33.9c0 .4-.3.7-.7.7-.4 0-.7-.3-.7-.7 0-.4.3-.7.7-.7.4 0 .7.3.7.7zM329.1 43.3c0 .5-.4.9-.9.9s-.9-.4-.9-.9.4-.9.9-.9.9.4.9.9zM309.5 56.4c0 .6-.5 1.1-1.1 1.1-.6 0-1.1-.5-1.1-1.1 0-.6.5-1.1 1.1-1.1.6 0 1.1.5 1.1 1.1zM289.7 47.5c0 .4-.3.7-.7.7-.4 0-.7-.3-.7-.7 0-.4.3-.7.7-.7.4-.1.7.3.7.7zM268.3 53.7c0 .6-.5 1-1 1-.6 0-1-.5-1-1 0-.6.5-1 1-1 .5-.1 1 .4 1 1zM269 51.5c0 .5-.4.9-.9.9s-.9-.4-.9-.9.4-.9.9-.9.9.5.9.9zM291.8 49.9c0 .4-.3.8-.8.8-.4 0-.8-.3-.8-.8 0-.4.3-.8.8-.8.4 0 .8.4.8.8zM317.6 56c0 .6-.5 1.1-1.1 1.1-.6 0-1.1-.5-1.1-1.1 0-.6.5-1.1 1.1-1.1.6 0 1.1.5 1.1 1.1zM316.2 98.2c0 .5-.4.9-.9.9s-.9-.4-.9-.9.4-.9.9-.9.9.4.9.9zM354.1 77c0 .6-.5 1-1 1-.6 0-1-.5-1-1 0-.6.5-1 1-1s1 .4 1 1zM365.6 96.1c0 .4-.3.7-.7.7-.4 0-.7-.3-.7-.7 0-.4.3-.7.7-.7.4 0 .7.3.7.7z"/>
  </g>
  <g>
    <path class="st10" d="M862.8 157c0 .6-.5 1.1-1.1 1.1-.6 0-1.1-.5-1.1-1.1 0-.6.5-1.1 1.1-1.1.6 0 1.1.5 1.1 1.1zM896.7 172.3c0 .7-.6 1.3-1.3 1.3-.7 0-1.3-.6-1.3-1.3s.6-1.3 1.3-1.3c.7 0 1.3.6 1.3 1.3z"/>
    <circle class="st10" cx="890.6" cy="221.1" r="1.3"/>
    <path class="st10" d="M881 246.8c0 .4-.3.8-.8.8-.4 0-.8-.3-.8-.8 0-.4.3-.8.8-.8.4 0 .8.4.8.8zM897.8 259.1c0 .6-.5 1.1-1.1 1.1-.6 0-1.1-.5-1.1-1.1 0-.6.5-1.1 1.1-1.1.6 0 1.1.5 1.1 1.1zM869.9 262.1c0 .5-.4.9-.9.9s-.9-.4-.9-.9.4-.9.9-.9.9.4.9.9zM866.4 297.4c0 .5-.4.9-.9.9s-.9-.4-.9-.9.4-.9.9-.9.9.4.9.9z"/>
  </g>
  <g>
    <path class="st11" d="M650.4 110.2c0 .4-.3.8-.8.8s-.8-.3-.8-.8c0-.4.3-.8.8-.8s.8.3.8.8zM626.5 79.5c0 .6-.5 1.1-1.1 1.1-.6 0-1.1-.5-1.1-1.1 0-.6.5-1.1 1.1-1.1.6 0 1.1.5 1.1 1.1z"/>
    <circle class="st11" cx="649.2" cy="56.9" r="1.2"/>
    <circle class="st11" cx="677.8" cy="73.1" r="1"/>
    <path class="st11" d="M699.2 46c0 .7-.6 1.3-1.3 1.3-.7 0-1.3-.6-1.3-1.3 0-.7.6-1.3 1.3-1.3.7 0 1.3.6 1.3 1.3zM726.7 75c0 .5-.4 1-1 1s-1-.4-1-1c0-.5.4-1 1-1s1 .4 1 1zM745.9 26.9c0 .7-.5 1.2-1.2 1.2s-1.2-.5-1.2-1.2.5-1.2 1.2-1.2 1.2.5 1.2 1.2zM769.8 43.3c0 .4-.4.8-.8.8s-.8-.4-.8-.8.4-.8.8-.8c.5 0 .8.4.8.8zM792.5 35c0 .7-.5 1.2-1.2 1.2s-1.2-.5-1.2-1.2.5-1.2 1.2-1.2 1.2.6 1.2 1.2zM805.1 110.2c0 .6-.5 1.1-1.1 1.1-.6 0-1.1-.5-1.1-1.1 0-.6.5-1.1 1.1-1.1.6-.1 1.1.4 1.1 1.1zM806.4 94.8c0 .7-.5 1.2-1.2 1.2s-1.2-.5-1.2-1.2.5-1.2 1.2-1.2 1.2.5 1.2 1.2zM853.3 101.2c0 .5-.4.9-.9.9s-.9-.4-.9-.9.4-.9.9-.9.9.4.9.9zM879.9 107.1c0 .7-.5 1.2-1.2 1.2s-1.2-.5-1.2-1.2.5-1.2 1.2-1.2 1.2.5 1.2 1.2zM882.9 167.5c0 .4-.3.8-.8.8-.4 0-.8-.3-.8-.8 0-.4.3-.8.8-.8s.8.4.8.8zM837.5 155.8c0 .5-.4.9-.9.9s-.9-.4-.9-.9.4-.9.9-.9c.5.1.9.4.9.9z"/>
    <circle class="st11" cx="828" cy="177.7" r="1.2"/>
    <path class="st11" d="M824.3 206.6c0 .4-.3.8-.8.8-.4 0-.8-.3-.8-.8 0-.4.3-.8.8-.8.4 0 .8.3.8.8zM788.9 172.9c0 .6-.5 1-1 1-.6 0-1-.5-1-1 0-.6.5-1 1-1 .5-.1 1 .4 1 1z"/>
    <circle class="st11" cx="768.4" cy="206.8" r=".8"/>
    <path class="st11" d="M749.2 214.8c0 .7-.5 1.2-1.2 1.2s-1.2-.5-1.2-1.2.5-1.2 1.2-1.2 1.2.5 1.2 1.2zM728.1 181.3c0 .7-.6 1.3-1.3 1.3-.7 0-1.3-.6-1.3-1.3 0-.7.6-1.3 1.3-1.3.7 0 1.3.5 1.3 1.3z"/>
    <circle class="st11" cx="705.2" cy="164" r=".8"/>
    <path class="st11" d="M683 237.7c0 .6-.4 1-1 1s-1-.4-1-1 .4-1 1-1c.5 0 1 .4 1 1z"/>
  </g>
  <g>
    <path class="st12" d="M187.2 465.9c0 .3-.2.5-.5.5s-.5-.2-.5-.5.2-.5.5-.5.5.3.5.5zM198.7 456.9c0 .3-.3.6-.6.6s-.6-.3-.6-.6.3-.6.6-.6c.4 0 .6.3.6.6zM215.1 457.4c0 .4-.3.7-.7.7-.4 0-.7-.3-.7-.7 0-.4.3-.7.7-.7.4 0 .7.3.7.7zM215.5 455.2c0 .3-.2.5-.5.5s-.5-.2-.5-.5.2-.5.5-.5.5.2.5.5zM226.4 459.2c0 .3-.3.6-.6.6s-.6-.3-.6-.6.3-.6.6-.6c.4.1.6.3.6.6zM244.6 434.7c0 .4-.3.7-.7.7s-.7-.3-.7-.7.3-.7.7-.7.7.4.7.7zM258.2 431.9c0 .3-.2.5-.5.5s-.5-.2-.5-.5.2-.5.5-.5.5.3.5.5zM268.8 443c0 .2-.2.4-.4.4s-.4-.2-.4-.4.2-.4.4-.4.4.2.4.4zM272.3 469.6c0 .4-.3.7-.7.7-.4 0-.7-.3-.7-.7 0-.4.3-.7.7-.7.4 0 .7.3.7.7zM286.9 462.1c0 .3-.2.5-.5.5s-.5-.2-.5-.5.2-.5.5-.5c.2 0 .5.3.5.5zM298 474c0 .4-.3.7-.7.7-.4 0-.7-.3-.7-.7 0-.4.3-.7.7-.7.4 0 .7.3.7.7zM307.4 486.4c0 .4-.3.7-.7.7-.4 0-.7-.3-.7-.7 0-.4.3-.7.7-.7.4.1.7.3.7.7zM324.7 449.8c0 .4-.3.7-.7.7s-.7-.3-.7-.7c0-.4.3-.7.7-.7s.7.4.7.7zM335.7 476c0 .3-.2.5-.5.5s-.5-.2-.5-.5.2-.5.5-.5c.3.1.5.3.5.5zM347.7 464.3c0 .3-.3.6-.6.6s-.6-.3-.6-.6.3-.6.6-.6.6.3.6.6z"/>
    <circle class="st12" cx="366.9" cy="480" r=".4"/>
    <path class="st12" d="M384 470.5c0 .3-.3.6-.6.6s-.6-.3-.6-.6.3-.6.6-.6.6.2.6.6z"/>
    <circle class="st12" cx="371.3" cy="444.5" r=".6"/>
    <path class="st12" d="M367.2 432.8c0 .3-.3.6-.6.6s-.6-.3-.6-.6.3-.6.6-.6c.4 0 .6.3.6.6zM385.1 421.3c0 .2-.2.4-.4.4s-.4-.2-.4-.4.2-.4.4-.4.4.2.4.4zM374.4 411.7c0 .2-.2.4-.4.4s-.4-.2-.4-.4.2-.4.4-.4c.3 0 .4.2.4.4zM363 418.3c0 .3-.3.6-.6.6s-.6-.3-.6-.6.3-.6.6-.6c.4 0 .6.3.6.6zM352.1 384.5c0 .2-.2.4-.4.4s-.4-.2-.4-.4.2-.4.4-.4.4.2.4.4zM340.4 387.4c0 .3-.2.5-.5.5s-.5-.2-.5-.5.2-.5.5-.5c.2 0 .5.3.5.5zM325 385.6c0 .3-.2.6-.6.6-.3 0-.6-.2-.6-.6 0-.3.2-.6.6-.6.3 0 .6.3.6.6zM318.5 411.6c0 .3-.2.6-.6.6-.3 0-.6-.2-.6-.6 0-.3.2-.6.6-.6.4 0 .6.2.6.6zM305 398.4c0 .3-.2.5-.5.5s-.5-.2-.5-.5.2-.5.5-.5.5.2.5.5zM294.5 413.4c0 .3-.3.6-.6.6s-.6-.3-.6-.6.3-.6.6-.6.6.2.6.6zM280.9 394.7c0 .3-.3.6-.6.6s-.6-.3-.6-.6.3-.6.6-.6.6.2.6.6zM270 399.8c0 .3-.3.6-.6.6s-.6-.3-.6-.6.3-.6.6-.6c.4 0 .6.3.6.6zM256.5 414.1c0 .3-.3.6-.6.6s-.6-.3-.6-.6.3-.6.6-.6.6.2.6.6zM244.7 393.6c0 .2-.2.4-.4.4s-.4-.2-.4-.4.2-.4.4-.4c.2-.1.4.1.4.4zM232.7 428.1c0 .3-.2.5-.5.5s-.5-.2-.5-.5.2-.5.5-.5.5.2.5.5zM221.3 424.9c0 .3-.2.5-.5.5s-.5-.2-.5-.5.2-.5.5-.5.5.2.5.5zM210.1 396.8c0 .3-.2.5-.5.5s-.5-.2-.5-.5.2-.5.5-.5.5.2.5.5zM196.1 414.2c0 .2-.2.4-.4.4s-.4-.2-.4-.4.2-.4.4-.4.4.2.4.4zM179.3 414.5c0 .3-.2.5-.5.5s-.5-.2-.5-.5.2-.5.5-.5c.3-.1.5.2.5.5zM161.6 407.7c0 .3-.3.6-.6.6s-.6-.3-.6-.6.3-.6.6-.6.6.3.6.6zM162.6 388.7c0 .3-.3.6-.6.6s-.6-.3-.6-.6.3-.6.6-.6.6.2.6.6zM156.6 375.8c0 .3-.3.6-.6.6s-.6-.3-.6-.6.3-.6.6-.6.6.2.6.6zM170.5 360.3c0 .3-.2.5-.5.5s-.5-.2-.5-.5.2-.5.5-.5c.2-.1.5.2.5.5z"/>
    <circle class="st12" cx="172.6" cy="348.9" r=".5"/>
    <path class="st12" d="M183.9 336.3c0 .3-.3.6-.6.6s-.6-.3-.6-.6.3-.6.6-.6.6.3.6.6zM157.7 311.1c0 .3-.3.6-.6.6s-.6-.3-.6-.6.3-.6.6-.6.6.3.6.6zM178.3 313.7c0 .4-.3.7-.7.7-.4 0-.7-.3-.7-.7 0-.4.3-.7.7-.7.3 0 .7.3.7.7zM191.9 337.3c0 .3-.3.6-.6.6s-.6-.3-.6-.6.3-.6.6-.6.6.3.6.6zM204 309.9c0 .3-.3.6-.6.6s-.6-.3-.6-.6.3-.6.6-.6.6.3.6.6zM216.3 305.8c0 .3-.2.5-.5.5s-.5-.2-.5-.5.2-.5.5-.5.5.2.5.5zM228.8 342.7c0 .3-.2.5-.5.5s-.5-.2-.5-.5.2-.5.5-.5.5.3.5.5zM240.2 323.2c0 .3-.3.6-.6.6s-.6-.3-.6-.6.3-.6.6-.6c.4.1.6.3.6.6zM251.9 313.7c0 .4-.3.7-.7.7s-.7-.3-.7-.7c0-.4.3-.7.7-.7s.7.3.7.7zM263.3 328.8c0 .2-.2.4-.4.4s-.4-.2-.4-.4.2-.4.4-.4.4.2.4.4z"/>
    <circle class="st12" cx="275.5" cy="305.5" r=".5"/>
    <circle class="st12" cx="287" cy="311" r=".5"/>
    <path class="st12" d="M309.3 317.6c0 .3-.2.5-.5.5s-.5-.2-.5-.5.2-.5.5-.5.5.2.5.5zM277.9 310.7c0 .3-.2.5-.5.5s-.5-.2-.5-.5.2-.5.5-.5.5.2.5.5zM280.1 298.9c0 .3-.2.5-.5.5s-.5-.2-.5-.5.2-.5.5-.5.5.3.5.5zM282.7 271.5c0 .4-.3.7-.7.7-.4 0-.7-.3-.7-.7 0-.4.3-.7.7-.7.4 0 .7.3.7.7z"/>
    <circle class="st12" cx="253.5" cy="297.1" r=".5"/>
    <path class="st12" d="M257.8 259.1c0 .2-.2.4-.4.4s-.4-.2-.4-.4.2-.4.4-.4.4.2.4.4zM244.4 261.2c0 .3-.3.6-.6.6s-.6-.3-.6-.6.3-.6.6-.6.6.3.6.6zM225.9 275.9c0 .3-.2.5-.5.5s-.5-.2-.5-.5.2-.5.5-.5.5.2.5.5z"/>
    <circle class="st12" cx="218.3" cy="257.8" r=".4"/>
    <path class="st12" d="M206.4 254.6c0 .3-.2.5-.5.5s-.5-.2-.5-.5.2-.5.5-.5.5.2.5.5zM185.9 274c0 .4-.3.7-.7.7-.4 0-.7-.3-.7-.7 0-.4.3-.7.7-.7.4.1.7.4.7.7zM181.7 248.5c0 .3-.2.5-.5.5s-.5-.2-.5-.5.2-.5.5-.5c.2 0 .5.2.5.5zM171 244c0 .3-.3.6-.6.6s-.6-.3-.6-.6.3-.6.6-.6c.4 0 .6.2.6.6zM151.9 248.9c0 .3-.2.5-.5.5s-.5-.2-.5-.5.2-.5.5-.5.5.2.5.5zM165.1 219.4c0 .3-.2.5-.5.5s-.5-.2-.5-.5.2-.5.5-.5.5.3.5.5zM166.1 214.2c0 .3-.3.6-.6.6s-.6-.3-.6-.6.3-.6.6-.6.6.3.6.6zM143.2 203.4c0 .3-.2.5-.5.5s-.5-.2-.5-.5.2-.5.5-.5.5.2.5.5z"/>
    <circle class="st12" cx="166.4" cy="214.3" r=".5"/>
    <path class="st12" d="M170.1 210.5c0 .2-.2.4-.4.4s-.4-.2-.4-.4.2-.4.4-.4c.2-.1.4.1.4.4zM177.7 204.6c0 .3-.3.6-.6.6s-.6-.3-.6-.6.3-.6.6-.6c.4 0 .6.3.6.6zM189 185.2c0 .3-.3.6-.6.6s-.6-.3-.6-.6.3-.6.6-.6c.4 0 .6.3.6.6zM202.2 168.7c0 .3-.2.5-.5.5s-.5-.2-.5-.5.2-.5.5-.5.5.2.5.5zM214.8 180.5c0 .2-.2.4-.4.4s-.4-.2-.4-.4.2-.4.4-.4.4.2.4.4z"/>
    <circle class="st12" cx="225.9" cy="186.4" r=".6"/>
  </g>
  <g>
    <path class="st12" d="M350.1 169.9c.2.1.3.4.2.7-.1.2-.4.3-.7.2-.2-.1-.3-.4-.2-.7.2-.2.5-.3.7-.2zM347.4 155.5c.3.1.4.5.2.8-.1.3-.5.4-.8.2-.3-.1-.4-.5-.2-.8.1-.2.5-.3.8-.2zM355.4 141.2c.3.2.5.6.3.9-.2.3-.6.5-.9.3-.3-.2-.5-.6-.3-.9.1-.4.5-.5.9-.3zM353.6 139.8c.2.1.3.4.2.7-.1.2-.4.3-.7.2-.2-.1-.3-.4-.2-.7.1-.2.4-.3.7-.2zM362.2 132c.3.1.4.5.2.8-.1.3-.5.4-.8.2s-.4-.5-.2-.8c.2-.2.5-.3.8-.2zM348.8 104.6c.3.2.5.6.3.9-.2.3-.6.5-.9.3-.3-.2-.5-.6-.3-.9.2-.4.6-.5.9-.3zM352.6 91.2c.2.1.3.4.2.7-.1.2-.4.3-.7.2-.2-.1-.3-.4-.2-.7.1-.2.4-.3.7-.2zM367.2 86.9c.2.1.3.4.2.6-.1.2-.4.3-.6.2-.2-.1-.3-.4-.2-.6.2-.2.4-.3.6-.2zM392.5 96c.3.2.5.6.3.9-.2.3-.6.5-.9.3-.3-.2-.5-.6-.3-.9.1-.4.5-.5.9-.3zM392.5 79.7c.2.1.3.4.2.7-.1.2-.4.3-.7.2-.2-.1-.3-.4-.2-.7.2-.3.5-.4.7-.2zM408.1 75.2c.3.2.5.6.3.9-.2.3-.6.5-.9.3-.3-.2-.5-.6-.3-.9.2-.3.6-.5.9-.3zM423.5 72.6c.3.2.5.6.3.9-.2.3-.6.5-.9.3-.3-.2-.5-.6-.3-.9s.6-.5.9-.3zM399 40.4c.3.2.5.6.3.9-.2.3-.6.5-.9.3-.3-.2-.5-.6-.3-.9s.5-.4.9-.3zM427.3 42.7c.2.1.3.4.2.6-.1.2-.4.3-.6.2-.2-.1-.3-.4-.2-.6.1-.3.4-.4.6-.2zM422.4 26.6c.3.1.4.5.3.8-.1.3-.5.4-.8.3-.3-.1-.4-.5-.3-.8.2-.3.5-.4.8-.3zM445.4 16.4c.2.1.3.4.2.6-.1.2-.4.3-.6.2-.2-.1-.3-.4-.2-.6.1-.2.4-.3.6-.2zM342 10.7c.3.1.4.5.2.8-.1.3-.5.4-.8.2-.3-.1-.4-.5-.2-.8.2-.3.6-.4.8-.2zM362.1 28.3c.3.1.4.5.2.7-.1.3-.5.4-.7.2-.3-.1-.4-.5-.2-.7.1-.2.5-.3.7-.2zM344.2 34.3c.2.1.3.4.2.6s-.4.3-.6.2c-.2-.1-.3-.4-.2-.6.1-.3.4-.3.6-.2zM352.7 50.5c.3.2.4.5.3.8-.2.3-.5.4-.8.3-.3-.2-.4-.5-.3-.8.2-.3.5-.5.8-.3zM329.9 53.9c.3.1.4.5.2.8-.1.3-.5.4-.8.2-.3-.1-.4-.5-.2-.8.1-.2.5-.3.8-.2zM329.5 66c.3.2.4.5.3.8s-.5.4-.8.3c-.3-.2-.4-.5-.3-.8.1-.4.5-.5.8-.3zM335.9 84.5c.3.2.4.5.3.8-.2.3-.5.4-.8.3-.3-.2-.4-.5-.3-.8.1-.3.5-.4.8-.3zM312.3 85.6c.2.1.3.4.2.6-.1.2-.4.3-.6.2-.2-.1-.3-.4-.2-.6.1-.2.3-.3.6-.2zM337.4 112.2c.3.1.4.5.2.7-.1.3-.5.4-.7.2-.3-.1-.4-.5-.2-.7.1-.3.5-.4.7-.2zM329.3 120.8c.3.1.4.4.2.7-.1.3-.4.4-.7.2-.3-.1-.4-.4-.2-.7.1-.2.4-.3.7-.2zM299.2 117.8c.2.1.3.4.2.6s-.4.3-.6.2c-.2-.1-.3-.4-.2-.6.1-.2.4-.3.6-.2zM308.3 138.3c.2.1.3.4.2.6-.1.2-.4.3-.6.2-.2-.1-.3-.4-.2-.6.1-.2.4-.3.6-.2zM300.8 153.3c.3.1.4.5.2.7-.1.3-.5.4-.7.2-.3-.1-.4-.5-.2-.7.1-.3.4-.4.7-.2zM286.6 165.9c.3.1.4.5.2.8-.1.3-.5.4-.8.2-.3-.1-.4-.5-.2-.8.2-.2.5-.4.8-.2zM270.2 156.3c.3.2.4.5.3.8-.2.3-.5.4-.8.3-.3-.2-.4-.5-.3-.8.1-.4.5-.5.8-.3zM256 155.7c.3.1.4.5.3.8-.1.3-.5.4-.8.3-.3-.1-.4-.5-.3-.8.1-.4.5-.5.8-.3zM248.6 136.2c.3.1.4.5.2.7-.1.3-.5.4-.7.2-.3-.1-.4-.5-.2-.7.1-.2.4-.3.7-.2zM239.7 128.7c.2.1.3.4.2.6-.1.2-.4.3-.6.2-.2-.1-.3-.4-.2-.6.1-.2.4-.3.6-.2zM233.5 113.4c.3.2.4.5.3.8-.2.3-.5.4-.8.3-.3-.2-.4-.5-.3-.8.1-.4.5-.5.8-.3zM199.1 125c.3.2.4.5.3.8-.2.3-.5.4-.8.3-.3-.2-.4-.5-.3-.8.1-.3.5-.5.8-.3zM210.8 107.9c.3.2.5.6.3.9-.2.3-.6.5-.9.3-.3-.2-.5-.6-.3-.9.1-.3.5-.5.9-.3zM238.1 106.6c.3.2.4.5.3.8-.2.3-.5.4-.8.3-.3-.2-.4-.5-.3-.8.1-.3.5-.4.8-.3zM219.3 83.3c.3.1.4.5.2.8-.1.3-.5.4-.8.2-.3-.1-.4-.5-.2-.8.2-.2.5-.3.8-.2zM221.2 70.5c.2.1.3.4.2.6-.1.2-.4.3-.6.2-.2-.1-.3-.4-.2-.6.1-.2.4-.3.6-.2zM259.8 76.4c.2.1.3.4.2.7s-.4.3-.7.2c-.2-.1-.3-.4-.2-.7.2-.3.5-.3.7-.2zM247.7 57.3c.3.1.4.5.2.8s-.5.4-.8.2c-.3-.1-.4-.5-.2-.8.2-.3.6-.4.8-.2zM244.6 42.6c.3.2.4.6.3.9-.2.3-.6.4-.9.3-.3-.2-.4-.6-.3-.9.2-.4.6-.5.9-.3zM263.3 39.3c.2.1.3.4.2.6-.1.2-.4.3-.6.2-.2-.1-.3-.4-.2-.6.1-.2.4-.3.6-.2zM248.5 17.3c.3.1.4.4.2.7-.1.3-.4.4-.7.2-.3-.1-.4-.4-.2-.7.1-.2.4-.3.7-.2zM258.6 9.6c.3.1.4.4.2.7-.1.3-.4.4-.7.2-.3-.1-.4-.4-.2-.7.2-.2.5-.3.7-.2zM253.9 18c.2.1.3.4.2.6-.1.2-.4.3-.6.2-.2-.1-.3-.4-.2-.6.1-.2.4-.3.6-.2zM244.5 10.7c.2.1.3.4.2.7-.1.2-.4.3-.7.2-.2-.1-.3-.4-.2-.7.1-.2.4-.3.7-.2zM230.8 33c.2.1.3.4.2.6-.1.2-.4.3-.6.2-.2-.1-.3-.4-.2-.6.1-.2.4-.3.6-.2zM198.9 12.2c.2.1.3.4.2.6-.1.2-.4.3-.6.2-.2-.1-.3-.4-.2-.6.1-.3.4-.3.6-.2zM194.6 25.1c.3.2.4.5.3.8-.2.3-.5.4-.8.3-.3-.2-.4-.5-.3-.8.1-.4.5-.5.8-.3zM199.2 48.2c.3.1.4.4.2.7-.1.3-.4.4-.7.2-.3-.1-.4-.4-.2-.7.1-.2.4-.3.7-.2zM179.7 46.3c.2.1.3.4.2.6-.1.2-.4.3-.6.2-.2-.1-.3-.4-.2-.6.2-.2.4-.3.6-.2zM171.2 55.8c.2.1.3.4.2.6-.1.2-.4.3-.6.2-.2-.1-.3-.4-.2-.6.1-.2.4-.3.6-.2zM179 82.9c.3.2.5.6.3.9-.2.3-.6.5-.9.3-.3-.2-.5-.6-.3-.9.2-.3.6-.4.9-.3zM154.4 74.9c.2.1.3.4.2.7-.1.2-.4.3-.7.2-.2-.1-.3-.4-.2-.7.2-.2.5-.3.7-.2zM145.5 82.3c.3.2.4.5.3.8-.2.3-.5.4-.8.3-.3-.2-.4-.5-.3-.8.2-.4.5-.5.8-.3zM141.1 101.6c.2.1.3.4.2.7-.1.2-.4.3-.7.2-.2-.1-.3-.4-.2-.7.2-.3.5-.4.7-.2zM121 76.3c.2.1.3.4.2.7-.1.2-.4.3-.7.2-.2-.1-.3-.4-.2-.7.2-.3.5-.4.7-.2zM116.8 73c.3.2.4.5.3.8-.2.3-.5.4-.8.3-.3-.2-.4-.5-.3-.8.2-.3.5-.4.8-.3zM96.7 88.4c.2.1.3.4.2.7-.1.2-.4.3-.7.2-.2-.1-.3-.4-.2-.7.2-.2.5-.3.7-.2z"/>
    <path class="st12" d="M117.3 72.3c.2.1.3.4.2.7-.1.2-.4.3-.7.2-.2-.1-.3-.4-.2-.7.2-.2.5-.3.7-.2zM115.4 67.7c.2.1.3.4.2.6-.1.2-.4.3-.6.2-.2-.1-.3-.4-.2-.6.1-.2.4-.3.6-.2zM113.7 58.3c.3.1.4.5.2.8-.1.3-.5.4-.8.2-.3-.1-.4-.5-.2-.8.1-.3.5-.4.8-.2zM101.6 39.3c.3.1.4.5.2.8-.1.3-.5.4-.8.2-.3-.1-.4-.5-.2-.8.2-.2.5-.3.8-.2zM93 20c.2.1.3.4.2.6-.1.2-.4.3-.6.2-.2-.1-.3-.4-.2-.6.1-.2.3-.3.6-.2zM109.3 14.3c.2.1.3.4.2.6-.1.2-.4.3-.6.2-.2-.1-.3-.4-.2-.6.1-.3.4-.3.6-.2zM119.9 6.6c.3.1.4.5.3.8-.1.3-.5.4-.8.3-.3-.1-.4-.5-.3-.8.2-.3.5-.4.8-.3z"/>
  </g>
  <g>
    <path class="st12" d="M569.5 358.5c.2.1.3.4.2.7-.1.2-.4.3-.7.2-.2-.1-.3-.4-.2-.7.2-.3.5-.4.7-.2zM566.8 344c.3.1.4.5.2.8-.1.3-.5.4-.8.2-.3-.1-.4-.5-.2-.8s.5-.3.8-.2zM574.7 329.7c.3.2.5.6.3.9-.2.3-.6.5-.9.3-.3-.2-.5-.6-.3-.9s.6-.5.9-.3zM572.9 328.4c.2.1.3.4.2.7s-.4.3-.7.2c-.2-.1-.3-.4-.2-.7.2-.3.5-.4.7-.2zM581.6 320.5c.3.1.4.5.2.8-.1.3-.5.4-.8.2-.3-.1-.4-.5-.2-.8.1-.2.5-.3.8-.2zM568.2 293.1c.3.2.5.6.3.9-.2.3-.6.5-.9.3-.3-.2-.5-.6-.3-.9.1-.3.5-.5.9-.3zM572 279.7c.2.1.3.4.2.7-.1.2-.4.3-.7.2-.2-.1-.3-.4-.2-.7.1-.2.4-.3.7-.2zM586.6 275.4c.2.1.3.4.2.6-.1.2-.4.3-.6.2-.2-.1-.3-.4-.2-.6.2-.2.4-.3.6-.2zM611.9 284.5c.3.2.5.6.3.9-.2.3-.6.5-.9.3s-.5-.6-.3-.9c.1-.3.5-.5.9-.3zM611.9 268.2c.2.1.3.4.2.7-.1.2-.4.3-.7.2-.2-.1-.3-.4-.2-.7.2-.2.5-.3.7-.2zM627.5 263.7c.3.2.5.6.3.9-.2.3-.6.5-.9.3-.3-.2-.5-.6-.3-.9.2-.3.6-.4.9-.3zM642.9 261.1c.3.2.5.6.3.9-.2.3-.6.5-.9.3-.3-.2-.5-.6-.3-.9.2-.3.6-.5.9-.3zM618.4 229c.3.2.5.6.3.9-.2.3-.6.5-.9.3-.3-.2-.5-.6-.3-.9.1-.4.5-.5.9-.3zM646.7 231.2c.2.1.3.4.2.6-.1.2-.4.3-.6.2-.2-.1-.3-.4-.2-.6.1-.2.4-.3.6-.2zM641.8 215.2c.3.1.4.5.3.8-.1.3-.5.4-.8.3-.3-.1-.4-.5-.3-.8.1-.4.5-.5.8-.3zM664.8 205c.2.1.3.4.2.6-.1.2-.4.3-.6.2-.2-.1-.3-.4-.2-.6.1-.3.3-.3.6-.2zM663.9 185.8c.3.2.4.5.3.8-.2.3-.5.4-.8.3-.3-.2-.4-.5-.3-.8.2-.4.5-.5.8-.3zM635.3 184.5c.3.1.4.5.2.8-.1.3-.5.4-.8.2s-.4-.5-.2-.8c.2-.2.6-.3.8-.2zM622.8 183.3c.3.1.4.5.3.8-.1.3-.5.4-.8.3-.3-.1-.4-.5-.3-.8.2-.3.5-.4.8-.3zM620.8 162.2c.2.1.3.4.2.6-.1.2-.4.3-.6.2-.2-.1-.3-.4-.2-.6.2-.3.4-.3.6-.2zM607.4 167.2c.2.1.3.4.2.6-.1.2-.4.3-.6.2-.2-.1-.3-.4-.2-.6.1-.2.4-.3.6-.2zM608 180.4c.3.2.4.5.3.8-.2.3-.5.4-.8.3-.3-.2-.4-.5-.3-.8.1-.3.5-.5.8-.3zM572.9 174.6c.2.1.3.4.2.6-.1.2-.4.3-.6.2-.2-.1-.3-.4-.2-.6.1-.2.4-.3.6-.2zM570.2 186.3c.2.1.3.4.2.7-.1.2-.4.3-.7.2-.2-.1-.3-.4-.2-.7.1-.2.4-.3.7-.2zM561.4 199.2c.3.1.4.5.2.8-.1.3-.5.4-.8.2-.3-.1-.4-.5-.2-.8.2-.2.6-.4.8-.2zM581.5 216.8c.3.1.4.5.2.7-.1.3-.5.4-.7.2-.3-.1-.4-.5-.2-.7.1-.2.5-.3.7-.2zM563.6 222.8c.2.1.3.4.2.6s-.4.3-.6.2c-.2-.1-.3-.4-.2-.6.1-.2.4-.3.6-.2zM572.1 239c.3.2.4.5.3.8-.2.3-.5.4-.8.3-.3-.2-.4-.5-.3-.8.1-.3.5-.4.8-.3zM549.3 242.5c.3.1.4.5.2.8-.1.3-.5.4-.8.2-.3-.1-.4-.5-.2-.8.1-.3.5-.4.8-.2zM548.9 254.5c.3.2.4.5.3.8-.2.3-.5.4-.8.3-.3-.2-.4-.5-.3-.8.1-.3.5-.4.8-.3zM555.3 273.1c.3.2.4.5.3.8-.2.3-.5.4-.8.3-.3-.2-.4-.5-.3-.8.1-.4.5-.5.8-.3zM531.6 274.2c.2.1.3.4.2.6-.1.2-.4.3-.6.2-.2-.1-.3-.4-.2-.6.2-.3.4-.4.6-.2zM556.8 300.7c.3.1.4.5.2.7-.1.3-.5.4-.7.2-.3-.1-.4-.5-.2-.7s.4-.3.7-.2zM548.7 309.3c.3.1.4.4.2.7-.1.3-.4.4-.7.2-.3-.1-.4-.4-.2-.7.1-.2.4-.3.7-.2zM518.6 306.4c.2.1.3.4.2.6-.1.2-.4.3-.6.2-.2-.1-.3-.4-.2-.6.1-.3.4-.4.6-.2zM527.6 326.8c.2.1.3.4.2.6-.1.2-.4.3-.6.2-.2-.1-.3-.4-.2-.6.2-.2.4-.3.6-.2zM520.2 341.8c.3.1.4.5.2.7-.1.3-.5.4-.7.2-.3-.1-.4-.5-.2-.7.1-.2.4-.3.7-.2zM506 354.4c.3.1.4.5.2.8-.1.3-.5.4-.8.2-.3-.1-.4-.5-.2-.8.2-.2.5-.3.8-.2zM489.6 344.8c.3.2.4.5.3.8-.2.3-.5.4-.8.3-.3-.2-.4-.5-.3-.8.1-.3.5-.5.8-.3zM475.4 344.2c.3.1.4.5.3.8-.1.3-.5.4-.8.3-.3-.1-.4-.5-.3-.8.1-.3.5-.4.8-.3zM468 324.8c.3.1.4.5.2.7-.1.3-.5.4-.7.2-.3-.1-.4-.5-.2-.7.1-.3.4-.4.7-.2zM459.1 317.2c.2.1.3.4.2.6-.1.2-.4.3-.6.2s-.3-.4-.2-.6.4-.3.6-.2zM452.9 301.9c.3.2.4.5.3.8-.2.3-.5.4-.8.3-.3-.2-.4-.5-.3-.8.1-.4.5-.5.8-.3zM418.5 313.5c.3.2.4.5.3.8s-.5.4-.8.3-.4-.5-.3-.8c.1-.3.4-.4.8-.3zM430.2 296.4c.3.2.5.6.3.9-.2.3-.6.5-.9.3-.3-.2-.5-.6-.3-.9.1-.3.5-.4.9-.3zM457.5 295.2c.3.2.4.5.3.8-.2.3-.5.4-.8.3-.3-.2-.4-.5-.3-.8.1-.4.4-.5.8-.3zM438.7 271.8c.3.1.4.5.2.8-.1.3-.5.4-.8.2-.3-.1-.4-.5-.2-.8.2-.2.5-.3.8-.2zM440.6 259c.2.1.3.4.2.6-.1.2-.4.3-.6.2-.2-.1-.3-.4-.2-.6.1-.2.4-.3.6-.2zM479.2 264.9c.2.1.3.4.2.7-.1.2-.4.3-.7.2-.2-.1-.3-.4-.2-.7.1-.2.4-.3.7-.2zM467.1 245.8c.3.1.4.5.2.8s-.5.4-.8.2-.4-.5-.2-.8.5-.3.8-.2zM464 231.1c.3.2.4.6.3.9-.2.3-.6.4-.9.3-.3-.2-.4-.6-.3-.9.2-.4.6-.5.9-.3zM482.7 227.8c.2.1.3.4.2.6-.1.2-.4.3-.6.2-.2-.1-.3-.4-.2-.6.1-.2.3-.3.6-.2zM467.8 205.8c.3.1.4.4.2.7-.1.3-.4.4-.7.2-.3-.1-.4-.4-.2-.7.2-.2.5-.3.7-.2zM478 198.2c.3.1.4.4.2.7-.1.3-.4.4-.7.2-.3-.1-.4-.4-.2-.7.1-.3.5-.4.7-.2zM493.8 181.9c.2.1.3.4.2.6-.1.2-.4.3-.6.2-.2-.1-.3-.4-.2-.6s.4-.4.6-.2zM473.3 206.5c.2.1.3.4.2.6-.1.2-.4.3-.6.2-.2-.1-.3-.4-.2-.6.1-.2.4-.3.6-.2zM463.9 199.2c.2.1.3.4.2.7-.1.2-.4.3-.7.2-.2-.1-.3-.4-.2-.7.1-.2.4-.3.7-.2zM440.7 184.3c.3.2.5.6.3.9-.2.3-.6.5-.9.3s-.5-.6-.3-.9c.1-.3.6-.5.9-.3zM450.2 221.6c.2.1.3.4.2.6-.1.2-.4.3-.6.2-.2-.1-.3-.4-.2-.6.1-.3.4-.3.6-.2zM418.3 200.7c.2.1.3.4.2.6-.1.2-.4.3-.6.2-.2-.1-.3-.4-.2-.6.1-.2.3-.3.6-.2zM413.9 213.6c.3.2.4.5.3.8-.2.3-.5.4-.8.3-.3-.2-.4-.5-.3-.8.2-.4.5-.5.8-.3zM418.5 236.7c.3.1.4.4.2.7-.1.3-.4.4-.7.2-.3-.1-.4-.4-.2-.7.2-.2.5-.3.7-.2zM399.1 234.8c.2.1.3.4.2.6-.1.2-.4.3-.6.2-.2-.1-.3-.4-.2-.6.1-.2.4-.3.6-.2zM390.6 244.3c.2.1.3.4.2.6-.1.2-.4.3-.6.2-.2-.1-.3-.4-.2-.6.1-.2.4-.3.6-.2zM398.4 271.5c.3.2.5.6.3.9-.2.3-.6.5-.9.3-.3-.2-.5-.6-.3-.9.2-.4.6-.5.9-.3zM373.8 263.5c.2.1.3.4.2.7-.1.2-.4.3-.7.2-.2-.1-.3-.4-.2-.7.2-.3.5-.4.7-.2zM364.9 270.8c.3.2.4.5.3.8-.2.3-.5.4-.8.3-.3-.2-.4-.5-.3-.8.2-.3.5-.4.8-.3zM360.5 290.1c.2.1.3.4.2.7-.1.2-.4.3-.7.2-.2-.1-.3-.4-.2-.7.2-.3.5-.3.7-.2zM340.4 264.8c.2.1.3.4.2.7-.1.2-.4.3-.7.2-.2-.1-.3-.4-.2-.7.2-.2.5-.3.7-.2zM336.2 261.6c.3.2.4.5.3.8-.2.3-.5.4-.8.3-.3-.2-.4-.5-.3-.8.2-.4.5-.5.8-.3zM316.1 276.9c.2.1.3.4.2.7-.1.2-.4.3-.7.2-.2-.1-.3-.4-.2-.7.2-.2.5-.3.7-.2z"/>
    <path class="st12" d="M336.7 260.9c.2.1.3.4.2.7-.1.2-.4.3-.7.2-.2-.1-.3-.4-.2-.7.1-.3.4-.4.7-.2zM334.8 256.2c.2.1.3.4.2.6-.1.2-.4.3-.6.2-.2-.1-.3-.4-.2-.6.1-.2.3-.3.6-.2zM333.1 246.8c.3.1.4.5.2.8-.1.3-.5.4-.8.2-.3-.1-.4-.5-.2-.8.1-.2.5-.3.8-.2zM321 227.8c.3.1.4.5.2.8-.1.3-.5.4-.8.2-.3-.1-.4-.5-.2-.8.2-.2.5-.3.8-.2zM312.4 208.6c.2.1.3.4.2.6-.1.2-.4.3-.6.2-.2-.1-.3-.4-.2-.6 0-.3.3-.4.6-.2zM328.7 202.8c.2.1.3.4.2.6-.1.2-.4.3-.6.2-.2-.1-.3-.4-.2-.6.1-.2.4-.3.6-.2zM339.3 195.1c.3.1.4.5.3.8-.1.3-.5.4-.8.3-.3-.1-.4-.5-.3-.8.1-.3.5-.4.8-.3z"/>
  </g>
  <g>
    <path class="st12" d="M846.5 211c.2.1.3.4.2.7-.1.2-.4.3-.7.2-.2-.1-.3-.4-.2-.7.2-.2.5-.3.7-.2zM843.8 196.6c.3.1.4.5.2.8-.1.3-.5.4-.8.2-.3-.1-.4-.5-.2-.8.1-.3.5-.4.8-.2zM851.8 182.2c.3.2.5.6.3.9-.2.3-.6.5-.9.3-.3-.2-.5-.6-.3-.9.1-.3.5-.5.9-.3zM850 180.9c.2.1.3.4.2.7s-.4.3-.7.2c-.2-.1-.3-.4-.2-.7s.4-.4.7-.2zM858.6 173c.3.1.4.5.2.8-.1.3-.5.4-.8.2-.3-.1-.4-.5-.2-.8.2-.2.5-.3.8-.2zM845.2 145.6c.3.2.5.6.3.9-.2.3-.6.5-.9.3-.3-.2-.5-.6-.3-.9.2-.3.6-.5.9-.3zM849 132.2c.2.1.3.4.2.7-.1.2-.4.3-.7.2-.2-.1-.3-.4-.2-.7.1-.2.4-.3.7-.2zM863.6 128c.2.1.3.4.2.6-.1.2-.4.3-.6.2-.2-.1-.3-.4-.2-.6.2-.3.4-.4.6-.2zM888.9 137c.3.2.5.6.3.9-.2.3-.6.5-.9.3-.3-.2-.5-.6-.3-.9.1-.3.5-.5.9-.3zM888.9 120.7c.2.1.3.4.2.7-.1.2-.4.3-.7.2-.2-.1-.3-.4-.2-.7.2-.2.5-.3.7-.2zM904.6 116.3c.3.2.5.6.3.9-.2.3-.6.5-.9.3-.3-.2-.5-.6-.3-.9.1-.4.5-.5.9-.3zM919.9 113.6c.3.2.5.6.3.9-.2.3-.6.5-.9.3-.3-.2-.5-.6-.3-.9.2-.3.6-.4.9-.3zM895.4 81.5c.3.2.5.6.3.9-.2.3-.6.5-.9.3-.3-.2-.5-.6-.3-.9.1-.4.5-.5.9-.3zM923.7 83.7c.2.1.3.4.2.6-.1.2-.4.3-.6.2-.2-.1-.3-.4-.2-.6s.4-.3.6-.2zM918.8 67.7c.3.1.4.5.3.8-.1.3-.5.4-.8.3-.3-.1-.4-.5-.3-.8.2-.4.5-.5.8-.3zM912.4 37.1c.3.1.4.5.2.8-.1.3-.5.4-.8.2s-.4-.5-.2-.8c.1-.3.5-.4.8-.2zM899.8 35.8c.3.1.4.5.3.8-.1.3-.5.4-.8.3-.3-.1-.4-.5-.3-.8.2-.3.5-.4.8-.3zM897.8 14.7c.2.1.3.4.2.6-.1.2-.4.3-.6.2-.2-.1-.3-.4-.2-.6.2-.2.4-.3.6-.2zM884.4 19.7c.2.1.3.4.2.6-.1.2-.4.3-.6.2-.2-.1-.3-.4-.2-.6.1-.2.4-.3.6-.2zM885 32.9c.3.2.4.5.3.8-.2.3-.5.4-.8.3-.3-.2-.4-.5-.3-.8.1-.3.5-.4.8-.3zM849.9 27.1c.2.1.3.4.2.6-.1.2-.4.3-.6.2s-.3-.4-.2-.6c.2-.2.4-.3.6-.2zM847.2 38.9c.2.1.3.4.2.7-.1.2-.4.3-.7.2-.2-.1-.3-.4-.2-.7s.4-.4.7-.2zM838.5 51.7c.3.1.4.5.2.8-.1.3-.5.4-.8.2-.3-.1-.4-.5-.2-.8.1-.2.5-.3.8-.2zM858.5 69.4c.3.1.4.5.2.7-.1.3-.5.4-.7.2-.3-.1-.4-.5-.2-.7.1-.3.5-.4.7-.2zM840.6 75.3c.2.1.3.4.2.6-.1.2-.4.3-.6.2-.2-.1-.3-.4-.2-.6.1-.2.4-.3.6-.2zM849.1 91.5c.3.2.4.5.3.8-.2.3-.5.4-.8.3-.3-.2-.4-.5-.3-.8.2-.3.5-.4.8-.3zM826.3 95c.3.1.4.5.2.8-.1.3-.5.4-.8.2-.3-.1-.4-.5-.2-.8.2-.3.5-.4.8-.2zM825.9 107c.3.2.4.5.3.8s-.5.4-.8.3c-.3-.2-.4-.5-.3-.8.1-.3.5-.4.8-.3zM832.3 125.6c.3.2.4.5.3.8-.2.3-.5.4-.8.3-.3-.2-.4-.5-.3-.8.1-.3.5-.5.8-.3zM808.7 126.7c.2.1.3.4.2.6-.1.2-.4.3-.6.2-.2-.1-.3-.4-.2-.6.1-.3.3-.3.6-.2zM833.8 153.2c.3.1.4.5.2.7-.1.3-.5.4-.7.2-.3-.1-.4-.5-.2-.7.1-.2.5-.3.7-.2zM825.7 161.8c.3.1.4.4.2.7-.1.3-.4.4-.7.2-.3-.1-.4-.4-.2-.7.1-.2.4-.3.7-.2zM795.6 158.9c.2.1.3.4.2.6-.1.2-.4.3-.6.2-.2-.1-.3-.4-.2-.6.1-.3.4-.3.6-.2zM804.7 179.3c.2.1.3.4.2.6-.1.2-.4.3-.6.2-.2-.1-.3-.4-.2-.6.1-.2.4-.3.6-.2zM797.2 194.3c.3.1.4.5.2.7-.1.3-.5.4-.7.2-.3-.1-.4-.5-.2-.7s.4-.3.7-.2zM783 206.9c.3.1.4.5.2.8-.1.3-.5.4-.8.2-.3-.1-.4-.5-.2-.8.2-.2.5-.3.8-.2zM766.6 197.3c.3.2.4.5.3.8-.2.3-.5.4-.8.3-.3-.2-.4-.5-.3-.8.1-.3.5-.4.8-.3zM752.4 196.7c.3.1.4.5.3.8-.1.3-.5.4-.8.3-.3-.1-.4-.5-.3-.8.1-.3.5-.4.8-.3zM745 177.3c.3.1.4.5.2.7-.1.3-.5.4-.7.2-.3-.1-.4-.5-.2-.7.1-.3.4-.4.7-.2zM736.1 169.7c.2.1.3.4.2.6-.1.2-.4.3-.6.2-.2-.1-.3-.4-.2-.6.1-.2.4-.3.6-.2zM729.9 154.4c.3.2.4.5.3.8-.2.3-.5.4-.8.3-.3-.2-.4-.5-.3-.8.1-.3.5-.5.8-.3zM695.5 166c.3.2.4.5.3.8-.2.3-.5.4-.8.3-.3-.2-.4-.5-.3-.8.1-.3.5-.4.8-.3zM707.2 149c.3.2.5.6.3.9-.2.3-.6.5-.9.3-.3-.2-.5-.6-.3-.9.1-.4.6-.5.9-.3zM734.5 147.7c.3.2.4.5.3.8-.2.3-.5.4-.8.3-.3-.2-.4-.5-.3-.8.1-.4.5-.5.8-.3zM715.7 124.3c.3.1.4.5.2.8-.1.3-.5.4-.8.2-.3-.1-.4-.5-.2-.8.2-.2.5-.3.8-.2zM717.6 111.5c.2.1.3.4.2.6-.1.2-.4.3-.6.2-.2-.1-.3-.4-.2-.6.1-.2.4-.3.6-.2zM756.2 117.4c.2.1.3.4.2.7-.1.2-.4.3-.7.2-.2-.1-.3-.4-.2-.7.2-.2.5-.3.7-.2zM744.1 98.3c.3.1.4.5.2.8-.1.3-.5.4-.8.2-.3-.1-.4-.5-.2-.8.2-.2.6-.3.8-.2zM741 83.6c.3.2.4.6.3.9-.2.3-.6.4-.9.3-.3-.2-.4-.6-.3-.9.2-.3.6-.5.9-.3zM759.7 80.4c.2.1.3.4.2.6-.1.2-.4.3-.6.2-.2-.1-.3-.4-.2-.6.1-.3.4-.4.6-.2zM744.9 58.3c.3.1.4.4.2.7-.1.3-.4.4-.7.2-.3-.1-.4-.4-.2-.7.1-.2.4-.3.7-.2zM755 50.7c.3.1.4.4.2.7-.1.3-.4.4-.7.2-.3-.1-.4-.4-.2-.7s.5-.4.7-.2zM770.8 34.4c.2.1.3.4.2.6-.1.2-.4.3-.6.2s-.3-.4-.2-.6c.1-.3.4-.3.6-.2zM750.3 59.1c.2.1.3.4.2.6-.1.2-.4.3-.6.2-.2-.1-.3-.4-.2-.6.1-.3.4-.4.6-.2zM740.9 51.7c.2.1.3.4.2.7-.1.2-.4.3-.7.2-.2-.1-.3-.4-.2-.7.1-.2.4-.3.7-.2zM717.7 36.8c.3.2.5.6.3.9-.2.3-.6.5-.9.3-.3-.2-.5-.6-.3-.9.2-.3.6-.4.9-.3zM727.2 74.1c.2.1.3.4.2.6-.1.2-.4.3-.6.2-.2-.1-.3-.4-.2-.6.1-.2.4-.3.6-.2zM695.3 53.2c.2.1.3.4.2.6-.1.2-.4.3-.6.2-.2-.1-.3-.4-.2-.6.1-.2.4-.3.6-.2zM691 66.1c.3.2.4.5.3.8-.2.3-.5.4-.8.3-.3-.2-.4-.5-.3-.8.1-.3.5-.5.8-.3zM695.6 89.3c.3.1.4.4.2.7-.1.3-.4.4-.7.2-.3-.1-.4-.4-.2-.7.1-.3.4-.4.7-.2zM676.1 87.4c.2.1.3.4.2.6-.1.2-.4.3-.6.2-.2-.1-.3-.4-.2-.6.2-.3.4-.4.6-.2zM667.6 96.8c.2.1.3.4.2.6-.1.2-.4.3-.6.2-.2-.1-.3-.4-.2-.6.1-.2.4-.3.6-.2zM675.5 124c.3.2.5.6.3.9-.2.3-.6.5-.9.3-.3-.2-.5-.6-.3-.9.1-.4.5-.5.9-.3zM650.9 116c.2.1.3.4.2.7-.1.2-.4.3-.7.2-.2-.1-.3-.4-.2-.7.1-.2.4-.3.7-.2zM642 123.3c.3.2.4.5.3.8-.2.3-.5.4-.8.3s-.4-.5-.3-.8c.1-.3.5-.4.8-.3zM637.5 142.6c.2.1.3.4.2.7-.1.2-.4.3-.7.2-.2-.1-.3-.4-.2-.7.2-.2.5-.3.7-.2zM617.4 117.3c.2.1.3.4.2.7s-.4.3-.7.2-.3-.4-.2-.7c.2-.2.5-.3.7-.2zM613.2 114.1c.3.2.4.5.3.8-.2.3-.5.4-.8.3-.3-.2-.4-.5-.3-.8.2-.4.5-.5.8-.3zM593.1 129.4c.2.1.3.4.2.7-.1.2-.4.3-.7.2-.2-.1-.3-.4-.2-.7.2-.2.5-.3.7-.2z"/>
    <path class="st12" d="M613.7 113.4c.2.1.3.4.2.7-.1.2-.4.3-.7.2-.2-.1-.3-.4-.2-.7s.5-.3.7-.2zM611.8 108.7c.2.1.3.4.2.6-.1.2-.4.3-.6.2-.2-.1-.3-.4-.2-.6.1-.2.4-.3.6-.2zM610.1 99.3c.3.1.4.5.2.8-.1.3-.5.4-.8.2-.3-.1-.4-.5-.2-.8.1-.2.5-.3.8-.2zM598 80.3c.3.1.4.5.2.8-.1.3-.5.4-.8.2-.3-.1-.4-.5-.2-.8.2-.2.5-.3.8-.2zM589.4 61.1c.2.1.3.4.2.6s-.4.3-.6.2c-.2-.1-.3-.4-.2-.6.1-.3.4-.3.6-.2zM605.7 55.3c.2.1.3.4.2.6-.1.2-.4.3-.6.2-.2-.1-.3-.4-.2-.6.1-.2.4-.3.6-.2zM616.3 47.7c.3.1.4.5.3.8-.1.3-.5.4-.8.3-.3-.1-.4-.5-.3-.8.2-.4.5-.5.8-.3z"/>
  </g>
  <g>
    <path class="st12" d="M723.3 486c.2.1.3.4.2.7-.1.2-.4.3-.7.2-.2-.1-.3-.4-.2-.7.2-.2.5-.3.7-.2zM738 481.7c.2.1.3.4.2.6-.1.2-.4.3-.6.2-.2-.1-.3-.4-.2-.6.2-.2.4-.3.6-.2zM763.2 490.8c.3.2.5.6.3.9-.2.3-.6.5-.9.3-.3-.2-.5-.6-.3-.9.2-.4.6-.5.9-.3zM763.3 474.5c.2.1.3.4.2.7-.1.2-.4.3-.7.2-.2-.1-.3-.4-.2-.7.2-.3.4-.4.7-.2zM778.9 470c.3.2.5.6.3.9-.2.3-.6.5-.9.3-.3-.2-.5-.6-.3-.9.2-.3.6-.4.9-.3zM794.3 467.4c.3.2.5.6.3.9-.2.3-.6.5-.9.3-.3-.2-.5-.6-.3-.9.2-.4.6-.5.9-.3zM769.8 435.2c.3.2.5.6.3.9-.2.3-.6.5-.9.3-.3-.2-.5-.6-.3-.9.1-.3.5-.4.9-.3zM798.1 437.5c.2.1.3.4.2.6-.1.2-.4.3-.6.2-.2-.1-.3-.4-.2-.6.1-.3.4-.4.6-.2zM793.2 421.4c.3.1.4.5.3.8-.1.3-.5.4-.8.3s-.4-.5-.3-.8c.1-.3.5-.4.8-.3zM816.1 411.2c.2.1.3.4.2.6-.1.2-.4.3-.6.2-.2-.1-.3-.4-.2-.6.2-.2.4-.3.6-.2zM815.3 392.1c.3.2.4.5.3.8-.2.3-.5.4-.8.3-.3-.2-.4-.5-.3-.8.1-.4.5-.5.8-.3zM786.7 390.8c.3.1.4.5.2.8-.1.3-.5.4-.8.2-.3-.1-.4-.5-.2-.8.2-.2.5-.3.8-.2zM774.2 389.6c.3.1.4.5.3.8-.1.3-.5.4-.8.3-.3-.1-.4-.5-.3-.8.1-.3.5-.5.8-.3zM772.2 368.4c.2.1.3.4.2.6-.1.2-.4.3-.6.2-.2-.1-.3-.4-.2-.6.1-.2.4-.3.6-.2zM758.8 373.5c.2.1.3.4.2.6-.1.2-.4.3-.6.2-.2-.1-.3-.4-.2-.6.1-.2.4-.3.6-.2zM759.4 386.7c.3.2.4.5.3.8-.2.3-.5.4-.8.3-.3-.2-.4-.5-.3-.8.1-.4.5-.5.8-.3zM724.3 380.9c.2.1.3.4.2.6-.1.2-.4.3-.6.2-.2-.1-.3-.4-.2-.6.1-.2.4-.3.6-.2zM721.5 392.6c.2.1.3.4.2.7-.1.2-.4.3-.7.2-.2-.1-.3-.4-.2-.7.2-.2.5-.3.7-.2zM712.8 405.5c.3.1.4.5.2.8-.1.3-.5.4-.8.2-.3-.1-.4-.5-.2-.8.2-.3.5-.4.8-.2zM732.9 423.1c.3.1.4.5.2.7-.1.3-.5.4-.7.2-.3-.1-.4-.5-.2-.7.1-.2.4-.3.7-.2zM715 429.1c.2.1.3.4.2.6-.1.2-.4.3-.6.2-.2-.1-.3-.4-.2-.6.1-.2.4-.3.6-.2zM723.5 445.3c.3.2.4.5.3.8-.2.3-.5.4-.8.3-.3-.2-.4-.5-.3-.8.1-.3.5-.5.8-.3zM700.6 448.7c.3.1.4.5.2.8-.1.3-.5.4-.8.2-.3-.1-.4-.5-.2-.8.2-.2.6-.3.8-.2zM700.2 460.8c.3.2.4.5.3.8-.2.3-.5.4-.8.3-.3-.2-.4-.5-.3-.8.2-.4.6-.5.8-.3zM706.6 479.4c.3.2.4.5.3.8-.2.3-.5.4-.8.3-.3-.2-.4-.5-.3-.8.2-.4.6-.5.8-.3zM683 480.4c.2.1.3.4.2.6-.1.2-.4.3-.6.2-.2-.1-.3-.4-.2-.6.1-.2.4-.3.6-.2zM590.1 478.1c.3.1.4.5.2.8-.1.3-.5.4-.8.2-.3-.1-.4-.5-.2-.8s.5-.3.8-.2zM592 465.3c.2.1.3.4.2.6-.1.2-.4.3-.6.2-.2-.1-.3-.4-.2-.6.1-.2.4-.3.6-.2zM630.6 471.2c.2.1.3.4.2.7-.1.2-.4.3-.7.2-.2-.1-.3-.4-.2-.7.1-.2.4-.3.7-.2zM618.5 452.1c.3.1.4.5.2.8-.1.3-.5.4-.8.2-.3-.1-.4-.5-.2-.8.2-.2.5-.4.8-.2zM615.4 437.4c.3.2.4.6.3.9-.2.3-.6.4-.9.3-.3-.2-.4-.6-.3-.9s.6-.5.9-.3zM634.1 434.1c.2.1.3.4.2.6-.1.2-.4.3-.6.2-.2-.1-.3-.4-.2-.6.1-.2.3-.3.6-.2zM619.2 412.1c.3.1.4.4.2.7-.1.3-.4.4-.7.2-.3-.1-.4-.4-.2-.7.2-.2.5-.3.7-.2zM629.4 404.4c.3.1.4.4.2.7-.1.3-.4.4-.7.2-.3-.1-.4-.4-.2-.7.1-.2.4-.3.7-.2zM645.2 388.1c.2.1.3.4.2.6-.1.2-.4.3-.6.2-.2-.1-.3-.4-.2-.6.1-.2.4-.3.6-.2zM624.7 412.8c.2.1.3.4.2.6-.1.2-.4.3-.6.2-.2-.1-.3-.4-.2-.6.1-.2.4-.3.6-.2zM615.2 405.5c.2.1.3.4.2.7-.1.2-.4.3-.7.2-.2-.1-.3-.4-.2-.7.2-.2.5-.3.7-.2zM592.1 390.6c.3.2.5.6.3.9-.2.3-.6.5-.9.3s-.5-.6-.3-.9c.1-.4.5-.5.9-.3zM601.6 427.9c.2.1.3.4.2.6s-.4.3-.6.2c-.2-.1-.3-.4-.2-.6s.3-.4.6-.2zM569.6 407c.2.1.3.4.2.6-.1.2-.4.3-.6.2-.2-.1-.3-.4-.2-.6.2-.2.4-.3.6-.2zM565.3 419.9c.3.2.4.5.3.8-.2.3-.5.4-.8.3-.3-.2-.4-.5-.3-.8.2-.4.5-.5.8-.3zM569.9 443c.3.1.4.4.2.7-.1.3-.4.4-.7.2-.3-.1-.4-.4-.2-.7.2-.2.5-.3.7-.2zM550.5 441.1c.2.1.3.4.2.6-.1.2-.4.3-.6.2-.2-.1-.3-.4-.2-.6.1-.2.4-.3.6-.2zM542 450.6c.2.1.3.4.2.6-.1.2-.4.3-.6.2-.2-.1-.3-.4-.2-.6.1-.2.4-.3.6-.2zM549.8 477.8c.3.2.5.6.3.9-.2.3-.6.5-.9.3-.3-.2-.5-.6-.3-.9.2-.4.6-.5.9-.3zM525.2 469.8c.2.1.3.4.2.7-.1.2-.4.3-.7.2-.2-.1-.3-.4-.2-.7.2-.3.5-.4.7-.2zM516.3 477.1c.3.2.4.5.3.8-.2.3-.5.4-.8.3s-.4-.5-.3-.8c.2-.3.5-.5.8-.3zM511.9 496.4c.2.1.3.4.2.7-.1.2-.4.3-.7.2-.2-.1-.3-.4-.2-.7.2-.3.5-.4.7-.2zM491.8 471.1c.2.1.3.4.2.7-.1.2-.4.3-.7.2-.2-.1-.3-.4-.2-.7.2-.3.5-.3.7-.2zM487.6 467.8c.3.2.4.5.3.8s-.5.4-.8.3c-.3-.2-.4-.5-.3-.8.1-.3.5-.4.8-.3zM467.5 483.2c.2.1.3.4.2.7-.1.2-.4.3-.7.2-.2-.1-.3-.4-.2-.7.1-.2.4-.3.7-.2z"/>
    <path class="st12" d="M488.1 467.2c.2.1.3.4.2.7-.1.2-.4.3-.7.2-.2-.1-.3-.4-.2-.7.1-.3.4-.4.7-.2zM486.1 462.5c.2.1.3.4.2.6s-.4.3-.6.2-.3-.4-.2-.6c.2-.2.4-.3.6-.2zM484.4 453.1c.3.1.4.5.2.8-.1.3-.5.4-.8.2-.3-.1-.4-.5-.2-.8.2-.2.6-.4.8-.2zM472.4 434.1c.3.1.4.5.2.8-.1.3-.5.4-.8.2-.3-.1-.4-.5-.2-.8.2-.2.5-.3.8-.2zM463.8 414.8c.2.1.3.4.2.6-.1.2-.4.3-.6.2-.2-.1-.3-.4-.2-.6 0-.2.3-.3.6-.2zM480 409.1c.2.1.3.4.2.6-.1.2-.4.3-.6.2-.2-.1-.3-.4-.2-.6.2-.3.4-.3.6-.2zM490.7 401.4c.3.1.4.5.3.8s-.5.4-.8.3c-.3-.1-.4-.5-.3-.8.1-.3.5-.4.8-.3z"/>
  </g>
  <g>
    <path class="st12" d="M89.5 480c0 .4-.3.7-.7.7s-.7-.3-.7-.7c0-.4.3-.7.7-.7s.7.4.7.7zM103.1 477.2c0 .3-.2.5-.5.5s-.5-.2-.5-.5.2-.5.5-.5.5.3.5.5zM113.7 488.3c0 .2-.2.4-.4.4s-.4-.2-.4-.4.2-.4.4-.4.4.2.4.4zM169.5 495.1c0 .4-.3.7-.7.7-.4 0-.7-.3-.7-.7 0-.4.3-.7.7-.7.4 0 .7.3.7.7zM216.8 489.8c0 .3-.3.6-.6.6s-.6-.3-.6-.6.3-.6.6-.6.6.3.6.6zM212.1 478.1c0 .3-.3.6-.6.6s-.6-.3-.6-.6.3-.6.6-.6.6.3.6.6zM230 466.6c0 .2-.2.4-.4.4s-.4-.2-.4-.4.2-.4.4-.4.4.2.4.4zM219.3 457c0 .2-.2.4-.4.4s-.4-.2-.4-.4.2-.4.4-.4.4.2.4.4zM207.9 463.6c0 .3-.3.6-.6.6s-.6-.3-.6-.6.3-.6.6-.6.6.3.6.6zM196.9 429.8c0 .2-.2.4-.4.4s-.4-.2-.4-.4.2-.4.4-.4.4.1.4.4zM185.2 432.7c0 .3-.2.5-.5.5s-.5-.2-.5-.5.2-.5.5-.5.5.3.5.5zM169.8 430.9c0 .3-.2.6-.6.6-.3 0-.6-.2-.6-.6 0-.3.2-.6.6-.6.4 0 .6.3.6.6zM163.4 456.8c0 .3-.2.6-.6.6-.3 0-.6-.2-.6-.6 0-.3.2-.6.6-.6.3.1.6.3.6.6zM149.8 443.7c0 .3-.2.5-.5.5s-.5-.2-.5-.5.2-.5.5-.5.5.2.5.5zM139.3 458.7c0 .3-.3.6-.6.6s-.6-.3-.6-.6.3-.6.6-.6c.4 0 .6.2.6.6zM125.8 440c0 .3-.3.6-.6.6s-.6-.3-.6-.6.3-.6.6-.6.6.2.6.6z"/>
    <circle class="st12" cx="114.3" cy="445.1" r=".6"/>
    <path class="st12" d="M101.4 459.4c0 .3-.3.6-.6.6s-.6-.3-.6-.6.3-.6.6-.6.6.2.6.6z"/>
    <circle class="st12" cx="89.1" cy="438.9" r=".4"/>
    <path class="st12" d="M77.5 473.4c0 .3-.2.5-.5.5s-.5-.2-.5-.5.2-.5.5-.5.5.2.5.5zM66.1 470.2c0 .3-.2.5-.5.5s-.5-.2-.5-.5.2-.5.5-.5c.3-.1.5.2.5.5z"/>
    <circle class="st12" cx="54.5" cy="442.1" r=".5"/>
    <path class="st12" d="M40.9 459.5c0 .2-.2.4-.4.4s-.4-.2-.4-.4.2-.4.4-.4c.3 0 .4.2.4.4zM24.2 459.7c0 .3-.2.5-.5.5s-.5-.2-.5-.5.2-.5.5-.5.5.3.5.5zM6.5 453c0 .3-.3.6-.6.6s-.6-.3-.6-.6.3-.6.6-.6.6.2.6.6zM7.5 433.9c0 .3-.3.6-.6.6s-.6-.3-.6-.6.3-.6.6-.6.6.3.6.6zM15.3 405.6c0 .3-.2.5-.5.5s-.5-.2-.5-.5.2-.5.5-.5c.3-.1.5.2.5.5z"/>
    <circle class="st12" cx="17.5" cy="394.2" r=".5"/>
    <path class="st12" d="M28.7 381.6c0 .3-.3.6-.6.6s-.6-.3-.6-.6.3-.6.6-.6.6.3.6.6zM2.6 356.4c0 .3-.3.6-.6.6s-.6-.3-.6-.6.3-.6.6-.6.6.3.6.6zM23.1 359c0 .4-.3.7-.7.7-.4 0-.7-.3-.7-.7 0-.4.3-.7.7-.7.4 0 .7.3.7.7z"/>
    <circle class="st12" cx="36.2" cy="382.6" r=".6"/>
    <path class="st12" d="M48.9 355.2c0 .3-.3.6-.6.6s-.6-.3-.6-.6.3-.6.6-.6.6.3.6.6zM61.2 351c0 .3-.2.5-.5.5s-.5-.2-.5-.5.2-.5.5-.5c.2.1.5.3.5.5zM73.6 388c0 .3-.2.5-.5.5s-.5-.2-.5-.5.2-.5.5-.5.5.3.5.5zM85.1 368.5c0 .3-.3.6-.6.6s-.6-.3-.6-.6.3-.6.6-.6c.3.1.6.3.6.6zM96.7 359c0 .4-.3.7-.7.7s-.7-.3-.7-.7c0-.4.3-.7.7-.7s.7.3.7.7zM108.2 374.1c0 .2-.2.4-.4.4s-.4-.2-.4-.4.2-.4.4-.4c.2-.1.4.1.4.4zM120.9 350.8c0 .3-.2.5-.5.5s-.5-.2-.5-.5.2-.5.5-.5.5.2.5.5z"/>
    <circle class="st12" cx="131.9" cy="356.3" r=".5"/>
    <path class="st12" d="M154.1 362.9c0 .3-.2.5-.5.5s-.5-.2-.5-.5.2-.5.5-.5.5.2.5.5z"/>
    <circle class="st12" cx="122.3" cy="356" r=".5"/>
    <path class="st12" d="M124.9 344.2c0 .3-.2.5-.5.5s-.5-.2-.5-.5.2-.5.5-.5.5.3.5.5zM127.5 316.8c0 .4-.3.7-.7.7-.4 0-.7-.3-.7-.7s.3-.7.7-.7c.4 0 .7.3.7.7zM98.8 342.4c0 .3-.2.5-.5.5s-.5-.2-.5-.5.2-.5.5-.5.5.2.5.5zM102.7 304.4c0 .2-.2.4-.4.4s-.4-.2-.4-.4.2-.4.4-.4.4.2.4.4z"/>
    <circle class="st12" cx="88.7" cy="306.5" r=".6"/>
    <circle class="st12" cx="70.3" cy="321.2" r=".5"/>
    <path class="st12" d="M63.6 303.1c0 .2-.2.4-.4.4s-.4-.2-.4-.4.2-.4.4-.4.4.2.4.4zM51.2 299.9c0 .3-.2.5-.5.5s-.5-.2-.5-.5.2-.5.5-.5.5.2.5.5zM30.7 319.3c0 .4-.3.7-.7.7-.4 0-.7-.3-.7-.7 0-.4.3-.7.7-.7.4.1.7.4.7.7zM26.5 293.8c0 .3-.2.5-.5.5s-.5-.2-.5-.5.2-.5.5-.5.5.2.5.5zM15.9 289.3c0 .3-.3.6-.6.6s-.6-.3-.6-.6.3-.6.6-.6.6.2.6.6zM10 264.7c0 .3-.2.5-.5.5s-.5-.2-.5-.5.2-.5.5-.5.5.2.5.5zM10.9 259.5c0 .3-.3.6-.6.6s-.6-.3-.6-.6.3-.6.6-.6c.4 0 .6.3.6.6z"/>
    <path class="st12" d="M11.8 259.6c0 .3-.2.5-.5.5s-.5-.2-.5-.5.2-.5.5-.5c.2 0 .5.2.5.5zM15 255.8c0 .2-.2.4-.4.4s-.4-.2-.4-.4.2-.4.4-.4c.2-.1.4.1.4.4zM22.6 249.9c0 .3-.3.6-.6.6s-.6-.3-.6-.6.3-.6.6-.6.6.3.6.6zM33.9 230.5c0 .3-.3.6-.6.6s-.6-.3-.6-.6.3-.6.6-.6.6.3.6.6zM47 214c0 .3-.2.5-.5.5s-.5-.2-.5-.5.2-.5.5-.5.5.2.5.5zM59.7 225.8c0 .2-.2.4-.4.4s-.4-.2-.4-.4.2-.4.4-.4.4.2.4.4z"/>
    <circle class="st12" cx="70.7" cy="231.7" r=".6"/>
  </g>
  <g>
    <path class="st13" d="M24.2 276.8c.2 2.4-1.5 4.6-3.8 5 1.1.1 2.5 0 4.4-.2 4.1-.6 8.7-1.3 14.7-4.7 8.6-4.9 14.2-13.2 14.1-13.3-.1-.1-3 4.4-9.1 8.7-3.1 2.2-6.4 4.4-11 4.8-1.5.1-5.2.4-8.8-1.7-.6-.3-1-.7-1.3-.9.4.7.7 1.4.8 2.3z"/>
    <path class="st14" d="M16.1 277.7c-.2-1.7 1-3.1 2.7-3.3 1.7-.2 3.1 1 3.3 2.7.2 1.7-1 3.1-2.7 3.3-1.7.1-3.1-1.1-3.3-2.7z"/>
  </g>
  <path class="st4" d="M112 202.9l.2-2.7.2 2.7c.1.7.6 1.3 1.4 1.4l2.7.2-2.7.2c-.7.1-1.3.6-1.4 1.4l-.2 2.7-.2-2.7c-.1-.7-.6-1.3-1.4-1.4l-2.7-.2 2.7-.2c.7-.1 1.3-.7 1.4-1.4zM869.6 214.1l.2-2.7.2 2.7c.1.7.6 1.3 1.4 1.4l2.7.2-2.7.2c-.7.1-1.3.6-1.4 1.4l-.2 2.7-.2-2.7c-.1-.7-.6-1.3-1.4-1.4l-2.7-.2 2.7-.2c.8-.1 1.4-.7 1.4-1.4zM694.1 25.6l.2-2.7.2 2.7c.1.7.6 1.3 1.4 1.4l2.7.2-2.7.2c-.7.1-1.3.6-1.4 1.4l-.2 2.7-.2-2.7c-.1-.7-.6-1.3-1.4-1.4l-2.7-.2 2.7-.2c.8-.1 1.3-.7 1.4-1.4zM903.3 59.2l.3-3.4.3 3.4c.1.9.8 1.7 1.8 1.8l3.4.3-3.4.3c-.9.1-1.7.8-1.8 1.8l-.3 3.4-.3-3.4c-.1-.9-.8-1.7-1.8-1.8l-3.4-.3 3.4-.3c1-.1 1.8-.8 1.8-1.8zM742.6 476.1l.3-3.4.3 3.4c.1.9.8 1.7 1.8 1.8l3.4.3-3.4.3c-.9.1-1.7.8-1.8 1.8l-.3 3.4-.3-3.4c-.1-.9-.8-1.7-1.8-1.8l-3.4-.3 3.4-.3c1-.1 1.7-.9 1.8-1.8zM36.6 399.3l.3-4.2.3 4.2c.1 1.1 1 2.1 2.1 2.1l4.2.3-4.2.3c-1.1.1-2.1 1-2.1 2.1l-.3 4.2-.3-4.2c-.1-1.1-1-2.1-2.1-2.1l-4.2-.3 4.2-.3c1.1-.1 2.1-1 2.1-2.1zM77.9 422.5l.2-3.1.2 3.1c.1.9.7 1.5 1.6 1.6l3.1.2-3.1.2c-.9.1-1.5.7-1.6 1.6l-.2 3.1-.2-3.1c-.1-.9-.7-1.5-1.6-1.6l-3.1-.2 3.1-.2c.9-.1 1.6-.7 1.6-1.6zM23.4 44.3l.4-5.9.4 5.9c.1 1.6 1.4 2.9 3 3l5.9.4-5.9.4c-1.6.1-2.9 1.4-3 3l-.4 5.9-.4-5.9c-.1-1.6-1.4-2.9-3-3l-5.9-.4 5.9-.4c1.6-.1 2.9-1.4 3-3zM109.3 479.6l.2-3.2.2 3.2c.1.9.8 1.6 1.6 1.6l3.2.2-3.2.2c-.9.1-1.6.8-1.6 1.6l-.2 3.2-.2-3.2c-.1-.9-.8-1.6-1.6-1.6l-3.2-.2 3.2-.2c.8 0 1.5-.7 1.6-1.6z"/>
  <path d="M761.6 111.7c-.8-.1-1.5-.7-1.5-1.5l-.2-3-.2 3c-.1.8-.7 1.5-1.5 1.5l-3 .2 3 .2c.8.1 1.5.7 1.5 1.5l.2 3 .2-3c.1-.8.7-1.5 1.5-1.5l3-.2-3-.2zm-1.2.4c-.2.1-.3.2-.3.3l-.2.5-.2-.5c-.1-.2-.2-.3-.3-.3l-.5-.2.5-.2c.2-.1.3-.2.3-.3l.2-.5.2.5c.1.2.2.3.3.3l.5.2-.5.2z" fill="#f7f8fa"/>
  <g>
    <circle class="st4" cx="100" cy="433.9" r="4"/>
    <path class="st16" d="M100 429.1c-2.7 0-4.8 2.2-4.8 4.8 0 2.7 2.2 4.8 4.8 4.8 2.7 0 4.8-2.2 4.8-4.8.1-2.6-2.1-4.8-4.8-4.8zm0 9.2c-2.4 0-4.4-2-4.4-4.4 0-2.4 2-4.4 4.4-4.4s4.4 2 4.4 4.4c0 2.5-1.9 4.4-4.4 4.4z"/>
    <path class="st13" d="M100 428.2c-3.2 0-5.7 2.6-5.7 5.7 0 3.2 2.6 5.7 5.7 5.7s5.7-2.6 5.7-5.7c.1-3.1-2.5-5.7-5.7-5.7zm0 11c-2.9 0-5.3-2.4-5.3-5.3s2.4-5.3 5.3-5.3 5.3 2.4 5.3 5.3c0 3-2.3 5.3-5.3 5.3z"/>
  </g>
  <path class="st4" d="M243.2 478.6c0 2-1.7 3.7-3.7 3.7s-3.7-1.7-3.7-3.7 1.7-3.7 3.7-3.7 3.7 1.7 3.7 3.7zM499.7 91.8c0 2-1.7 3.7-3.7 3.7s-3.7-1.7-3.7-3.7 1.7-3.7 3.7-3.7c2.1 0 3.7 1.7 3.7 3.7zM780.7 42.2c0 2-1.7 3.7-3.7 3.7s-3.7-1.7-3.7-3.7 1.7-3.7 3.7-3.7 3.7 1.6 3.7 3.7zM917.4 2c0 2-1.7 3.7-3.7 3.7S910 4.1 910 2s1.7-3.7 3.7-3.7 3.7 1.7 3.7 3.7zM254.2 314.3c0 1.5-1.2 2.7-2.7 2.7-1.5 0-2.7-1.2-2.7-2.7 0-1.5 1.2-2.7 2.7-2.7 1.5 0 2.7 1.2 2.7 2.7z"/>
  <path class="st13" d="M33 466.7c0 3.6-2.9 6.5-6.5 6.5s-6.5-2.9-6.5-6.5 2.9-6.5 6.5-6.5 6.5 2.9 6.5 6.5z"/>
  <path class="st4" d="M163.1 453.9c0 1.5-1.2 2.7-2.7 2.7-1.5 0-2.7-1.2-2.7-2.7 0-1.5 1.2-2.7 2.7-2.7 1.5 0 2.7 1.2 2.7 2.7zM379.2 457c0 3.6-2.9 6.5-6.5 6.5s-6.5-2.9-6.5-6.5 2.9-6.5 6.5-6.5 6.5 2.9 6.5 6.5z"/>
  <path class="st13" d="M125.6 153.2c0 3.6-2.9 6.5-6.5 6.5s-6.5-2.9-6.5-6.5 2.9-6.5 6.5-6.5 6.5 2.9 6.5 6.5z"/>
  <path class="st4" d="M655 43.9c0 2-1.7 3.7-3.7 3.7s-3.7-1.7-3.7-3.7 1.7-3.7 3.7-3.7 3.7 1.7 3.7 3.7zM645.1 17.5c0 1.5-1.2 2.7-2.7 2.7-1.5 0-2.7-1.2-2.7-2.7 0-1.5 1.2-2.7 2.7-2.7 1.5 0 2.7 1.2 2.7 2.7zM48.5 23.6c0 1.5-1.2 2.7-2.7 2.7-1.5 0-2.7-1.2-2.7-2.7s1.2-2.7 2.7-2.7c1.5 0 2.7 1.2 2.7 2.7zM821.9 473.8c0 1.5-1.2 2.7-2.7 2.7-1.5 0-2.7-1.2-2.7-2.7 0-1.5 1.2-2.7 2.7-2.7 1.5 0 2.7 1.2 2.7 2.7z"/>
  <ellipse transform="rotate(-80.781 846.003 83.401)" class="st4" cx="846" cy="83.4" rx="2.7" ry="2.7"/>
  <path class="st4" d="M918.1 246.1c0 1.5-1.2 2.7-2.7 2.7-1.5 0-2.7-1.2-2.7-2.7 0-1.5 1.2-2.7 2.7-2.7 1.5 0 2.7 1.2 2.7 2.7z"/>
  <circle class="st4" cx="50.3" cy="451.9" r="2.1"/>
  <g>
    <path class="st2" d="M723.1 99c.5 0 .8.4.8.8 0 .5-.4.8-.8.8-.5 0-.8-.4-.8-.8-.1-.4.3-.8.8-.8zM677.7 173.3c.6 0 1 .4 1 1s-.4 1-1 1-1-.4-1-1 .4-1 1-1zM728.2 194.9c.3 0 .5.2.5.5s-.2.5-.5.5-.5-.2-.5-.5.2-.5.5-.5zM758.1 262.7c.6 0 1.1.5 1.1 1.1 0 .6-.5 1.1-1.1 1.1s-1.1-.5-1.1-1.1c-.1-.6.4-1.1 1.1-1.1z"/>
    <circle class="st2" cx="798.4" cy="196.5" r="1.5"/>
    <path class="st2" d="M755 190.4c.7 0 1.3.6 1.3 1.3s-.6 1.3-1.3 1.3c-.7 0-1.3-.6-1.3-1.3s.6-1.3 1.3-1.3zM820.1 88.5c.7 0 1.3.6 1.3 1.3 0 .7-.6 1.3-1.3 1.3-.7 0-1.3-.6-1.3-1.3 0-.7.5-1.3 1.3-1.3z"/>
    <circle class="st2" cx="804.2" cy="89.4" r="1.4"/>
    <path class="st2" d="M757.3 64.2c1 0 1.8.8 1.8 1.8s-.8 1.8-1.8 1.8-1.8-.8-1.8-1.8c.1-1 .9-1.8 1.8-1.8zM789.6 63.4c.6 0 1 .5 1 1 0 .6-.5 1-1 1-.6 0-1-.5-1-1s.5-1 1-1zM802.6 41.5c.2 0 .4.2.4.4s-.2.4-.4.4-.4-.2-.4-.4.2-.4.4-.4zM850.2 33.2c.9 0 1.7.8 1.7 1.7 0 .9-.8 1.7-1.7 1.7s-1.7-.8-1.7-1.7c0-1 .7-1.7 1.7-1.7zM519.7 27c.7 0 1.4.6 1.4 1.4 0 .7-.6 1.4-1.4 1.4s-1.4-.6-1.4-1.4c0-.8.6-1.4 1.4-1.4zM569.7 60.7c.3 0 .5.2.5.5s-.2.5-.5.5-.5-.2-.5-.5.2-.5.5-.5z"/>
    <circle class="st2" cx="552.5" cy="95.2" r="1.4"/>
    <path class="st2" d="M587.5 165.8c.6 0 1.1.5 1.1 1.1 0 .6-.5 1.1-1.1 1.1-.6 0-1.1-.5-1.1-1.1 0-.6.5-1.1 1.1-1.1zM515.2 169.9c.5 0 .9.4.9.9s-.4.9-.9.9-.9-.4-.9-.9.3-.9.9-.9zM531.8 108.8c.6 0 1.2.5 1.2 1.2 0 .6-.5 1.2-1.2 1.2-.6 0-1.2-.5-1.2-1.2.1-.7.6-1.2 1.2-1.2z"/>
    <circle class="st2" cx="565.3" cy="72.4" r="1.7"/>
    <path class="st2" d="M591.9 101.4c.6 0 1.1.5 1.1 1.1 0 .6-.5 1.1-1.1 1.1-.6 0-1.1-.5-1.1-1.1 0-.6.5-1.1 1.1-1.1z"/>
    <circle class="st2" cx="642.3" cy="125.8" r=".4"/>
    <path class="st2" d="M597.6 184.4c.4 0 .7.3.7.7 0 .4-.3.7-.7.7-.4 0-.7-.3-.7-.7 0-.4.3-.7.7-.7zM618.9 157.6c.8 0 1.4.6 1.4 1.4 0 .8-.6 1.4-1.4 1.4-.8 0-1.4-.6-1.4-1.4 0-.8.6-1.4 1.4-1.4zM579.3 215.1c.9 0 1.7.8 1.7 1.7s-.8 1.7-1.7 1.7c-.9 0-1.7-.8-1.7-1.7s.8-1.7 1.7-1.7zM599.7 139.2c.8 0 1.4.6 1.4 1.4 0 .8-.6 1.4-1.4 1.4-.8 0-1.4-.6-1.4-1.4 0-.8.6-1.4 1.4-1.4zM639 171.4c.6 0 1.1.5 1.1 1.1 0 .6-.5 1.1-1.1 1.1-.6 0-1.1-.5-1.1-1.1 0-.6.5-1.1 1.1-1.1zM666.9 174.4c.4 0 .8.4.8.8s-.4.8-.8.8-.8-.4-.8-.8c0-.5.4-.8.8-.8zM701.4 178.6c.9 0 1.7.8 1.7 1.7 0 .9-.8 1.7-1.7 1.7-.9 0-1.7-.8-1.7-1.7 0-.9.8-1.7 1.7-1.7z"/>
  </g>
  <g>
    <path class="st4" d="M925.9 499.5c0 .4-.3.7-.7.7-.4 0-.7-.3-.7-.7 0-.4.3-.7.7-.7.4-.1.7.2.7.7zM923.6 470.2c0 .5-.4 1-1 1-.5 0-1-.4-1-1 0-.5.4-1 1-1s1 .5 1 1z"/>
    <circle class="st4" cx="897.9" cy="458.3" r=".8"/>
    <circle class="st4" cx="894.8" cy="454.6" r="1"/>
    <path class="st4" d="M877.8 449.5c0 .4-.3.7-.7.7-.4 0-.7-.3-.7-.7 0-.4.3-.7.7-.7.3 0 .7.3.7.7zM873.5 423.3c0 .4-.4.8-.8.8s-.8-.4-.8-.8.4-.8.8-.8.8.4.8.8zM873.3 416.4c0 .4-.3.7-.7.7-.4 0-.7-.3-.7-.7 0-.4.3-.7.7-.7.4 0 .7.3.7.7zM861.9 431.3c0 .5-.4.9-.9.9s-.9-.4-.9-.9.4-.9.9-.9c.5.1.9.5.9.9z"/>
  </g>
  <g>
    <path class="st6" d="M221.4 39c.5 0 1 .4 1 1 0 .5-.4 1-1 1-.5 0-1-.4-1-1s.5-1 1-1zM199.8 11.5c.6 0 1 .5 1 1 0 .6-.5 1-1 1-.6 0-1-.5-1-1-.1-.6.4-1 1-1zM172.6 16c.4 0 .8.4.8.8s-.4.8-.8.8-.8-.4-.8-.8.4-.8.8-.8zM172.3 63.4c1 0 1.8.8 1.8 1.8s-.8 1.8-1.8 1.8-1.8-.8-1.8-1.8.8-1.8 1.8-1.8zM210.9 84c1.1 0 1.9.9 1.9 1.9 0 1.1-.9 1.9-1.9 1.9-1.1 0-1.9-.9-1.9-1.9 0-1 .8-1.9 1.9-1.9z"/>
    <circle class="st6" cx="264.9" cy="31.6" r="1.9"/>
    <path class="st6" d="M222.2 115c.3 0 .6.3.6.6s-.3.6-.6.6-.6-.3-.6-.6c0-.4.2-.6.6-.6zM266.3 155c.8 0 1.4.6 1.4 1.4 0 .8-.6 1.4-1.4 1.4-.8 0-1.4-.6-1.4-1.4 0-.8.6-1.4 1.4-1.4zM175.2 147.6c1 0 1.7.8 1.7 1.7 0 1-.8 1.7-1.7 1.7-1 0-1.7-.8-1.7-1.7 0-.9.8-1.7 1.7-1.7zM143.7 150.4c.5 0 .8.4.8.8s-.4.8-.8.8-.8-.4-.8-.8.4-.8.8-.8zM143.1 239.7c1 0 1.8.8 1.8 1.8s-.8 1.8-1.8 1.8-1.8-.8-1.8-1.8c.1-1 .9-1.8 1.8-1.8zM96.8 155c.2 0 .4.2.4.4s-.2.4-.4.4-.4-.2-.4-.4.1-.4.4-.4z"/>
    <circle class="st6" cx="12.3" cy="177.9" r="1.5"/>
    <path class="st6" d="M103.4 149.1c.7 0 1.3.6 1.3 1.3s-.6 1.3-1.3 1.3c-.7 0-1.3-.6-1.3-1.3s.5-1.3 1.3-1.3zM123.3 239.4c.7 0 1.3.6 1.3 1.3 0 .7-.6 1.3-1.3 1.3s-1.3-.6-1.3-1.3c-.1-.7.5-1.3 1.3-1.3zM168.5 189.9c.4 0 .7.3.7.7 0 .4-.3.7-.7.7-.4 0-.7-.3-.7-.7 0-.4.3-.7.7-.7zM174.1 165.6c.2 0 .4.2.4.4s-.2.4-.4.4-.4-.2-.4-.4.2-.4.4-.4zM129 67.5c.7 0 1.2.6 1.2 1.2 0 .7-.6 1.2-1.2 1.2-.7 0-1.2-.6-1.2-1.2 0-.7.5-1.2 1.2-1.2zM118.6 101.3c.5 0 .8.4.8.8 0 .5-.4.8-.8.8-.5 0-.8-.4-.8-.8 0-.5.4-.8.8-.8zM81 88.7c.3 0 .5.2.5.5s-.2.5-.5.5-.5-.2-.5-.5.2-.5.5-.5z"/>
    <circle class="st6" cx="6.2" cy="121.4" r="1.8"/>
    <circle class="st6" cx="66" cy="86.2" r="1.3"/>
    <path class="st6" d="M45.4 68c.5 0 1 .4 1 1 0 .5-.4 1-1 1s-1-.4-1-1c.1-.5.5-1 1-1zM95.7 76.4c.7 0 1.2.6 1.2 1.2 0 .7-.6 1.2-1.2 1.2s-1.2-.6-1.2-1.2c0-.7.5-1.2 1.2-1.2zM77.3 155.5c.4 0 .8.4.8.8s-.4.8-.8.8-.8-.4-.8-.8.3-.8.8-.8zM136.1 110.3c.4 0 .6.3.6.6 0 .4-.3.6-.6.6-.4 0-.6-.3-.6-.6 0-.4.3-.6.6-.6z"/>
    <ellipse transform="rotate(-2.306 174.126 82.097) scale(1.00001)" class="st6" cx="174.1" cy="82.1" rx="1" ry="1"/>
    <path class="st6" d="M195.6 136.9c.5 0 1 .4 1 1s-.4 1-1 1-1-.4-1-1 .5-1 1-1zM121.6 115c.7 0 1.2.6 1.2 1.2s-.6 1.2-1.2 1.2c-.7 0-1.2-.6-1.2-1.2s.5-1.2 1.2-1.2zM163.3 48.5c.7 0 1.2.5 1.2 1.2s-.5 1.2-1.2 1.2-1.2-.5-1.2-1.2.6-1.2 1.2-1.2zM153.4 28.7c.5 0 1 .4 1 1 0 .5-.4 1-1 1-.5 0-1-.4-1-1s.4-1 1-1z"/>
    <circle class="st6" cx="190.5" cy="61" r="1.8"/>
    <circle class="st6" cx="221.4" cy="19.6" r=".7"/>
    <path class="st6" d="M184.3 28.2c.8 0 1.4.6 1.4 1.4 0 .8-.6 1.4-1.4 1.4-.8 0-1.4-.6-1.4-1.4 0-.8.6-1.4 1.4-1.4zM89.4 42.7c.9 0 1.6.7 1.6 1.6 0 .9-.7 1.6-1.6 1.6-.9 0-1.6-.7-1.6-1.6.1-.9.8-1.6 1.6-1.6z"/>
    <circle class="st6" cx="24" cy="99.9" r="1.8"/>
    <circle class="st6" cx="85.6" cy="69.4" r=".6"/>
    <path class="st6" d="M127.8 84.4c.5 0 .9.4.9.9s-.4.9-.9.9-.9-.4-.9-.9.4-.9.9-.9z"/>
    <circle class="st6" cx="139.6" cy="135.2" r="1"/>
    <path class="st6" d="M124.4 200.8c.2 0 .4.2.4.4s-.2.4-.4.4-.4-.2-.4-.4.1-.4.4-.4z"/>
  </g>
  <g>
    <path class="st4" d="M294.6 497.2c0 .3-.3.6-.6.6s-.6-.3-.6-.6.3-.6.6-.6.6.3.6.6zM272.9 488.8c0 .3-.2.5-.5.5s-.5-.2-.5-.5.2-.5.5-.5.5.2.5.5z"/>
    <circle class="st4" cx="290.7" cy="478.2" r=".5"/>
    <path class="st4" d="M316 475c0 .3-.3.6-.6.6s-.6-.3-.6-.6.3-.6.6-.6.6.3.6.6zM306.8 452.4c0 .4-.3.6-.6.6-.4 0-.6-.3-.6-.6 0-.4.3-.6.6-.6s.6.3.6.6zM307.2 426.6c0 .3-.2.5-.5.5s-.5-.2-.5-.5.2-.5.5-.5.5.2.5.5zM325.9 427.9c0 .4-.3.6-.6.6-.4 0-.6-.3-.6-.6 0-.4.3-.6.6-.6s.6.3.6.6z"/>
  </g>
  <g>
    <circle class="st12" cx="7.3" cy="441.8" r=".5"/>
    <path class="st12" d="M20.2 432.1c0 .3-.3.6-.6.6s-.6-.3-.6-.6.3-.6.6-.6.6.2.6.6zM37.7 432.6c0 .4-.3.7-.7.7-.4 0-.7-.3-.7-.7 0-.4.3-.7.7-.7.4 0 .7.3.7.7zM38.1 430.3c0 .3-.2.5-.5.5s-.5-.2-.5-.5.2-.5.5-.5.5.2.5.5zM49.8 434.6c0 .3-.3.6-.6.6s-.6-.3-.6-.6.3-.6.6-.6.6.3.6.6zM69.2 408.4c0 .4-.3.7-.7.7-.4 0-.7-.3-.7-.7 0-.4.3-.7.7-.7.4 0 .7.3.7.7zM83.8 405.5c0 .3-.2.5-.5.5s-.5-.2-.5-.5.2-.5.5-.5c.2-.1.5.2.5.5zM95 417.3c0 .2-.2.4-.4.4s-.4-.2-.4-.4.2-.4.4-.4c.2-.1.4.1.4.4zM98.8 445.7c0 .4-.3.7-.7.7-.4 0-.7-.3-.7-.7s.3-.7.7-.7c.4-.1.7.2.7.7zM114.3 437.7c0 .3-.2.5-.5.5s-.5-.2-.5-.5.2-.5.5-.5.5.2.5.5zM126.2 450.3c0 .4-.3.7-.7.7-.4 0-.7-.3-.7-.7 0-.4.3-.7.7-.7.4 0 .7.3.7.7zM136.3 463.6c0 .4-.3.7-.7.7-.4 0-.7-.3-.7-.7 0-.4.3-.7.7-.7.3 0 .7.3.7.7zM154.7 424.6c0 .4-.3.7-.7.7s-.7-.3-.7-.7c0-.4.3-.7.7-.7s.7.3.7.7zM166.5 452.5c0 .3-.2.5-.5.5s-.5-.2-.5-.5.2-.5.5-.5c.3.1.5.3.5.5zM179.3 440c0 .3-.3.6-.6.6s-.6-.3-.6-.6.3-.6.6-.6.6.3.6.6zM200.2 456.8c0 .3-.2.5-.5.5s-.5-.2-.5-.5.2-.5.5-.5.5.2.5.5zM218 446.6c0 .4-.3.6-.6.6-.4 0-.6-.3-.6-.6 0-.4.3-.6.6-.6.3-.1.6.2.6.6zM205.2 418.9c0 .3-.3.6-.6.6s-.6-.3-.6-.6.3-.6.6-.6.6.2.6.6zM200.2 406.4c0 .3-.3.6-.6.6s-.6-.3-.6-.6.3-.6.6-.6c.3-.1.6.2.6.6zM219.3 394.1c0 .2-.2.5-.5.5-.2 0-.5-.2-.5-.5 0-.2.2-.5.5-.5.3.1.5.3.5.5zM207.9 383.8c0 .3-.2.5-.5.5s-.5-.2-.5-.5.2-.5.5-.5.5.3.5.5z"/>
    <circle class="st12" cx="195" cy="390.9" r=".6"/>
    <path class="st12" d="M184 354.8c0 .2-.2.5-.5.5-.2 0-.5-.2-.5-.5 0-.2.2-.5.5-.5s.5.2.5.5zM171.5 357.9c0 .3-.2.5-.5.5s-.5-.2-.5-.5.2-.5.5-.5c.2 0 .5.2.5.5zM155 355.9c0 .3-.3.6-.6.6s-.6-.3-.6-.6.3-.6.6-.6.6.3.6.6z"/>
    <circle class="st12" cx="147.5" cy="383.7" r=".6"/>
    <path class="st12" d="M133.7 369.6c0 .3-.2.5-.5.5s-.5-.2-.5-.5.2-.5.5-.5.5.2.5.5zM122.5 385.6c0 .4-.3.7-.7.7-.4 0-.7-.3-.7-.7 0-.4.3-.7.7-.7.4.1.7.4.7.7zM108 365.6c0 .3-.3.6-.6.6s-.6-.3-.6-.6.3-.6.6-.6.6.3.6.6z"/>
    <circle class="st12" cx="95.7" cy="371.2" r=".6"/>
    <circle class="st12" cx="81.3" cy="386.4" r=".6"/>
    <path class="st12" d="M69.3 364.5c0 .3-.2.5-.5.5s-.5-.2-.5-.5.2-.5.5-.5.5.2.5.5zM56.4 401.4c0 .3-.3.6-.6.6s-.6-.3-.6-.6.3-.6.6-.6c.4 0 .6.3.6.6z"/>
    <circle class="st12" cx="43.7" cy="397.9" r=".6"/>
    <path class="st12" d="M32.3 367.9c0 .3-.2.5-.5.5s-.5-.2-.5-.5.2-.5.5-.5.5.2.5.5zM17.4 386.5c0 .2-.2.4-.4.4s-.4-.2-.4-.4.2-.4.4-.4.4.2.4.4zM4.3 303.3c0 .4-.3.6-.6.6-.4 0-.6-.3-.6-.6 0-.4.3-.6.6-.6s.6.3.6.6zM12.9 304.4c0 .4-.3.7-.7.7-.4 0-.7-.3-.7-.7 0-.4.3-.7.7-.7.4 0 .7.3.7.7zM25.9 275.1c0 .3-.3.6-.6.6s-.6-.3-.6-.6.3-.6.6-.6.6.3.6.6zM39 270.7c0 .3-.2.5-.5.5s-.5-.2-.5-.5.2-.5.5-.5c.2 0 .5.2.5.5zM52.3 310.2c0 .3-.2.5-.5.5s-.5-.2-.5-.5.2-.5.5-.5c.3-.1.5.2.5.5z"/>
    <circle class="st12" cx="63.9" cy="289.4" r=".6"/>
    <path class="st12" d="M76.9 279.2c0 .4-.3.7-.7.7-.4 0-.7-.3-.7-.7 0-.4.3-.7.7-.7.4 0 .7.3.7.7zM89.2 295.3c0 .3-.2.5-.5.5s-.5-.2-.5-.5.2-.5.5-.5.5.2.5.5zM102.8 270.4c0 .3-.2.5-.5.5s-.6-.2-.6-.5.2-.5.6-.5c.2 0 .5.2.5.5zM115 276.3c0 .3-.2.6-.6.6s-.6-.2-.6-.6c0-.3.2-.6.6-.6s.6.3.6.6zM138.3 283.3c0 .3-.2.5-.5.5s-.5-.2-.5-.5.2-.5.5-.5c.2 0 .5.2.5.5z"/>
    <circle class="st12" cx="104.3" cy="275.9" r=".5"/>
    <circle class="st12" cx="106.5" cy="263.4" r=".5"/>
    <path class="st12" d="M109.9 234.1c0 .4-.3.7-.7.7-.4 0-.7-.3-.7-.7 0-.4.3-.7.7-.7.3 0 .7.3.7.7zM79.2 261.4c0 .3-.2.5-.5.5s-.5-.2-.5-.5.2-.5.5-.5c.2 0 .5.2.5.5z"/>
    <circle class="st12" cx="82.8" cy="220.8" r=".5"/>
    <path class="st12" d="M69 223.1c0 .4-.3.6-.6.6s-.6-.3-.6-.6.3-.6.6-.6.6.2.6.6z"/>
    <circle class="st12" cx="48.7" cy="238.8" r=".6"/>
    <path class="st12" d="M41.5 219.4c0 .2-.2.4-.4.4s-.4-.2-.4-.4.2-.4.4-.4.4.2.4.4zM28.3 216c0 .3-.2.5-.5.5s-.5-.2-.5-.5.2-.5.5-.5.5.3.5.5zM6.4 236.8c0 .4-.3.7-.7.7-.4 0-.7-.3-.7-.7 0-.4.3-.7.7-.7.4 0 .7.3.7.7zM2 209.5c0 .3-.2.5-.5.5s-.5-.2-.5-.5.2-.5.5-.5.5.2.5.5zM9.8 141.9c0 .3-.3.6-.6.6s-.6-.3-.6-.6.3-.6.6-.6c.4 0 .6.3.6.6zM23.9 124.3c0 .3-.2.5-.5.5s-.5-.2-.5-.5.2-.5.5-.5c.2-.1.5.2.5.5zM37.3 136.9c0 .2-.2.4-.4.4s-.4-.2-.4-.4.2-.4.4-.4c.3-.1.4.1.4.4z"/>
    <circle class="st12" cx="49.2" cy="143.2" r=".6"/>
  </g>
  <g>
    <path class="st13" d="M890.1 189.2c-1.1 1.2-3 1.4-4.3.3.5.6 1.1 1.3 2.2 2.1 2.2 1.8 4.7 3.9 9.1 5.3 6.5 2.1 13.2 1.1 13.2 1 0-.1-3.6.5-8.6-.6-2.6-.6-5.2-1.2-7.5-3.4-.7-.7-2.6-2.5-3.2-5.2-.1-.4-.1-.8-.2-1.1-.1.7-.3 1.2-.7 1.6z"/>
    <path class="st14" d="M885.9 185.5c.8-.8 2.1-.9 2.9-.1s.9 2.1.1 2.9-2.1.9-2.9.1c-.8-.8-.9-2.1-.1-2.9z"/>
  </g>
  <g>
    <path class="st13" d="M685.9 76.2c.2 1.9-1.2 3.6-3 3.9.9.1 2 0 3.5-.2 3.2-.5 6.9-1 11.6-3.7 6.8-3.9 11.2-10.4 11.1-10.5-.1 0-2.3 3.5-7.2 6.9-2.5 1.7-5.1 3.5-8.7 3.8-1.2.1-4.1.3-6.9-1.3-.5-.3-.8-.5-1.1-.7.3.5.6 1.1.7 1.8z"/>
    <path class="st14" d="M679.4 76.9c-.1-1.3.8-2.5 2.1-2.6 1.3-.1 2.5.8 2.6 2.1.1 1.3-.8 2.5-2.1 2.6-1.3.2-2.4-.8-2.6-2.1z"/>
  </g>
  <g>
    <path class="st13" d="M111.7 48.9c-1.5.1-2.7-.9-2.9-2.3-.1.7 0 1.5.1 2.6.3 2.4.6 5.2 2.6 8.8 2.8 5.2 7.7 8.6 7.7 8.5 0 0-2.6-1.8-5.1-5.5-1.3-1.9-2.6-3.9-2.7-6.6-.1-.9-.2-3.1 1.1-5.2.2-.3.4-.6.5-.8-.3.3-.8.5-1.3.5z"/>
    <path class="st4" d="M111.3 44.1c1-.1 1.9.7 1.9 1.7.1 1-.7 1.9-1.7 1.9-1 .1-1.9-.7-1.9-1.7-.1-1 .7-1.9 1.7-1.9z"/>
  </g>
  <path class="st4" d="M260.4 415.8l.2-2.5.2 2.5c.1.7.6 1.3 1.3 1.3l2.5.2-2.5.2c-.7.1-1.3.6-1.3 1.3l-.2 2.5-.2-2.5c-.1-.7-.6-1.3-1.3-1.3l-2.5-.2 2.5-.2c.7 0 1.2-.6 1.3-1.3zM860.7 467.6l.3-3.9.3 3.9c.1 1.1.9 1.9 2 2l3.9.3-3.9.3c-1.1.1-1.9.9-2 2l-.3 3.8-.3-3.9c-.1-1.1-.9-1.9-2-2l-3.9-.3 3.9-.3c1.1 0 1.9-.9 2-1.9zM159.9 369l.2-2.8.2 2.8c.1.8.7 1.4 1.4 1.4l2.8.2-2.8.2c-.8.1-1.4.7-1.4 1.4l-.2 2.8-.2-2.8c-.1-.8-.7-1.4-1.4-1.4l-2.8-.2 2.8-.2c.7 0 1.3-.6 1.4-1.4zM762.9 189.3l.2-2.8.2 2.8c.1.8.7 1.4 1.4 1.4l2.8.2-2.8.2c-.8.1-1.4.7-1.4 1.4l-.2 2.8-.2-2.8c-.1-.8-.7-1.4-1.4-1.4l-2.8-.2 2.8-.2c.7 0 1.3-.6 1.4-1.4zM178.5 139.8l.2-2.5.2 2.5c.1.7.6 1.2 1.3 1.3l2.5.2-2.5.2c-.7.1-1.2.6-1.3 1.3l-.2 2.5-.2-2.5c-.1-.7-.6-1.2-1.3-1.3l-2.5-.2 2.5-.2c.7 0 1.2-.6 1.3-1.3z"/>
  <g>
    <circle class="st4" cx="140.6" cy="50.6" r="8.9"/>
    <path class="st16" d="M140.6 39.7c-6 0-10.9 4.9-10.9 10.9s4.9 10.9 10.9 10.9 10.9-4.9 10.9-10.9c.1-6-4.8-10.9-10.9-10.9zm0 20.9c-5.5 0-10-4.5-10-10s4.5-10 10-10 10 4.5 10 10-4.5 10-10 10z"/>
    <path class="st13" d="M140.6 37.7c-7.2 0-13 5.8-13 13s5.8 13 13 13 13-5.8 13-13-5.8-13-13-13zm0 24.9c-6.6 0-12-5.4-12-12s5.4-12 12-12 12 5.4 12 12-5.4 12-12 12z"/>
  </g>
  <g>
    <path class="st4" d="M839.4 328.9c0 2.9-2.4 5.3-5.3 5.3s-5.3-2.4-5.3-5.3 2.4-5.3 5.3-5.3 5.3 2.4 5.3 5.3z"/>
    <path class="st16" d="M834.1 322.4c-3.6 0-6.5 2.9-6.5 6.5s2.9 6.5 6.5 6.5 6.5-2.9 6.5-6.5-2.9-6.5-6.5-6.5zm0 12.4c-3.3 0-5.9-2.7-5.9-5.9 0-3.3 2.7-5.9 5.9-5.9 3.3 0 5.9 2.7 5.9 5.9 0 3.3-2.6 5.9-5.9 5.9z"/>
    <path class="st13" d="M834.1 321.2c-4.3 0-7.7 3.5-7.7 7.7 0 4.3 3.5 7.7 7.7 7.7 4.3 0 7.7-3.5 7.7-7.7 0-4.3-3.4-7.7-7.7-7.7zm0 14.8c-3.9 0-7.1-3.2-7.1-7.1 0-3.9 3.2-7.1 7.1-7.1 3.9 0 7.1 3.2 7.1 7.1 0 3.9-3.2 7.1-7.1 7.1z"/>
  </g>
  <path class="st4" d="M536 105.1c0 .7-.6 1.3-1.3 1.3s-1.3-.6-1.3-1.3c0-.7.6-1.3 1.3-1.3s1.3.6 1.3 1.3z"/>
  <g>
    <defs>
      <path id="SVGID_3_" d="M0 0h930.9v500H0z"/>
    </defs>
    <clipPath id="SVGID_4_">
      <use xlink:href="#SVGID_3_" overflow="visible"/>
    </clipPath>
    <g class="st17">
      <path d="M897.4-6.5c-3.6 0-6.5 2.9-6.5 6.5s2.9 6.5 6.5 6.5 6.5-2.9 6.5-6.5-2.9-6.5-6.5-6.5zm0 12.4c-3.3 0-6-2.7-6-5.9s2.7-5.9 6-5.9 6 2.7 6 5.9-2.7 5.9-6 5.9z" fill="#fcfdff"/>
      <path d="M897.4-7.8c-4.3 0-7.8 3.5-7.8 7.8s3.5 7.8 7.8 7.8 7.8-3.5 7.8-7.8-3.5-7.8-7.8-7.8zm0 14.9c-3.9 0-7.1-3.2-7.1-7.1 0-3.9 3.2-7.1 7.1-7.1 3.9 0 7.1 3.2 7.1 7.1 0 3.9-3.1 7.1-7.1 7.1z" fill="#f0f1f3"/>
    </g>
    <g class="st17">
      <circle class="st4" cx="918.7" cy="160.4" r="9.4"/>
      <path class="st16" d="M918.7 148.9c-6.4 0-11.5 5.2-11.5 11.5 0 6.4 5.2 11.5 11.5 11.5 6.4 0 11.5-5.2 11.5-11.5.1-6.3-5.1-11.5-11.5-11.5zm0 22c-5.8 0-10.5-4.7-10.5-10.5s4.7-10.5 10.5-10.5 10.5 4.7 10.5 10.5-4.7 10.5-10.5 10.5z"/>
      <path class="st13" d="M918.7 146.8c-7.5 0-13.7 6.1-13.7 13.7 0 7.5 6.1 13.7 13.7 13.7 7.5 0 13.7-6.1 13.7-13.7s-6.1-13.7-13.7-13.7zm0 26.2c-7 0-12.6-5.6-12.6-12.6s5.6-12.6 12.6-12.6 12.6 5.6 12.6 12.6-5.6 12.6-12.6 12.6z"/>
    </g>
    <g class="st17">
      <path class="st13" d="M919.6 350.6c-8.4 0-15.2 6.8-15.2 15.2 0 8.4 6.8 15.2 15.2 15.2 8.4 0 15.2-6.8 15.2-15.2.1-8.3-6.8-15.2-15.2-15.2zm0 29.1c-7.7 0-13.9-6.2-13.9-13.9s6.2-13.9 13.9-13.9 13.9 6.2 13.9 13.9-6.2 13.9-13.9 13.9z"/>
      <path class="st20" d="M919.6 347.8c-10 0-18.1 8.1-18.1 18.1s8.1 18.1 18.1 18.1c10 0 18.1-8.1 18.1-18.1s-8.1-18.1-18.1-18.1zm0 34.7c-9.2 0-16.6-7.5-16.6-16.6s7.5-16.6 16.6-16.6c9.2 0 16.6 7.5 16.6 16.6s-7.4 16.6-16.6 16.6z"/>
    </g>
    <g class="st17">
      <path class="st13" d="M417.6 479.2c-6.9 0-12.4 5.6-12.4 12.4 0 6.9 5.6 12.4 12.4 12.4 6.9 0 12.4-5.6 12.4-12.4 0-6.9-5.5-12.4-12.4-12.4zm0 23.7c-6.2 0-11.3-5.1-11.3-11.3 0-6.2 5.1-11.3 11.3-11.3 6.2 0 11.3 5.1 11.3 11.3 0 6.2-5 11.3-11.3 11.3z"/>
      <path class="st20" d="M417.6 476.9c-8.1 0-14.7 6.6-14.7 14.7s6.6 14.7 14.7 14.7 14.7-6.6 14.7-14.7c0-8.2-6.6-14.7-14.7-14.7zm0 28.2c-7.5 0-13.6-6.1-13.6-13.6s6.1-13.6 13.6-13.6 13.6 6.1 13.6 13.6c0 7.6-6.1 13.6-13.6 13.6z"/>
    </g>
  </g>
</svg>
