<svg width="245" height="271" viewBox="0 0 245 271" fill="none" xmlns="http://www.w3.org/2000/svg">
<path fill-rule="evenodd" clip-rule="evenodd" d="M197.837 41.9632L193.802 29.4549C192.189 29.4549 185.734 29.0514 182.91 29.0514C170.405 29.0514 169.194 33.8933 167.177 43.9806C166.37 49.226 165.967 54.8749 165.967 60.5238V60.9273C166.37 65.7693 161.126 77.067 161.126 85.5404V85.9439C161.126 91.5928 174.439 97.6451 182.103 92.8032L183.314 91.9963C191.382 86.7509 191.785 73.0321 194.609 64.5588C196.626 58.5064 193.399 56.0854 197.433 47.2086C198.24 45.9981 199.45 41.5597 197.837 41.9632Z" fill="#000F36"/>
<path fill-rule="evenodd" clip-rule="evenodd" d="M196.626 78.681L66.7277 75.4531C72.7788 57.6994 77.2164 27.8409 86.4948 14.9292C91.7392 6.85932 103.438 7.26282 107.876 6.45583C115.137 4.84186 123.609 4.84185 130.467 9.28027C145.796 19.3676 198.24 25.8235 200.66 43.5772C201.064 48.4191 195.819 78.2775 196.626 78.681Z" fill="#1E4769"/>
<path fill-rule="evenodd" clip-rule="evenodd" d="M163.547 85.5404L165.16 38.3318C167.177 39.1387 172.018 38.7353 173.632 37.5248C170.405 40.3492 168.791 66.9797 173.228 68.5937C173.632 71.4181 180.49 73.0321 182.91 73.0321L179.28 94.8207L163.547 85.5404Z" fill="#000528"/>
<path fill-rule="evenodd" clip-rule="evenodd" d="M203.081 55.2785C203.484 60.5239 199.854 75.8566 198.24 81.102C195.819 88.7684 195.013 89.9788 190.979 96.8382C190.172 98.0487 186.138 106.522 186.138 107.732C184.121 107.732 179.28 101.277 178.473 99.6626C175.245 90.3823 181.297 67.3833 184.121 58.5064C189.768 40.7528 200.257 18.5607 203.081 55.2785Z" fill="#5684A0"/>
<path fill-rule="evenodd" clip-rule="evenodd" d="M175.245 43.1737L180.49 28.6479L197.433 33.4898C204.695 42.3667 204.291 56.8924 201.871 69.8042L193.802 94.8207L186.944 108.539C186.541 107.732 172.018 111.767 174.842 103.294C178.473 91.9963 190.172 60.1203 190.575 55.6819C190.575 54.068 191.382 47.6121 189.365 47.2086L175.245 43.1737Z" fill="#F2F9FD"/>
<path fill-rule="evenodd" clip-rule="evenodd" d="M180.086 108.943C184.927 92.8033 187.348 56.0855 195.416 58.9099C192.189 85.5404 190.575 83.9265 184.927 106.522C184.121 109.75 183.717 111.364 182.91 114.995C181.7 114.995 179.683 114.592 178.876 113.785C178.876 113.381 180.086 109.346 180.086 108.943Z" fill="#B4D3E2"/>
<path fill-rule="evenodd" clip-rule="evenodd" d="M30.4206 183.589L22.7558 173.098L5.81247 180.765C6.21588 182.379 4.19881 204.167 10.6534 200.132C11.0568 199.729 11.8636 198.922 12.2671 198.518C13.8807 200.536 16.3012 201.343 17.5114 198.922C19.5285 198.518 18.7217 206.185 23.5626 201.746C23.5626 201.746 24.3694 201.343 24.7728 201.343C27.1933 203.764 19.9319 215.465 27.1933 211.834C33.2445 204.974 35.2615 192.062 30.4206 184.8C30.824 183.993 30.4206 183.993 30.4206 183.589Z" fill="#002C51"/>
<path fill-rule="evenodd" clip-rule="evenodd" d="M128.853 78.681L99.404 63.3483C83.6709 63.3483 69.5515 73.0321 55.0287 77.4705H54.6253C48.1707 79.488 37.2786 86.3474 31.6308 89.9788C21.1421 96.4347 21.1421 97.6452 13.4773 106.522C7.42609 113.785 3.39195 124.276 2.18172 133.152C1.77831 137.591 1.37489 153.327 0.164658 154.941C-0.642166 156.152 1.77831 172.291 1.77831 176.73C1.77831 184.396 7.02267 184.396 7.82949 185.606C9.03973 186.413 8.2329 186.01 8.2329 186.01C11.0568 184.8 5.40901 183.589 14.6875 180.765C20.7387 178.747 27.5967 182.379 31.6308 186.413C32.0342 186.817 32.841 187.624 33.2445 187.624C34.4547 185.203 39.2956 169.87 38.0854 168.256C36.4717 166.239 41.7161 158.169 37.682 152.117C34.4547 146.871 40.9093 142.433 41.7161 138.398C42.5229 132.749 45.3468 129.521 51.398 128.714C53.0116 128.714 55.8355 127.504 57.0457 127.504C57.0457 130.732 55.8355 140.012 55.8355 145.661V144.45C55.8355 148.889 58.6594 152.52 57.8526 159.379C58.256 163.818 53.8185 169.467 50.1877 170.677C45.3468 172.291 40.9093 191.255 38.0854 195.29C37.682 196.501 35.6649 201.343 36.4717 204.974C36.4717 216.675 31.6308 227.57 37.2786 237.657C40.9093 244.113 48.1707 246.534 56.6423 245.727C63.0969 244.92 71.5686 239.674 73.5856 234.026C74.7959 231.605 82.4607 213.447 84.8812 212.237C85.688 211.834 86.8982 209.816 88.5119 210.623C90.5289 215.061 86.8982 229.184 87.7051 237.254C88.5119 244.113 89.3187 247.744 90.1255 253.797C89.7221 259.042 100.211 269.129 104.648 269.936C109.893 271.147 122.398 271.147 125.626 266.708C127.239 269.533 140.149 234.026 139.745 222.324C139.745 216.675 144.99 192.869 146.2 190.045C146.2 189.641 157.899 163.011 157.899 163.011C159.109 161.8 165.967 152.924 165.967 151.31C167.177 151.713 195.819 188.431 219.217 172.695C223.251 169.87 221.234 173.098 225.269 167.853C227.286 165.432 234.144 147.678 238.985 140.415C242.212 135.573 247.053 129.521 242.615 123.469C242.212 123.065 238.985 118.223 238.985 118.223C238.985 131.135 240.195 124.679 232.53 133.556C226.479 140.819 210.342 123.872 209.535 119.837L209.132 120.241C208.325 121.048 202.274 129.521 202.274 129.925L201.871 129.521C202.274 124.276 197.433 114.188 194.609 110.153C194.206 109.346 192.996 107.732 192.189 107.329C192.189 107.329 183.314 100.066 180.49 96.0312C175.245 90.3823 179.28 91.1893 170.405 85.9439C157.899 78.681 148.62 84.7334 133.694 78.681C131.677 79.488 130.467 79.488 128.853 78.681Z" fill="#002D49"/>
<path fill-rule="evenodd" clip-rule="evenodd" d="M87.7051 232.412H88.5119C88.1085 233.219 88.1085 233.622 87.7051 234.429C87.7051 236.043 87.7051 237.254 87.7051 238.464C88.5119 245.323 89.3187 248.955 90.1255 255.007C89.7221 259.042 95.3699 265.095 99.8074 268.726H100.211C100.211 264.691 91.7392 258.235 91.7392 257.428C91.7392 257.428 100.614 260.253 101.018 259.849C98.1938 259.042 93.7562 257.428 91.7392 255.007C94.1597 258.235 98.5972 256.621 100.614 257.025C100.211 256.218 99.404 256.621 99.0006 256.218C85.2846 252.183 96.1767 250.972 102.228 250.972C99.0006 250.972 92.9494 247.341 92.546 247.341C92.9494 247.341 98.5972 249.358 98.5972 249.358C98.5972 248.955 90.9324 246.534 92.1426 244.113C92.546 244.113 96.1767 246.13 101.018 246.937C100.614 246.13 95.3699 245.727 93.3528 242.902C95.7733 243.709 97.7904 244.516 100.211 244.516C99.0006 243.709 94.5631 243.306 94.1597 240.482C94.1597 240.482 103.035 240.885 104.648 240.885C101.824 240.885 94.1596 238.868 92.9494 236.043C99.0006 236.043 99.8074 240.482 106.665 239.675C105.859 234.833 91.7392 236.85 92.1426 230.394C98.1938 230.394 108.279 236.447 108.279 232.815C108.279 225.956 96.9835 229.184 92.546 225.956L91.7392 225.149C91.7392 223.131 99.0006 224.342 103.842 224.342C103.842 223.938 94.5631 221.114 92.9494 220.307C98.5972 220.307 97.3869 221.921 104.245 219.903C104.245 219.5 92.9494 216.272 92.9494 213.851C94.1596 213.851 101.018 214.255 99.8074 211.43C97.3869 211.027 90.529 209.413 88.1085 211.027C88.5119 211.834 88.1085 230.394 87.7051 232.412Z" fill="#000B2F"/>
<path fill-rule="evenodd" clip-rule="evenodd" d="M57.0457 149.696C57.8525 152.52 59.0628 155.748 58.256 160.186C58.256 161.397 57.8526 163.011 57.4492 164.221C59.0628 164.625 60.273 164.625 60.273 168.256C58.6594 168.256 57.0457 167.449 55.8355 167.046C54.6253 168.66 53.415 169.87 52.2048 170.677C54.6253 173.502 57.8525 175.923 56.6423 179.554C55.4321 179.554 52.6082 173.502 48.9775 172.291C48.5741 172.695 48.1707 173.098 47.7673 173.502C49.3809 176.326 54.6253 177.94 54.2218 182.782C54.2218 183.186 48.5741 178.344 48.1707 177.537H46.9604C48.5741 183.186 53.415 182.782 53.415 187.624L53.0116 188.834C52.6082 187.624 50.9946 185.203 50.1877 184.396C42.5229 176.73 50.1877 196.501 50.1877 196.501C45.7502 196.501 41.3127 189.641 41.7161 193.676C41.7161 193.676 46.557 200.536 46.9604 200.939C45.3468 201.343 44.54 198.115 41.7161 198.115C41.3127 209.009 41.7161 203.764 45.7502 209.413C52.2048 219.096 37.682 212.641 37.2786 213.044C38.4888 215.061 42.5229 219.096 41.7161 221.114C39.699 221.921 37.682 221.114 35.6649 220.307C35.6649 221.114 35.6649 221.921 35.2615 223.131C38.0854 224.745 40.9093 226.359 40.5058 229.184C38.8922 229.587 36.8752 229.587 35.2615 228.78C35.2615 232.008 36.0683 235.236 38.0854 238.464C40.5058 242.499 44.54 245.323 48.9775 246.13C45.3468 242.095 39.699 237.657 39.699 237.657C41.7161 236.85 49.7843 241.692 50.9945 242.902C50.9945 240.481 38.0854 229.991 43.7331 229.991C47.3639 236.043 52.2048 234.429 54.6253 234.429C54.6253 229.991 42.9263 223.131 40.9092 222.728C40.5058 221.921 40.5058 221.921 40.9092 221.114C41.7161 220.71 46.1536 222.728 48.9775 223.535C48.1707 221.921 45.7502 220.307 45.7502 218.693C46.1536 218.693 50.9946 223.535 52.2048 220.71C46.9604 211.833 43.3297 215.868 52.6082 215.868C51.398 214.658 48.9775 213.447 47.7673 211.834L55.8355 213.448C53.8184 211.834 48.5741 208.606 48.9775 205.781C51.8014 206.185 55.0287 210.22 61.0798 210.22C61.0798 204.974 50.9946 204.167 51.398 197.711C56.2389 195.694 60.6764 203.764 66.3242 203.36C65.9208 200.939 56.2389 196.501 59.4662 193.273C66.7276 194.08 73.989 202.957 81.6539 202.957C80.847 198.518 53.8184 192.062 54.2218 187.624C60.273 187.624 84.8811 202.957 86.4948 194.08C73.1822 192.062 69.9549 190.448 57.4492 182.379C59.8696 181.168 67.131 186.413 70.3583 186.413C82.0573 186.817 59.0628 179.151 59.0628 172.291C66.3242 171.888 61.8867 174.712 74.7958 174.309C88.1084 173.905 65.5174 159.38 57.0457 149.696Z" fill="#000B2F"/>
<path fill-rule="evenodd" clip-rule="evenodd" d="M109.893 100.47C103.842 107.733 84.4778 124.276 70.7618 128.311C65.5174 129.925 70.7618 144.854 74.3925 146.871C75.6027 147.275 79.6368 153.731 80.0402 154.941C82.0573 160.59 107.876 146.064 115.944 141.626C119.978 139.608 120.785 140.415 128.853 136.784C130.063 136.381 130.467 135.17 131.677 134.767C133.291 133.96 135.711 132.749 136.518 131.135C126.433 138.398 111.506 148.889 114.734 163.818C114.734 164.221 118.768 171.888 118.768 172.695C123.609 173.098 142.166 138.398 141.762 128.311C141.762 128.311 144.586 116.206 144.586 112.978C131.274 112.978 125.626 112.978 114.33 105.312C113.12 104.505 110.7 102.084 109.893 100.47Z" fill="#001535"/>
<path fill-rule="evenodd" clip-rule="evenodd" d="M148.62 170.274L150.234 163.011C147.41 172.695 138.132 171.888 132.887 171.888C136.921 174.712 142.569 173.098 146.603 172.291C146.603 178.747 134.904 176.73 132.887 177.133C133.694 177.537 154.268 181.975 143.376 188.431C139.745 190.852 133.694 187.624 132.484 188.028C133.291 189.641 144.586 190.852 146.2 190.045C142.569 194.483 135.308 193.273 131.274 193.273C136.518 195.694 138.132 195.29 143.779 195.29C141.762 202.957 132.08 199.729 129.256 199.729C128.45 206.588 143.779 197.308 142.972 206.992C142.972 206.992 128.45 210.623 127.643 210.623C127.239 215.061 135.308 216.675 137.325 215.061C134.904 220.307 128.046 217.079 127.643 217.079C130.87 216.675 128.853 220.71 139.745 218.289C139.745 218.289 139.745 218.289 140.552 218.289C133.291 224.342 137.728 222.728 129.256 222.728C136.518 222.324 133.291 229.991 142.972 216.272C142.972 215.465 142.972 215.465 143.376 214.658C140.955 215.465 139.342 218.693 139.342 213.448C145.393 213.448 143.376 209.009 144.99 199.729C143.779 199.729 140.149 198.922 140.149 198.922C141.359 197.308 146.2 197.308 145.393 191.659C144.99 191.255 144.586 191.255 143.779 191.659C144.586 190.448 145.796 189.641 146.2 188.834C146.2 186.414 147.813 186.01 147.41 183.186C146.603 182.782 147.007 183.589 146.2 182.782C147.007 181.975 147.813 181.168 148.217 179.554C147.007 179.151 147.007 180.361 146.603 178.747C149.024 171.081 146.603 174.712 148.62 170.274Z" fill="#F2F9FD"/>
<path fill-rule="evenodd" clip-rule="evenodd" d="M134.904 217.079L136.115 209.816C133.291 219.5 124.819 218.693 119.978 218.693C123.609 221.517 128.853 219.903 132.484 219.096C132.484 225.552 121.592 223.535 119.575 223.938C120.381 224.342 139.342 228.78 129.257 235.236C126.029 237.657 120.381 234.429 119.171 234.833C119.978 236.447 130.467 237.657 131.677 236.85C128.046 241.288 121.592 240.078 117.558 240.078C122.399 242.499 124.012 242.095 128.853 242.095C126.836 249.762 117.961 246.534 115.54 246.534C114.734 253.393 128.853 244.113 128.046 253.797C128.046 253.797 114.734 257.428 113.927 257.428C113.523 261.867 121.188 263.481 122.802 261.867C120.785 267.112 114.33 263.884 113.927 263.884C117.154 263.481 115.137 267.515 125.222 265.095C125.222 265.095 125.222 265.095 126.029 265.095C119.575 271.147 123.609 269.533 115.54 269.533C122.802 267.112 119.575 274.375 128.046 263.077C128.046 262.27 128.046 262.27 128.45 261.463C126.433 262.27 119.978 263.077 119.978 257.832C125.626 257.832 128.45 255.814 129.66 246.534C128.853 246.534 125.222 245.727 125.222 245.727C126.433 244.113 130.87 244.113 130.063 238.464C129.66 238.061 129.257 238.464 128.853 238.464C129.66 237.254 130.467 236.447 131.274 235.64C131.274 233.219 132.887 232.815 132.484 229.991C131.677 229.587 132.08 230.394 131.274 229.587C132.08 228.78 132.887 227.973 132.887 226.359C132.08 225.956 131.677 227.166 131.274 225.552C134.904 218.289 132.887 221.517 134.904 217.079Z" fill="#F2F9FD"/>
<path fill-rule="evenodd" clip-rule="evenodd" d="M116.751 270.34C120.381 271.55 125.222 269.533 126.836 265.498C128.853 263.077 138.535 233.219 140.955 221.921C141.762 217.482 144.99 193.676 146.2 190.448C146.2 190.045 160.319 164.221 160.319 164.221C170.405 154.134 164.353 146.064 152.654 143.24C144.99 156.555 138.535 160.59 135.308 184.8C134.097 193.273 136.518 208.606 133.291 218.693C129.66 229.184 129.66 261.06 116.751 270.34ZM219.621 173.502C196.626 188.834 163.547 149.696 164.353 150.503C170.001 155.345 181.7 164.625 189.365 168.256C204.291 175.519 197.433 169.87 204.695 167.449C205.501 167.046 207.518 162.607 208.325 162.204C208.729 161.397 216.393 144.047 216.393 144.047C221.638 144.45 233.74 145.661 233.74 138.398C226.479 138.398 222.041 140.819 214.78 128.714C215.183 128.714 218.007 133.96 223.251 135.17C226.882 137.187 230.513 137.591 232.53 135.17C238.985 127.504 238.985 131.135 238.985 124.276C239.388 123.065 239.791 122.258 239.791 121.048C241.002 122.662 242.212 124.679 242.615 125.083C247.053 131.135 242.212 137.187 238.985 142.029C234.547 148.889 227.286 166.642 225.269 169.063C221.638 173.905 223.655 170.677 219.621 173.502Z" fill="#F2F9FD"/>
<path fill-rule="evenodd" clip-rule="evenodd" d="M147.41 151.31L153.461 149.696C145.796 150.503 135.711 149.292 129.66 146.468C130.87 153.327 144.586 152.52 149.831 153.327C147.41 157.362 132.484 151.713 128.853 150.906C126.433 155.345 145.393 155.345 147.813 156.959C135.711 155.748 138.938 158.573 120.381 154.538C134.904 160.59 123.609 160.59 149.024 164.221C144.586 163.414 124.819 166.642 120.381 160.59C122.399 160.187 122.399 166.642 132.08 167.853L133.694 168.256C135.711 168.66 141.359 168.66 143.376 168.256C136.921 170.677 125.222 167.449 119.978 164.625C120.381 164.221 129.257 171.484 136.921 172.695C139.745 173.098 140.955 172.695 143.779 173.098C140.955 177.537 122.399 171.484 122.399 171.484C123.609 171.484 124.012 177.133 142.569 178.344C142.569 178.344 119.575 177.133 118.768 177.133C121.995 177.537 123.609 181.572 137.728 183.186C136.921 182.782 121.592 181.572 120.785 181.975C124.416 186.414 130.063 187.221 136.518 188.027C134.904 190.448 118.768 187.624 115.944 187.221C120.381 188.028 117.558 191.255 133.291 193.273C130.87 192.869 117.154 190.448 117.154 190.448C122.802 192.869 117.961 193.676 129.66 195.29C129.66 195.29 115.54 195.29 115.137 195.29C116.347 195.29 124.416 198.922 132.484 200.132C128.046 200.939 119.575 199.729 115.54 198.922C115.944 198.518 128.853 201.746 131.274 201.746C128.853 201.343 116.347 200.132 114.734 200.939C117.154 200.939 127.643 203.36 131.274 203.764C129.257 203.36 114.33 202.15 113.927 202.15C120.785 202.957 124.012 204.571 134.097 206.185C134.097 206.185 119.575 206.588 114.734 205.781C117.961 206.185 121.188 210.22 128.853 211.43C121.995 210.623 105.859 211.834 122.399 214.255C123.205 214.255 125.222 214.255 125.222 215.465C122.802 214.658 119.575 214.658 117.154 215.061C114.734 217.886 121.995 218.693 124.012 219.096C121.592 221.921 114.734 217.482 110.7 217.886C110.7 218.693 111.91 219.096 112.717 219.5C120.785 222.324 121.188 226.763 134.501 222.728C135.308 222.324 135.308 221.921 135.711 221.517C132.484 221.517 121.995 219.096 122.802 216.272C132.484 217.482 137.325 214.658 138.132 214.658C134.904 214.254 121.188 213.448 121.995 210.22C122.399 210.22 142.166 212.64 142.569 204.571C139.745 203.36 124.416 203.36 126.836 198.518C132.08 199.729 139.342 199.325 144.99 198.518C146.603 195.694 130.87 197.711 126.836 192.869L128.45 192.466C136.921 193.676 133.694 194.887 144.183 193.273L143.376 192.869C139.745 192.466 133.291 192.869 132.484 189.641C132.887 189.238 154.671 191.659 147.813 186.817C144.99 185.607 135.308 184.396 138.535 180.765C140.149 180.361 150.234 184.8 151.848 180.765C150.234 180.361 134.097 174.712 144.586 176.326C146.2 176.326 149.831 177.133 151.041 176.73C149.831 175.923 140.552 175.923 140.552 173.905C142.569 174.712 147.41 174.309 149.831 173.502C149.427 173.098 141.359 173.098 142.973 169.87C143.376 169.87 160.723 171.888 155.478 167.449C152.654 165.028 140.955 169.87 144.183 162.607C146.603 163.011 154.268 164.221 156.689 161.8C154.671 162.204 145.393 160.59 144.586 159.38L145.796 158.976C152.251 160.187 157.092 160.994 163.547 156.959C158.706 156.959 156.285 156.555 151.444 156.152C155.882 156.959 158.706 154.941 161.933 151.713C160.723 152.117 149.024 151.31 147.41 151.31Z" fill="#385A7E"/>
<path fill-rule="evenodd" clip-rule="evenodd" d="M161.126 70.6111H167.984C168.387 70.6111 168.791 71.0147 168.791 71.4181L166.774 90.7857C166.774 91.1892 166.37 91.5927 165.564 91.5927H158.706C158.302 91.5927 157.899 91.1892 157.899 90.7857L159.916 71.4181C160.319 71.0147 160.723 70.6111 161.126 70.6111Z" fill="black"/>
<path fill-rule="evenodd" clip-rule="evenodd" d="M166.774 86.7508C169.194 87.9613 165.967 95.6277 162.336 102.084C162.336 104.101 158.302 102.084 157.495 101.68C156.689 102.084 151.848 109.346 144.99 111.364C137.325 113.381 130.467 112.574 124.819 110.96C110.7 106.925 101.421 94.0137 100.211 76.26C99.404 65.3658 106.262 57.6994 109.086 58.1029C117.961 58.9098 131.677 97.2416 140.149 96.0312C159.512 93.2067 150.234 79.488 166.774 86.7508Z" fill="#5E80A9"/>
<path fill-rule="evenodd" clip-rule="evenodd" d="M180.086 27.034L125.626 6.05239C124.416 5.6489 121.188 4.43845 119.171 4.43845C113.927 4.84194 103.035 47.6121 105.859 48.4191C109.893 49.6295 118.364 46.4016 122.802 47.6121C132.887 50.84 144.99 33.0864 156.285 36.7178C157.092 37.1213 158.706 37.9283 159.512 38.3318C163.143 39.5422 165.564 50.84 168.387 49.2261C171.211 47.6121 179.683 33.4899 180.086 29.8584C180.086 29.0514 180.49 27.841 180.49 27.034H180.086Z" fill="#568299"/>
<path fill-rule="evenodd" clip-rule="evenodd" d="M119.171 31.0689C119.171 25.8235 103.035 15.7362 98.1938 17.7537C74.7959 26.227 85.2846 23.4026 73.1823 46.4016C69.1482 54.068 66.7277 68.1902 64.3072 76.6636C76.4096 76.6636 87.7051 72.6286 99.404 72.6286C99.404 66.5762 103.842 64.5588 101.018 52.0505C99.0006 41.5597 114.33 34.7004 119.171 31.0689Z" fill="#32577E"/>
<path fill-rule="evenodd" clip-rule="evenodd" d="M109.086 32.683H105.859C103.438 41.1563 97.3869 38.3319 84.0743 73.4357C76.0061 73.4357 69.9549 75.4531 64.7105 75.4531C74.7958 75.4531 102.228 81.5055 105.859 92.3998C96.9835 83.523 101.018 57.6995 104.245 51.6471C109.086 41.5598 109.086 45.5947 109.086 32.683Z" fill="#002646"/>
<path fill-rule="evenodd" clip-rule="evenodd" d="M119.171 31.0689C119.171 25.8235 103.035 15.7362 98.1938 17.7537C97.387 18.1572 96.5801 18.5607 95.7733 18.5607C94.5631 22.5956 91.7392 27.841 88.9153 38.3318C88.9153 39.1388 96.1767 43.9807 105.859 45.5947C110.296 41.5597 116.347 33.0864 119.171 31.0689Z" fill="#5380A0"/>
<path fill-rule="evenodd" clip-rule="evenodd" d="M122.802 15.3327L124.012 15.7362L122.802 14.9292L126.433 4.43845L181.297 23.8061L177.666 35.1038L122.802 15.3327Z" fill="#5684A0"/>
<path fill-rule="evenodd" clip-rule="evenodd" d="M124.012 10.8943L125.222 11.2978L124.012 10.8943L127.643 0L182.91 19.7711L178.876 31.069L124.012 10.8943Z" fill="#B7D9EA"/>
<path fill-rule="evenodd" clip-rule="evenodd" d="M127.643 48.0156L101.824 57.6995V58.1029C100.211 62.1379 99.8074 81.5055 101.421 85.9439C103.438 91.9963 106.262 95.2242 110.699 99.6627C114.734 103.698 121.995 106.926 127.239 107.329C136.114 108.136 140.149 109.75 149.427 103.698C153.461 100.873 155.478 98.8557 157.899 94.8208C161.126 89.9788 161.126 88.7684 163.143 83.523C164.757 79.488 167.177 69.4007 165.564 65.3658L165.16 64.5588C160.319 54.068 144.586 48.8226 134.904 48.4191C132.484 48.0156 130.467 48.0156 127.643 48.0156Z" fill="black"/>
<path fill-rule="evenodd" clip-rule="evenodd" d="M106.262 62.1378V63.3483C105.052 65.3658 104.648 77.0671 104.648 79.8915L101.824 74.2426C101.824 73.4356 106.262 62.1378 106.262 62.1378Z" fill="#C9EBF3"/>
<path fill-rule="evenodd" clip-rule="evenodd" d="M153.058 79.488C152.654 81.909 151.848 84.3299 151.041 86.7509C149.831 90.3823 152.654 94.4172 147.007 99.6626C151.041 95.6277 158.302 89.9788 156.688 83.523C156.285 82.716 153.058 79.488 153.058 79.488Z" fill="white"/>
<path fill-rule="evenodd" clip-rule="evenodd" d="M144.586 98.0486C146.603 104.908 134.097 106.522 129.256 104.101C134.501 105.715 142.166 100.873 144.586 98.0486Z" fill="#51619B"/>
<path fill-rule="evenodd" clip-rule="evenodd" d="M179.28 30.2619L124.416 10.4909C124.012 10.8944 121.592 15.3328 121.592 16.1397C122.802 16.1397 129.256 19.7712 132.484 20.5782C139.342 22.1921 146.603 24.6131 153.058 26.6305C159.512 28.2445 160.723 28.648 166.774 31.4724C169.194 32.2794 174.035 33.0864 176.859 34.7004C177.262 35.1039 178.069 35.1039 178.473 35.5074C178.473 33.4899 178.876 32.6829 179.28 30.2619Z" fill="#224A5C"/>
<path fill-rule="evenodd" clip-rule="evenodd" d="M90.1255 121.855C89.7221 124.679 86.0914 137.994 86.0914 139.608C81.6539 139.608 81.2505 137.187 79.6368 137.591C79.6368 143.24 76.0061 151.713 76.0061 157.362C77.6198 158.572 80.847 159.783 82.8641 160.186C83.2675 160.186 83.6709 160.59 84.0743 160.59C84.8812 159.783 85.2846 155.345 86.0914 154.538L86.8982 154.941C87.3016 154.941 101.824 158.976 101.824 158.976C101.824 157.766 101.824 156.959 102.228 155.345C102.631 155.345 103.438 155.748 103.842 156.152C106.262 155.748 125.222 160.993 128.45 162.204C128.046 156.959 139.342 119.837 138.535 119.837L131.274 118.223C129.256 117.82 130.063 125.89 128.046 129.118C121.995 129.521 117.961 123.469 115.54 128.311C115.137 129.521 94.1596 121.451 90.1255 121.855Z" fill="#365C7D"/>
<path fill-rule="evenodd" clip-rule="evenodd" d="M240.195 131.135L241.002 122.258L238.581 115.399C231.32 110.153 234.547 111.767 223.655 109.75C223.655 109.75 216.797 99.2591 211.149 109.346C210.746 111.767 207.922 109.75 207.115 112.574C207.115 118.627 209.132 117.416 208.729 124.276C208.729 126.697 212.359 127.504 213.973 128.311C214.78 130.732 214.78 133.556 221.234 131.539C221.638 131.135 221.234 131.538 221.638 131.135C225.672 140.819 233.74 135.977 239.791 131.539C239.791 131.539 239.388 131.538 240.195 131.135Z" fill="#00002E"/>
<path fill-rule="evenodd" clip-rule="evenodd" d="M237.371 114.995C230.916 110.557 233.337 111.767 222.848 109.75C222.848 109.75 218.814 103.294 213.973 105.312C216.394 111.767 226.075 121.855 233.337 121.451C234.547 121.451 234.144 121.855 235.354 122.258C238.581 124.276 237.774 130.328 238.581 131.135C240.195 131.942 240.195 131.135 240.195 129.118C242.212 123.469 240.195 119.434 237.371 114.995Z" fill="#F2F9FD"/>
<path fill-rule="evenodd" clip-rule="evenodd" d="M69.1481 155.748L65.114 151.713C65.114 151.713 70.7617 142.836 71.972 145.257C72.7788 146.871 84.8811 158.169 84.8811 158.169C86.8982 164.221 76.8129 158.573 89.3187 166.239C95.3699 169.87 98.1937 160.993 105.052 160.186C110.296 159.38 121.592 154.134 121.995 153.731C124.012 156.555 125.626 157.766 127.239 160.59C126.433 163.414 119.575 166.239 116.751 168.256C117.154 169.063 153.461 179.958 153.058 181.975L151.041 190.852C148.62 191.255 127.643 179.554 120.785 178.747C117.558 178.344 101.421 173.905 101.018 177.94C100.614 183.186 97.7904 181.975 91.7392 181.168C90.9323 181.168 88.5119 180.361 88.1085 179.958C90.9323 172.695 88.5119 174.309 81.6539 169.467C78.4266 167.449 70.3583 165.835 73.989 163.011L76.0061 160.59C74.7959 159.783 69.9549 158.573 69.1481 155.748Z" fill="black"/>
<path fill-rule="evenodd" clip-rule="evenodd" d="M161.126 35.1038L154.268 29.4549C144.586 27.034 147.007 27.034 136.518 27.034C126.433 27.034 117.558 29.0514 109.489 35.5073C105.859 38.3318 101.018 44.3841 99.8074 49.2261C99.0006 52.0505 98.5972 55.2784 98.5972 58.1029C104.245 58.1029 108.683 58.5064 113.927 58.5064H114.33C119.978 58.1029 141.762 64.5588 147.41 67.3832C151.041 69.4007 163.95 72.6286 169.194 74.6461C170.001 74.2426 169.194 74.6461 169.598 74.2426C169.598 74.2426 171.211 67.3832 171.211 66.5762C172.825 57.2959 172.422 58.1029 170.808 49.2261V48.8226C169.598 42.3667 165.16 39.1387 161.126 35.1038C161.126 35.1038 161.529 35.5073 161.126 35.1038Z" fill="#3D5F80"/>
<path fill-rule="evenodd" clip-rule="evenodd" d="M144.183 65.7693C148.217 31.8759 112.313 31.0689 105.052 58.1029C107.876 58.1029 110.7 58.5064 113.927 58.1029H114.33C119.171 58.1029 136.115 62.9448 144.183 65.7693Z" fill="#00304C"/>
<path fill-rule="evenodd" clip-rule="evenodd" d="M161.126 35.1038L154.268 29.4549C144.586 27.034 147.007 27.034 136.518 27.034C131.677 27.034 127.643 27.4375 123.205 28.6479C126.836 28.2445 131.274 28.6479 134.904 30.2619C156.285 35.9108 154.268 50.84 146.603 66.9797H147.007C150.637 68.9972 163.546 72.2251 168.791 74.2426C169.598 73.8391 168.791 74.2426 169.194 73.8391C169.194 73.8391 170.808 66.9797 170.808 66.1727C172.422 56.8924 172.018 57.6994 170.405 48.8226V48.4191C169.598 42.3667 165.16 39.1387 161.126 35.1038C161.126 35.1038 161.529 35.5073 161.126 35.1038Z" fill="#5E80A9"/>
<path fill-rule="evenodd" clip-rule="evenodd" d="M101.824 128.714C106.665 129.925 109.893 133.96 109.086 137.591C108.279 141.222 103.842 143.24 99.0006 141.626C94.1596 140.415 90.9324 136.38 91.7392 132.749C92.1426 129.118 96.9835 127.504 101.824 128.714Z" fill="black"/>
<path fill-rule="evenodd" clip-rule="evenodd" d="M124.819 28.2445C141.359 26.6305 157.495 27.841 166.774 44.7877C173.228 56.489 167.177 69.8042 166.774 73.4356L157.495 71.0147C158.302 65.7693 161.933 59.7169 160.723 53.261C158.302 39.1388 146.2 25.4201 124.819 28.2445Z" fill="#F2F9FD"/>
<path fill-rule="evenodd" clip-rule="evenodd" d="M110.7 72.6286C110.7 72.6286 110.7 72.2251 110.7 72.6286C105.859 73.0321 107.876 85.1369 111.103 89.1718C108.682 84.3299 109.893 75.4531 110.7 72.6286Z" fill="#001B4A"/>
<path fill-rule="evenodd" clip-rule="evenodd" d="M117.154 121.048L137.728 125.486L135.711 133.556L114.734 129.118L117.154 121.048Z" fill="#001641"/>
<path fill-rule="evenodd" clip-rule="evenodd" d="M115.944 129.521L89.7221 122.662L94.563 116.609L117.557 121.855L115.944 129.521Z" fill="#5881A7"/>
<path d="M117.026 122.538L109.107 159.218L111.473 159.73L119.393 123.049L117.026 122.538Z" fill="#001641"/>
<path d="M98.1938 58.9099C103.438 58.5064 111.103 59.3134 119.575 60.5238C133.694 62.9448 149.024 66.9797 156.689 68.9972C157.092 68.9972 157.092 68.9972 157.495 69.4007C159.916 70.2077 165.564 71.8216 168.791 73.4356L168.387 74.6461C165.564 73.4356 159.512 71.4181 157.092 70.6111C156.689 70.6111 156.285 70.2077 156.285 70.2077C149.024 67.7867 133.291 64.1553 119.575 61.7343C111.103 60.5239 103.438 59.7169 98.5972 60.1204L98.1938 58.9099Z" fill="#B2D1E5"/>
<path d="M98.5967 58.103C103.841 57.296 112.313 58.103 120.784 59.7169C134.904 62.1379 150.233 66.1728 157.898 68.1903C158.302 68.1903 158.302 68.1903 158.705 68.5938C161.125 69.4008 165.966 71.0147 169.597 72.2252L169.194 73.4357C166.37 72.2252 160.722 70.6112 158.302 69.8043C157.898 69.8043 157.495 69.4008 157.495 69.4008C150.233 66.9798 134.5 63.3484 120.784 60.9274C111.909 59.3135 103.438 58.5065 98.5967 59.3135V58.103Z" fill="black"/>
<path fill-rule="evenodd" clip-rule="evenodd" d="M166.774 91.9963L164.757 96.8382C165.967 96.8382 165.16 96.8382 165.967 96.8382C167.581 96.8382 170.808 98.4522 171.615 98.8557C171.211 100.47 159.109 100.873 167.581 103.698C169.194 104.101 175.245 102.084 177.263 104.101C177.263 104.505 174.035 105.715 174.035 106.926C179.683 108.136 172.018 106.522 181.297 107.732C181.7 107.732 182.103 108.136 182.507 108.54C178.473 110.557 180.086 111.364 183.314 111.767C186.944 109.75 203.484 133.556 197.03 138.398C197.433 141.222 203.484 132.346 203.888 132.346C202.677 126.697 193.399 111.364 189.768 106.119C185.734 100.873 182.103 90.7858 175.649 87.5579C174.842 86.7509 170.405 86.7509 169.598 86.7509C166.774 87.5579 168.387 88.7684 166.774 91.9963Z" fill="#F2F9FD"/>
<path fill-rule="evenodd" clip-rule="evenodd" d="M126.029 29.455C121.188 28.2445 122.802 28.648 119.171 27.4375C114.33 24.6131 97.387 12.9118 94.5631 21.3851C94.1597 22.1921 92.9495 25.42 92.5461 25.8235C92.9495 25.8235 94.9665 24.2096 96.1768 23.8061C102.631 25.42 96.9836 37.5248 97.387 39.9457C97.7904 37.9283 98.5972 31.8759 102.631 29.8584C107.069 27.4375 109.893 33.8933 111.91 33.8933C120.381 30.6654 117.154 32.2794 126.029 29.455Z" fill="#B7D9EA"/>
<path d="M102.934 23.5373L95.4702 42.7141L100.357 44.6171L107.822 25.4403L102.934 23.5373Z" fill="#00304C"/>
<path fill-rule="evenodd" clip-rule="evenodd" d="M95.7733 20.5781L99.0006 22.192C99.8074 22.5955 100.211 23.4025 99.8074 24.2095L93.3528 40.7527C92.9494 41.5597 92.1426 41.9632 91.3358 41.5597L88.5119 39.5422C87.7051 39.1388 87.3017 38.3318 87.7051 37.5248L94.1597 20.9816C94.1597 20.5781 95.3699 20.1746 95.7733 20.5781Z" fill="#00304C"/>
<path fill-rule="evenodd" clip-rule="evenodd" d="M46.557 81.5054C48.5741 82.7159 50.1878 84.3299 51.8014 84.7334C50.5912 85.1369 46.1536 84.3299 42.1195 83.9264C43.7332 83.1194 44.9434 82.3124 46.557 81.5054ZM39.699 85.5404C42.9263 85.9439 46.9605 87.1544 46.1536 91.1893C45.7502 91.1893 42.1195 88.3648 37.682 87.1544H38.0854C40.9093 87.9613 43.7332 88.7683 44.1366 88.7683C42.9263 87.5578 41.3127 86.7508 39.699 85.5404ZM34.8581 88.3649L32.4376 89.9788C38.0854 91.1893 42.5229 95.2242 42.9263 95.2242C42.9263 94.4172 42.1195 93.6102 41.3127 92.8032C39.699 91.1893 37.682 89.5753 34.8581 88.3649ZM30.0171 91.5927C33.6479 92.3997 37.2786 94.4172 38.4888 98.0487C35.2615 98.4521 33.2444 94.4172 26.3864 93.6102C27.5967 92.8032 28.4035 92.3997 30.0171 91.5927ZM21.9489 97.2417C21.1421 97.6452 20.7387 98.4522 20.3352 99.2591C21.9489 100.066 23.5626 100.47 23.966 101.277C23.5626 100.873 21.5455 100.47 19.5284 100.47C19.125 100.873 19.125 101.277 18.7216 101.277C22.3523 100.066 30.824 102.891 32.4376 104.101C33.2444 103.698 33.2444 104.101 32.841 102.891C31.6308 102.487 31.2274 99.2591 21.9489 97.2417ZM17.108 102.487C19.5284 102.891 33.2444 104.505 32.4376 110.96C29.6137 110.96 15.8977 106.119 13.8807 109.346C19.125 108.943 23.1592 110.153 27.1933 112.978C27.1933 112.978 13.0738 113.785 12.267 113.785C15.8977 113.785 21.9489 113.381 24.3694 115.399C19.5284 115.399 12.267 116.609 7.02267 117.416C7.82949 115.802 8.63631 114.592 9.44313 112.978C12.6704 112.978 16.3011 112.978 19.5284 112.171C20.3353 107.732 17.9148 106.522 15.4943 104.908C15.8977 104.505 16.7046 103.294 17.108 102.487ZM6.21582 119.03C15.0909 119.03 14.2841 118.627 25.983 122.662C25.983 129.118 11.0568 124.276 6.21582 127.504C14.6875 125.486 21.1421 128.311 23.1592 127.907C20.7387 127.907 9.84655 127.504 9.03973 130.328C8.63631 130.328 8.23288 130.328 8.23288 131.135C10.2499 129.118 17.9148 130.732 20.3352 131.539C18.7216 132.749 8.23288 132.346 6.61923 134.363C7.42605 134.766 16.3011 135.17 18.7216 135.573C19.125 137.187 18.7216 136.38 18.7216 136.784C15.4943 137.591 13.4772 137.994 10.6534 139.205C9.0397 139.608 9.44313 140.415 9.44313 141.626C19.5284 141.626 26.7898 149.292 12.267 148.485C11.0568 148.485 7.82948 149.696 7.42607 150.906C9.84655 151.31 16.3011 150.099 16.3011 152.117C13.4772 152.52 5.0056 152.52 3.39195 155.748C5.0056 155.345 12.267 153.731 13.0738 156.152C13.0738 156.152 5.81241 158.976 4.60217 159.783C5.81241 159.38 12.6704 159.379 13.8807 160.186C13.4772 160.59 8.23289 163.011 7.82948 163.011C25.983 163.011 7.82947 166.239 4.19876 165.835C4.19876 166.642 4.19878 166.239 2.98855 167.046C2.98855 167.046 11.4602 163.818 12.6704 165.835C12.267 166.239 5.81241 167.853 4.60217 168.256H6.61923C18.3182 167.449 24.3694 168.66 27.1933 168.66C23.1592 170.274 16.3011 166.239 7.42607 172.695C7.42607 172.695 19.5284 169.87 19.5284 173.905C10.25 176.73 9.03971 172.291 1.7783 177.537V177.133C1.7783 176.73 1.7783 176.326 1.7783 175.923C5.40901 173.098 9.44313 170.274 11.4602 169.467C10.25 169.063 4.60219 169.063 0.971485 169.063C0.568073 167.046 0.568054 165.028 0.164642 163.414C3.39194 158.976 9.84653 157.362 10.2499 156.959C5.81241 157.766 7.02264 157.766 2.58511 159.783C8.23288 153.731 8.2329 155.345 11.4602 152.924L10.2499 152.52C7.82947 152.52 4.60218 153.731 3.79536 153.327C7.82948 149.696 12.267 152.117 14.6875 150.099C10.2499 148.485 9.03971 148.082 4.19876 148.082C4.19876 141.626 13.0738 142.836 13.8807 140.012C10.6534 140.012 6.21583 139.608 3.79536 139.608C3.39195 135.977 12.6704 133.959 14.6875 131.135C13.0738 130.328 7.82948 131.942 5.40901 131.135C3.79536 126.293 17.9148 126.293 19.125 125.89C19.125 121.048 11.8636 121.855 4.60217 122.662C5.81241 120.644 5.81241 119.837 6.21582 119.03ZM17.108 102.487C17.5114 102.084 17.9148 101.68 17.9148 101.277C19.9318 101.68 21.9489 102.084 21.9489 102.891C22.3523 102.891 19.9319 102.487 17.108 102.487Z" fill="#385A7E"/>
<path fill-rule="evenodd" clip-rule="evenodd" d="M153.058 119.837C153.058 120.241 146.603 137.994 146.603 146.871C145.796 141.222 155.478 123.469 163.95 124.679C163.95 124.679 155.882 137.591 154.268 148.082C157.495 140.012 162.74 126.697 174.035 126.697C174.035 134.766 161.529 137.187 161.529 154.134C161.126 146.064 171.211 127.504 181.297 128.311C180.893 129.925 170.405 135.573 165.16 152.117C164.353 154.538 164.757 154.134 164.757 156.555C163.143 148.889 179.28 129.925 188.558 129.925C188.558 131.135 176.456 141.222 172.825 150.099C171.211 153.731 171.211 154.134 170.808 157.362C173.632 150.906 178.069 140.012 187.348 140.012C187.751 142.433 177.666 147.275 176.859 156.959C176.859 158.573 176.052 158.169 176.052 160.59C175.245 157.362 182.103 143.24 188.558 143.643C185.331 152.117 180.49 150.906 180.49 164.625C180.49 158.573 180.49 152.52 186.541 148.485C186.541 148.485 184.121 156.959 186.138 166.642C186.138 163.818 182.91 151.31 188.558 150.906C189.365 155.345 190.172 172.291 200.66 173.905C191.382 174.712 188.155 141.222 193.802 152.924C194.206 156.555 195.013 174.309 204.291 171.484L202.274 169.87C195.819 167.046 193.802 159.783 193.802 153.731C196.626 153.327 199.854 168.256 212.359 169.063C212.763 169.063 215.183 170.274 216.797 169.467C213.973 165.835 199.854 159.38 197.837 151.713C205.098 151.713 201.871 159.379 220.024 159.379C203.888 159.379 201.467 151.713 197.03 150.503C202.274 150.503 210.746 158.169 223.251 154.941C218.814 154.134 204.291 152.117 205.501 146.468C211.956 146.468 210.342 152.924 224.865 152.924C219.621 152.924 206.308 150.099 205.098 146.871C206.308 152.117 245.843 160.59 221.638 159.379C218.007 158.573 215.99 156.555 213.166 156.555C213.57 158.573 222.041 162.607 223.655 162.607C210.746 162.204 222.041 164.625 208.325 160.186C209.132 161.397 215.183 164.221 218.007 165.835C218.007 166.642 218.007 166.239 217.2 167.046C207.115 166.239 216.393 167.853 204.695 165.432C204.695 167.046 213.973 171.081 215.99 172.695C204.695 172.695 205.905 167.853 200.66 168.66C200.66 171.888 212.359 173.502 213.166 173.905C212.763 173.905 197.837 175.116 196.626 170.274C196.626 173.905 203.484 177.537 206.712 177.537C186.944 177.537 186.138 162.607 182.91 158.573C183.314 159.783 184.927 168.256 184.524 168.256C178.069 163.011 179.683 161.8 179.683 153.731C180.086 156.152 178.069 157.766 178.069 161.8C178.069 159.38 178.069 147.678 181.297 146.871C176.859 150.503 175.649 158.573 173.632 161.397C172.018 149.292 170.001 160.59 174.439 146.468C171.211 148.082 169.194 154.538 167.984 157.766C167.581 147.678 166.37 147.678 174.439 140.415C168.387 144.047 167.177 149.292 164.757 155.345C163.546 151.31 159.512 139.205 166.37 137.187C161.529 137.591 158.302 150.906 157.899 150.906C157.899 149.696 157.092 136.784 163.143 135.573C158.302 135.977 153.461 152.924 152.654 153.327C151.041 152.924 151.848 140.415 152.654 139.205C152.654 142.029 148.62 170.274 142.973 154.134C142.166 153.731 140.149 122.258 153.058 119.837Z" fill="#385A7E"/>
<path fill-rule="evenodd" clip-rule="evenodd" d="M130.467 204.974L126.836 202.957C131.677 204.571 138.938 204.571 144.586 203.36C144.586 203.764 143.779 204.571 142.973 205.378L138.938 206.185C138.535 206.588 138.535 206.185 138.535 206.588C134.501 206.992 130.063 206.185 127.643 206.185C127.643 209.413 138.535 207.395 142.973 206.588C141.762 208.606 138.132 207.799 137.325 209.009C133.291 209.009 128.45 208.606 127.239 209.413C135.308 209.413 133.694 211.43 142.569 211.027C141.762 212.237 138.132 213.851 137.325 214.658C135.308 215.061 131.677 215.465 123.205 215.465C126.433 215.465 135.711 218.693 142.569 217.079L142.166 217.482C140.955 218.693 138.132 218.693 136.518 219.096L136.921 219.5C136.921 219.5 138.132 219.5 138.938 219.5C137.728 219.903 135.711 220.307 133.694 220.307H132.887C131.274 220.307 127.239 219.903 125.626 219.5C128.45 221.517 136.115 221.114 141.359 219.903C141.762 219.903 141.762 219.903 141.762 220.307C138.535 221.921 132.484 224.342 128.45 224.342C126.029 224.342 125.626 223.938 123.205 223.938C123.205 226.763 132.08 225.956 136.921 225.552C137.728 225.956 137.728 226.359 137.325 226.763C136.921 227.166 136.518 227.166 135.711 227.57C135.308 227.57 134.501 227.973 134.501 227.973C131.677 228.78 128.046 229.184 121.995 228.78C121.995 228.78 132.484 229.587 137.728 229.991C137.325 230.394 137.325 230.394 136.518 230.798C136.518 230.798 134.904 231.201 134.501 231.201C134.904 231.201 134.904 231.605 135.308 231.605C132.887 232.412 129.257 233.219 123.205 233.219C123.609 233.219 131.274 233.622 134.501 233.622C133.291 234.833 130.87 236.043 129.66 236.85C126.836 237.254 124.416 237.254 121.592 237.254C121.592 238.867 128.046 238.867 132.484 238.867C132.08 239.271 131.274 240.078 130.467 240.885C128.45 241.288 126.029 241.692 121.592 241.692C122.802 241.692 126.433 241.692 129.66 241.288C129.257 241.692 128.853 242.095 128.853 242.095C129.66 242.095 130.063 242.499 130.87 242.499C129.66 242.902 128.45 243.306 123.205 243.306C123.205 243.306 128.853 244.113 132.08 244.516C132.08 244.516 131.677 244.92 131.677 245.323C128.853 246.13 123.609 246.937 119.171 247.341C121.188 248.148 125.222 248.551 128.45 248.551C125.222 248.955 120.381 248.955 119.171 248.955C120.381 248.955 124.819 248.955 128.45 249.358C128.45 249.358 128.45 249.762 128.45 250.165C125.222 250.165 120.381 250.569 118.364 250.569C119.171 250.569 124.416 250.569 128.45 250.972V251.376C124.819 251.779 121.592 252.183 115.54 252.183C115.54 252.183 123.205 253.797 127.643 254.2C127.239 255.007 126.029 255.814 124.819 256.218C125.222 256.621 125.626 256.621 126.433 256.621C125.626 256.621 124.819 257.025 123.609 257.025C126.433 257.025 128.853 257.832 128.853 258.639C128.853 259.042 128.45 259.042 128.046 259.446C126.836 259.849 124.416 260.253 119.978 260.253C119.171 260.253 117.961 259.849 117.558 260.656C119.978 260.253 121.995 260.656 124.012 261.06C124.416 263.884 118.768 263.481 117.154 263.481C117.558 265.498 122.398 263.884 125.626 262.27C126.433 262.27 127.239 262.674 127.239 263.481C126.029 265.498 124.819 268.322 124.416 268.322C117.154 269.533 115.137 270.34 107.069 265.498C106.665 265.095 107.069 264.691 106.665 264.288C108.682 264.691 117.961 263.884 118.768 261.06C110.7 261.06 108.683 257.832 108.279 257.832C110.7 257.832 121.188 258.639 122.399 255.814C121.995 255.814 106.262 255.814 109.893 248.551C112.313 247.744 124.012 249.358 124.012 245.323C119.575 245.727 114.33 244.516 110.296 243.306C110.296 240.481 121.188 244.113 126.029 240.885L124.819 240.481C117.961 240.885 119.978 241.692 113.12 239.271L114.33 238.867C117.154 238.867 121.995 240.078 123.609 237.254C123.609 236.85 106.262 236.447 113.523 233.219C115.944 232.815 123.609 232.815 123.205 229.184C121.995 228.78 112.717 231.201 113.523 227.57C115.137 227.166 129.66 224.342 120.785 224.342C119.575 224.342 116.347 224.745 115.54 223.938C116.751 223.131 123.609 224.342 124.819 222.728C123.205 223.131 119.575 222.324 118.364 221.517C118.768 221.114 124.819 222.324 125.222 219.5C124.819 219.5 111.506 219.096 117.154 215.868C120.381 214.254 126.836 219.903 127.643 213.044C125.626 213.044 119.575 213.447 118.768 211.027C120.381 211.43 127.643 211.43 128.853 210.22L128.046 209.816C122.802 210.22 118.768 210.22 115.944 206.185C119.575 206.588 121.592 206.588 125.222 206.588C121.592 206.588 120.381 204.974 119.575 201.746C120.381 204.167 129.257 204.974 130.467 204.974Z" fill="#385A7E"/>
<path fill-rule="evenodd" clip-rule="evenodd" d="M75.6027 209.413L71.972 205.781C76.0061 208.606 81.6539 211.027 87.3016 212.237C86.4948 212.641 85.688 213.448 85.2846 213.851C84.8812 213.851 84.8812 214.254 84.4778 214.658C80.0402 213.851 75.1993 211.43 72.3754 210.22C71.972 213.044 78.4266 214.255 83.6709 215.465C83.2675 215.868 82.8641 216.675 82.4607 217.482C78.0232 216.272 72.7788 213.851 71.1651 214.255C77.2163 216.272 78.0232 217.886 81.6539 219.5C80.8471 220.71 80.0402 222.324 79.6368 223.535C77.2163 223.131 73.1822 221.921 65.5174 219.5C67.9379 220.307 72.7788 223.535 78.4266 225.956C78.0232 227.166 77.2163 228.377 76.8129 229.184H76.4095L75.1993 228.78C73.1822 227.973 69.1481 225.956 67.5345 225.149C69.1481 227.166 72.7788 228.78 76.8129 229.991C76.4095 230.798 76.0061 231.605 75.6027 232.412C73.5856 232.412 71.1652 232.008 69.5515 231.605C67.131 230.798 66.7276 229.991 63.9037 229.184C63.5003 232.008 69.1481 234.026 74.3925 235.236C74.3925 235.64 73.989 236.043 73.989 236.043C73.5856 236.447 73.5856 236.85 73.1822 237.657C70.3583 237.254 66.3242 236.447 61.4833 234.429C61.4833 234.429 67.131 236.85 72.3754 239.271C71.5686 240.481 70.7618 241.288 69.5515 242.499C67.5345 242.095 65.114 241.692 61.8867 240.482C62.2901 240.482 65.5174 241.692 68.7447 242.902C67.131 244.113 65.5174 245.323 63.9037 246.13C62.6935 245.727 61.0799 245.323 59.4662 244.92C59.4662 245.727 60.273 246.534 61.8867 247.341C61.8867 247.341 61.4833 247.341 61.4833 247.744C61.0799 247.341 42.5229 240.481 51.398 239.271C54.2219 239.675 62.6935 242.499 62.6935 238.061C61.4833 237.254 50.5911 236.85 52.2048 232.815C53.8184 233.219 70.3583 235.236 61.0798 232.008C59.8696 231.605 56.2389 230.798 55.4321 229.991C57.0457 229.587 64.3072 233.622 65.9208 232.008C63.9037 231.605 60.273 229.587 59.0628 227.973C59.8696 227.57 65.9208 231.201 66.7276 227.973C66.3242 227.973 51.398 222.324 58.6594 221.114C62.2901 220.307 68.3413 229.184 70.7617 221.921C68.7447 221.114 61.8867 219.5 61.4833 216.272C63.0969 217.079 71.1651 219.903 72.7788 219.096L71.972 218.289C66.3242 216.675 61.8867 215.465 59.4662 209.816C63.0969 211.43 65.5174 212.641 69.5515 213.851C65.5174 212.641 64.7106 210.22 64.3071 206.185C64.3071 204.571 73.9891 209.009 75.6027 209.413ZM53.0116 246.937C54.2218 246.937 55.4321 246.937 56.6423 246.937C57.0457 246.937 57.4491 246.937 57.8526 246.937C55.4321 246.534 52.6082 245.323 50.5911 244.516H49.3809C50.9946 245.323 52.2048 246.534 53.0116 246.937Z" fill="#385A7E"/>
<path fill-rule="evenodd" clip-rule="evenodd" d="M74.3924 73.0322L84.8811 87.5579C86.0914 82.3125 78.83 76.6636 72.7788 73.0322C71.5685 73.0322 69.9549 73.0322 68.7447 73.4357C73.1822 77.0671 80.847 82.3125 80.4436 89.1719C79.2334 83.9265 72.3754 76.6636 65.114 74.6461C63.5003 75.4531 62.2901 75.8567 60.6764 76.2601C66.3242 81.5055 80.4436 94.8207 68.7447 93.6103C62.6935 93.2068 61.4833 83.9265 56.2389 77.8741C55.8355 77.8741 55.8355 77.8741 55.4321 78.2776H55.0286C53.415 78.6811 51.398 79.488 49.3809 80.6985C53.415 84.7334 59.4662 89.1719 59.4662 97.2417C54.6253 97.6452 57.8526 84.33 43.3297 84.33C42.9263 87.1544 50.9945 90.7859 53.0116 97.2417C47.7672 96.0313 45.7502 90.7858 38.0854 90.7858C37.6819 95.2242 48.5741 94.0138 48.5741 100.47C43.7331 100.47 40.9092 98.0487 35.6649 96.4348C35.6649 96.8383 50.9945 112.978 36.4717 106.522C35.2615 106.119 32.4376 104.505 32.0342 104.505C32.841 105.715 37.2785 108.54 36.8751 110.153C33.2444 110.557 9.03967 102.891 28.8069 114.188C30.0171 114.995 34.0512 117.416 32.841 119.434L31.6308 119.837C28.8069 121.451 21.9489 119.837 17.9148 120.241C17.1079 121.855 17.5113 120.241 17.5113 121.855C19.125 123.065 25.1762 124.679 27.1932 125.083C29.6137 131.539 -1.85245 125.083 22.7557 132.749C23.5625 132.749 23.9659 133.153 23.9659 133.96C21.9489 135.573 16.3011 134.766 13.8806 133.96C15.8977 135.17 19.9318 135.17 21.1421 135.977C20.3352 135.977 11.8636 135.17 11.0568 135.574C12.6704 137.187 18.7216 135.17 19.5284 136.784C18.7216 137.591 12.6704 137.994 11.8636 138.398L13.0738 139.205C17.5114 140.415 18.3182 140.012 24.3693 142.433C23.9659 143.643 14.284 144.45 13.8806 144.45C13.4772 145.661 13.4772 144.854 13.4772 145.661C15.4943 146.064 23.9659 146.468 24.3693 148.082C21.9489 148.889 11.0567 147.678 10.6533 150.906C11.8636 152.117 19.5284 151.713 20.7386 152.52C19.9318 153.327 12.267 152.924 11.4602 154.134C12.267 155.345 20.3352 154.538 21.9489 156.152C17.9148 155.345 13.0738 158.573 11.0568 158.976C10.2499 160.994 27.5966 161.397 19.9318 164.221C14.6875 165.028 13.8806 163.414 7.82945 165.028C8.23286 165.432 18.7216 168.256 19.125 167.853C17.1079 167.853 7.42603 167.449 6.2158 167.853C6.2158 169.467 13.0738 169.87 14.284 170.677C13.4772 171.081 7.42603 171.081 6.2158 171.081C7.02262 171.081 12.6704 171.888 13.0738 171.888C9.84652 173.905 7.42605 171.888 5.40898 173.502C6.61922 173.502 11.8636 173.502 13.4772 173.502C11.0568 173.502 5.81238 175.923 4.60214 177.94C5.40897 179.554 10.6533 177.94 12.267 179.151C11.0567 179.554 7.42605 180.361 7.02264 181.572C9.0397 181.168 11.0567 181.975 13.8806 181.168C11.4602 181.572 8.23288 183.186 5.00558 184.8C6.21582 185.607 7.02263 185.607 7.42605 186.01C8.63628 186.817 7.82945 186.414 7.82945 186.414C10.6533 185.203 5.00556 183.993 14.284 181.168C18.3182 179.958 22.7557 181.168 26.7898 183.186C27.1932 183.186 27.5966 183.186 28.0001 182.782C27.5966 182.379 20.7386 180.361 20.7386 180.361C21.142 180.361 24.7728 179.554 25.1762 179.554C23.9659 178.344 19.9318 177.94 19.5284 177.133C19.9318 177.133 23.5625 177.133 24.3693 177.133C23.1591 177.133 19.125 177.537 17.9148 176.73C19.5284 175.519 23.9659 175.116 25.983 175.116C24.7728 175.116 13.4772 172.291 11.8636 172.695C15.8977 172.695 22.3523 171.081 26.3864 170.274C26.7898 167.449 15.8977 164.221 15.4943 163.011C17.1079 163.414 24.7728 163.414 26.3864 162.204C26.3864 160.59 19.5284 155.345 17.9148 154.134C18.7216 152.924 27.5966 154.134 29.6137 153.731C30.8239 150.099 24.3693 150.099 23.9659 147.678C29.6137 145.257 41.3126 153.731 26.3864 134.767C25.983 134.363 25.1762 133.153 24.7727 132.749C27.1932 131.539 36.8751 133.96 37.6819 133.96C37.6819 129.925 30.0171 126.697 26.7898 125.083C43.3297 120.241 32.4376 125.486 39.699 124.679C39.699 119.03 33.6478 117.013 34.4546 113.785C40.5058 112.574 50.1877 122.662 42.1195 108.943C43.3297 105.715 47.3638 111.364 48.1707 111.767C48.5741 109.346 47.3638 106.119 46.1536 104.505C46.1536 105.312 48.1707 107.329 48.5741 107.329C49.3809 105.312 47.7672 104.101 46.9604 102.084C46.9604 102.084 55.8355 110.153 47.3638 99.6627C49.7843 98.4522 53.415 102.084 55.4321 102.487C55.0287 100.47 51.398 98.8557 49.7843 96.0312C54.2218 96.8382 60.6764 101.277 60.6764 106.522C63.0969 97.2417 56.6423 93.2068 56.2389 91.5928C62.2901 97.6452 73.5856 121.855 72.7788 101.68C72.7788 99.2592 68.7447 95.6277 68.7447 91.5928H69.9549C76.0061 91.5928 73.5856 106.926 77.6197 107.732C77.6197 101.68 78.0232 94.8208 78.0232 89.1719C81.6539 99.2592 83.2675 92.3998 84.4777 108.943C84.4777 108.943 92.1426 117.82 86.0914 93.6103L85.2846 88.7684C86.4948 93.6103 94.563 102.891 91.3357 110.96C90.5289 107.733 95.7733 108.943 90.1255 91.1893C89.7221 89.5754 88.9153 87.5579 88.5119 85.5404C88.1085 96.4347 96.1767 91.1894 92.1426 108.54C92.1426 108.943 92.1426 109.346 92.1426 109.75C96.5801 109.75 101.018 86.3474 85.688 72.2252C82.8641 72.2252 78.4266 72.6287 74.3924 73.0322Z" fill="#000B2F"/>
</svg>
