<svg id="Layer_1" xmlns="http://www.w3.org/2000/svg" viewBox="0 0 305.9 50.8">
  <style>
    .st0,.st2{fill:#4d63a9}.st2{fill-rule:evenodd;clip-rule:evenodd}
  </style>
  <path class="st0" d="M35.4 19.5c1-.4 2.3-1.2 2.3-3.3 0-2.4-2-3.5-4.7-3.5h-4.7v5.8h-2.8c-3.7 0-4.5 2.6-4.5 4 0 2 1.2 2.9 3.3 4 1.3.7 2.9 1.1 2.9 2.5 0 .8-.7 1.7-2.3 1.7H22c.4-.7.6-1.6.6-2.3 0-.9-.3-4.6-5.5-4.6h-4.2v14.3h2.9v-6.2L17 33h7.8c3.7 0 5.4-1.9 5.4-4.1 0-.8-.1-1.4-.4-2h2.9c4.5 0 5.6-2.3 5.6-4 0-1.8-1.1-3.1-2.9-3.4zM17.2 30.7h-1.3V26h1.3c1.7 0 2.4 1 2.4 2.3 0 1.1-.7 2.4-2.4 2.4zm11.1-8.9v3.5c-.7-.4-1.5-.7-2.3-1.1-1-.4-2-.9-2-2 0-.6.4-1.4 2.1-1.4h3.2l-1 1zm2.8-6.9h1.3c2.2 0 2.3 1.4 2.3 1.8 0 .6-.3 1.8-2.2 1.8h-1.4v-3.6zm1.7 9.8h-1.6v-4h1.6c2 0 2.5 1 2.5 2s-.7 2-2.5 2z"/>
  <path class="st0" d="M50.8 12.4C50.8 5.5 45.3 0 38.4 0H21C15.3 0 10.5 3.8 9.1 9h21.1c8.1 0 11.6 3.8 11.6 12.6v20c5.2-1.5 9-6.3 9-11.9V12.4z"/>
  <path d="M0 38.4c0 6.8 5.5 12.4 12.4 12.4h17.5c5.6 0 10.4-3.8 11.9-9H20.6C12.5 41.7 9 37.9 9 29.1V9c-5.2 1.5-9 6.3-9 11.9v17.5z" fill="#d86a43"/>
  <path class="st2" d="M269.6 38V19.7h5.3v6.8h5.8v-6.8h5.2V38h-5.2v-8.2h-5.8V38h-5.3zM261.9 35.1v-6.5c-2.2.3-5.5.7-5.5 3.9-.1 3.9 4.2 3.2 5.5 2.6zm-10.4-2.3c0-2.5 1.3-4.4 3.8-5.4 1.1-.4 2.2-.7 3.1-.8.9-.2 2.1-.3 3.5-.5v-.6c.1-2.7-1.4-3.2-3.3-3.2-1.7 0-3.5.5-5 1.4l-.4-3.3c2.2-.8 4.4-1.2 6.6-1.2 1.4 0 2.7.1 3.6.5 2 .6 3.1 2.2 3.3 4 .1.4.1 1 .1 1.9V37c-4.6 1.9-15.3 3.1-15.3-4.2zM243.6 34.5c-.5.7-1.2 1.1-2.2 1.1-3.1 0-3.8-5-3.8-7.3 0-1.9.4-3.9 1.5-5.1.5-.7 1.3-1 2.2-1 1.2 0 2.3.7 2.8 2.2.6 1.6.8 3.2.8 4.7 0 2-.3 4-1.3 5.4zm6.4-9.8c-.4-1.4-1.2-2.7-2.3-3.8-1.8-1.7-8.2-3.1-11.3 1.5 0-4.9 2.1-7.3 6.2-8 4.1-.6 6.4-1.1 6.4-1.1l-.4-3.9s-4.2.6-7.7 1.4c-3.8.9-7.4 3.6-8.3 9.1-.6 3.6-.5 9.8.5 12.7 1.2 3.3 3.7 5.9 8.3 5.9 6.2 0 9.1-3.8 9.1-9.8 0-1.2-.2-2.5-.5-4zM289 38V19.7h5.2v8.4l5.9-8.4h5.2l-6 8.2 6.6 10.1h-5.8l-5.9-9.1V38H289zM205.2 38.4c-1.7 0-3.4-.1-5-.7l.4-3.2c1.2.7 2.4 1.1 3.8 1.1 2.7 0 4.1-1.2 4-2.9 0-.8-.2-1.5-.8-1.9-.5-.4-1.1-.7-1.8-.7-.7-.1-1.3-.1-1.8-.1h-1.3v-2.8h.4c2 0 5-.1 5-2.6 0-2-2-2.4-3.1-2.4-1.7 0-3 .4-4.5 1.2l-.3-3c1.8-.7 3.9-1 5.9-1 4.3-.1 6.9 1.8 6.8 4.7.1 2.4-2 3.8-3.4 4.2.9.2 1.7.4 2.3.9 1.3.9 1.8 2.3 1.8 3.6 0 2.4-1.3 4-3.1 4.9-1.7.5-3.7.7-5.3.7zM157.8 38.4c-6.1 0-9.4-3.7-9.4-9.7 0-6 3.6-9.5 9.5-9.5 1.6 0 2.8.2 4.3.7l-.6 3.3c-1-.5-1.8-.8-2.9-.8-3.6 0-5.1 2.9-5.1 6.1 0 3.2 1.5 6.5 5.1 6.5 1.1 0 2-.2 2.9-.7l.4 3.4c-1.3.5-2.6.7-4.2.7zM216 38V19.7h5.2v5.8h2.1c2.4 0 4.2.4 5.3 1.2 1.3 1 2.2 2.8 2.1 4.7-.1 6-6.2 7.1-9.5 7.1-3.3-.1-5.2-.5-5.2-.5zm5.3-2.9s4.8 1 4.8-3.5c0-.8-.1-1.5-.5-1.9-.5-.9-1.7-1.1-3-1.1h-.8c-.1 0-.2 0-.5.1v6.4zM170.1 27.3v-5.1s.5-.1 1.8-.1c2.5 0 3 1.5 3 2.4 0 1.8-1.1 2.7-3.7 2.7h-1.1v.1zm1.4 2.9c.5 0 1 0 1.7.1.6 0 1.2.2 1.7.6.5.3.7 1 .7 1.8 0 2-1.8 2.7-4.1 2.7h-1.3v-5.2h1.3zm5.2-1.9c2.2-.7 3.3-2.1 3.3-4.2 0-.9-.2-1.7-.6-2.3-.4-.7-1.1-1.3-2-1.6-1.7-.7-4-.9-6-.9-3.9 0-6.3.4-6.3.4V38s2.6.4 6.3.4c3.7 0 9.3-.9 9.4-5.6v-.2c.1-2-1.2-3.9-4.1-4.3zM192.3 27.6H191c-2.5 0-3.6-.8-3.6-2.9 0-2.1 1.6-2.6 2.9-2.6 1.3 0 1.9.1 1.9.1v5.4h.1zm-1.2-8.4c-3.9 0-8.7.6-8.7 5.6 0 2.6 1.3 4.2 3.8 4.9l-4.9 8.3h5.5l3.9-7.3h1.6V38h5.2V19.7s-2.5-.5-6.4-.5zM63.5 38V12.7h19.3V38h-5.6V16.3h-8V38h-5.7zM97.8 28.2c0-6.9-4.8-6.3-6.6-5.9v12c.7.2 6.6 2.5 6.6-6.1zM85.9 45.5V20.2c4.6-.9 17.1-3.5 17.1 7.7 0 2.9-.8 5.5-2.3 7.3-3 3.6-7.9 3.2-9.5 2.6v7.8h-5.3v-.1zM114 35.5c1.5 0 2.6-1.2 3-2.9.4-1.7.5-2.8.5-4.1 0-1.8-.2-3.1-.7-4.4-.5-1.4-1.7-2.1-2.7-2.1-1.5 0-2.6 1.1-3.1 2.6-.5 1.4-.6 2.9-.6 3.9-.1 2.4.4 7 3.6 7zm-.4 2.9c-6.1 0-8.7-3.8-8.7-9.6 0-6 3.1-9.6 9.2-9.6 2.2 0 3.9.5 5.3 1.5 1.3 1 2.2 2.2 2.6 3.7.5 1.5.7 2.9.7 4.3 0 6.2-2.7 9.7-9.1 9.7zM123.8 38l1.9-18.3h6.1l3.8 12.5 3.8-12.5h6l1.8 18.3h-4.9l-1-13.2-4 13.2h-4.2L129 24.7 128 38h-4.2z"/>
</svg>
