<svg width="126" height="126" viewBox="0 0 126 126" fill="none" xmlns="http://www.w3.org/2000/svg">
<path opacity="0.1" d="M126 63.2655C126 98.0084 97.7807 126.228 63.0378 126.228C28.2948 126.228 0.0756836 98.0084 0.0756836 63.2655C0.0756836 28.5226 28.2948 0.303432 63.0378 0.303432C97.8565 0.303432 126 28.5226 126 63.2655Z" fill="white"/>
<path opacity="0.1" d="M119.704 63.2655C119.704 94.5948 94.3672 119.931 63.0379 119.931C31.7086 119.931 6.37207 94.5948 6.37207 63.2655C6.37207 31.9362 31.7086 6.59964 63.0379 6.59964C94.3672 6.59964 119.704 32.012 119.704 63.2655Z" fill="white"/>
<path d="M110.297 64.0241C110.297 90.3468 88.9055 111.739 62.5828 111.739C36.2601 111.739 14.8682 90.3468 14.8682 64.0241C14.8682 37.7014 36.2601 16.3095 62.5828 16.3095C88.9813 16.3095 110.297 37.7014 110.297 64.0241Z" fill="#4C75A3"/>
<path d="M110.297 64.0241C110.297 68.1963 108.704 71.3823 104.532 73.0512C100.815 74.5683 98.8428 74.3408 96.6429 78.1336C94.974 80.9404 94.6706 83.0644 91.257 84.2023C87.6917 85.416 84.2781 84.1264 80.8645 83.5954C77.2233 82.9886 73.5821 83.7471 70.1685 85.947C66.679 88.1469 65.0102 93.1535 61.5207 94.8983C54.4659 98.5394 47.9421 88.2986 41.7976 87.009C37.2462 86.0987 36.1083 87.9193 32.543 89.9675C19.1161 97.6291 15.3232 72.7477 15.3232 64.0241C15.3232 37.7772 36.5635 16.537 62.8103 16.537C89.0571 16.537 110.297 37.7772 110.297 64.0241Z" fill="#567FAD"/>
<path d="M85.7954 46.1216C82.3818 48.4732 82.2301 52.7971 82.0784 56.6659C81.7749 64.0999 82.4577 75.7062 72.5961 75.4028C69.1067 75.3269 66.6792 72.8994 63.3415 73.5822C60.0037 74.2649 57.2728 77.6785 55.7557 80.4852C54.6178 82.6093 53.5558 87.7676 51.2801 88.9055C48.3975 90.4226 45.2114 84.885 41.4944 84.1264C37.1705 83.2161 36.1085 84.9608 32.6949 86.9332C19.9507 94.2155 16.3096 70.5478 16.3096 62.2793C16.3096 37.3979 36.4878 17.1439 61.445 17.1439C70.3204 17.1439 79.0441 19.7989 86.4023 24.6538C89.8159 26.9296 93.9122 29.9639 96.188 33.4533C97.781 36.1084 88.2987 44.3769 85.7954 46.1216Z" fill="#6089B7"/>
<path d="M57.3485 53.4798C57.9554 55.8314 57.9554 58.1072 56.5899 60.0795C54.8452 62.6586 51.4316 61.7483 49.2317 63.4931C46.6525 65.5412 46.1974 70.1686 45.8939 73.2029C45.5905 75.4786 45.2871 79.8784 42.8596 81.168C40.8873 82.3058 38.6116 81.0163 36.4876 81.4714C34.9704 81.8507 33.7567 83.0644 32.3912 83.823C20.9367 90.3468 17.6748 69.1066 17.6748 61.6725C17.6748 46.8043 26.095 32.8465 39.1426 25.8675C42.6321 24.047 56.6658 17.9783 59.7001 21.8471C63.2654 26.3227 53.6315 33.5292 52.797 37.6255C51.9626 42.5563 56.0589 48.3215 57.3485 53.4798Z" fill="#6A93C1"/>
<path d="M39.9771 55.3004C40.2806 57.0452 40.2806 58.714 39.5979 60.2312C38.7634 62.1276 37.0187 61.4449 35.9567 62.7345C34.6671 64.2517 34.4395 67.6653 34.2878 69.8651C34.1361 71.534 33.9844 74.7959 32.7706 75.7821C31.7845 76.6165 30.6466 75.6303 29.5846 76.0096C28.826 76.3131 28.2192 77.2234 27.5364 77.7544C21.7712 82.6093 20.1782 66.8308 20.1782 61.3691C20.1782 50.3697 24.3504 40.053 30.95 34.8188C32.6948 33.4533 39.6737 28.9777 41.2667 31.8603C43.0115 35.1222 38.2324 40.5081 37.8531 43.5424C37.2463 47.2595 39.2944 51.5075 39.9771 55.3004Z" fill="#7EA7D5"/>
<g opacity="0.8">
<path opacity="0.8" d="M62.5828 16.3095C88.9055 16.3095 110.297 37.7014 110.297 64.0241C110.297 90.3468 88.9055 111.739 62.5828 111.739C36.2601 111.739 14.8682 90.3468 14.8682 64.0241C14.8682 37.7014 36.2601 16.3095 62.5828 16.3095Z" fill="#4C75A3"/>
<path opacity="0.8" d="M62.5828 16.3095C66.7549 16.3095 69.941 17.9025 71.6098 22.0747C73.127 25.7917 72.8994 27.764 76.6923 29.9639C79.4991 31.6328 81.6231 31.9362 82.761 35.3498C83.9747 38.9151 82.6851 42.3287 82.1541 45.7423C81.5472 49.3835 82.3058 53.0247 84.5057 56.4383C86.7056 59.9278 91.7122 61.5966 93.4569 65.0861C97.0981 72.1409 86.8573 78.6647 85.5677 84.8092C84.6574 89.3606 86.478 90.4985 88.5262 94.0638C96.1878 107.491 71.3064 111.284 62.5828 111.284C36.3359 111.284 15.0957 90.0433 15.0957 63.7965C15.0957 37.5497 36.3359 16.3095 62.5828 16.3095Z" fill="#6089B7"/>
<path opacity="0.8" d="M44.6804 40.8874C47.032 44.301 51.3559 44.4527 55.2246 44.6045C62.6587 44.9079 74.2649 44.2252 73.9615 54.0867C73.8857 57.5762 71.4582 60.0036 72.1409 63.3414C72.8236 66.6791 76.2372 69.41 79.044 70.9272C81.168 72.065 86.3264 73.127 87.4642 75.4028C88.9814 78.2854 83.4437 81.4714 82.6852 85.1884C81.7749 89.5123 83.5196 90.5744 85.4919 93.988C92.7743 106.732 69.1066 110.373 60.8381 110.373C35.9567 110.373 15.7026 90.1951 15.7026 65.2378C15.7026 56.3624 18.3577 47.6388 23.2126 40.2806C25.4883 36.867 28.5226 32.7706 32.0121 30.4949C34.6671 28.9019 42.9356 38.3841 44.6804 40.8874Z" fill="#6A93C1"/>
<path opacity="0.8" d="M52.0386 69.3341C54.3902 68.7273 56.6659 68.7273 58.6382 70.0927C61.2174 71.8374 60.3071 75.251 62.0518 77.4509C64.1 80.0301 68.7273 80.4852 71.7617 80.7887C74.0374 81.0921 78.4372 81.3955 79.7267 83.823C80.8646 85.7953 79.575 88.071 80.0302 90.1951C80.4095 91.7122 81.6232 92.9259 82.3818 94.2914C88.9055 105.746 67.6653 109.008 60.2313 109.008C45.3631 109.008 31.4053 100.588 24.4263 87.54C22.6057 84.0506 16.5371 70.0169 20.4059 66.9825C24.8815 63.4172 32.088 73.0512 36.1843 73.8856C41.1151 74.6442 46.8803 70.5479 52.0386 69.3341Z" fill="#749DCB"/>
<path opacity="0.8" d="M53.8593 86.7056C55.6041 86.4022 57.2729 86.4022 58.7901 87.0849C60.6865 87.9193 60.0038 89.6641 61.2934 90.7261C62.8106 92.0157 66.2242 92.2432 68.424 92.395C70.0929 92.5467 73.3548 92.6984 74.341 93.9121C75.1754 94.8983 74.1892 96.0361 74.5685 97.0981C74.872 97.8567 75.7823 98.4636 76.3133 99.1463C81.1682 104.911 65.3897 106.505 59.928 106.505C48.9286 106.505 38.6119 102.332 33.3777 95.7327C32.0123 93.988 27.5366 87.009 30.4192 85.416C33.6811 83.6713 39.067 88.4503 42.1013 88.8296C45.7425 89.3606 50.0664 87.3125 53.8593 86.7056Z" fill="#88B1DF"/>
</g>
</svg>
