<svg width="126" height="126" viewBox="0 0 126 126" fill="none" xmlns="http://www.w3.org/2000/svg">
<path opacity="0.1" d="M126 63.0379C126 97.8567 97.7809 126.076 62.9621 126.076C28.2191 126 0 97.7808 0 63.0379C0 28.2191 28.2191 0 63.0379 0C97.7808 0 126 28.2191 126 63.0379Z" fill="white"/>
<path opacity="0.1" d="M119.704 63.0379C119.704 94.3672 94.2913 119.78 62.9619 119.78C31.6326 119.78 6.22021 94.3672 6.22021 63.0379C6.22021 31.7086 31.7085 6.29621 63.0378 6.29621C94.3671 6.29621 119.704 31.7086 119.704 63.0379Z" fill="white"/>
<path d="M110.297 63.7965C110.297 90.1951 88.9053 111.587 62.5068 111.587C36.1082 111.587 14.7163 90.1951 14.7163 63.7965C14.7163 37.3979 36.1082 16.006 62.5068 16.006C88.9053 16.006 110.297 37.3979 110.297 63.7965Z" fill="#41548B"/>
<path d="M110.297 63.7207C110.297 67.8928 108.704 71.0789 104.532 72.7477C100.815 74.2649 98.8425 74.0373 96.6426 77.8302C94.9737 80.637 94.6703 82.761 91.2567 83.8989C87.6914 85.1126 84.2778 83.823 80.8642 83.292C77.223 82.6851 73.5818 83.4437 70.1682 85.6436C66.6787 87.8435 65.0099 92.8501 61.4445 94.6707C54.3898 98.3119 47.7901 87.9952 41.7215 86.7815C37.17 85.8712 36.0321 87.6918 32.4668 89.7399C19.04 97.3257 15.2471 72.4443 15.2471 63.7207C15.2471 37.4738 36.4873 16.1577 62.81 16.1577C89.0568 16.1577 110.297 37.4738 110.297 63.7207Z" fill="#4D67AC"/>
<path d="M85.7193 45.894C82.3056 48.3215 82.1539 52.6454 82.0022 56.4383C81.6988 63.8724 82.3815 75.4786 72.4441 75.251C68.9547 75.1752 66.5272 72.7477 63.1895 73.4305C59.8517 74.1132 57.1208 77.5268 55.6037 80.3335C54.4658 82.4576 53.4038 87.6159 51.128 88.7538C48.2454 90.2709 45.0594 84.7333 41.3424 83.9747C37.0185 83.0644 35.9565 84.8092 32.5429 86.7815C19.8746 94.0638 16.2334 70.3961 16.2334 62.1276C16.2334 37.1704 36.4116 16.9922 61.3689 16.9922C70.2442 16.9922 78.9679 19.6472 86.402 24.5021C89.8156 26.7778 93.9878 29.8122 96.1876 33.3016C97.7048 35.8049 88.2226 44.1493 85.7193 45.894Z" fill="#557CBD"/>
<path d="M57.2728 53.2523C57.8797 55.6039 57.8797 57.8796 56.5142 59.8519C54.7695 62.4311 51.3559 61.5208 49.156 63.2655C46.5768 65.3137 46.1217 69.941 45.8183 72.9753C45.5148 75.2511 45.2114 79.6508 42.7839 80.9404C40.8116 82.0783 38.5359 80.7887 36.4119 81.2438C34.8947 81.6231 33.681 82.8368 32.3156 83.5954C20.861 90.1192 17.5991 68.879 17.5991 61.3691C17.5991 46.5009 26.0193 32.543 39.0669 25.4883C42.5564 23.6677 56.5901 17.599 59.6244 21.4678C63.1897 25.9434 53.5558 33.1499 52.7213 37.2462C51.8869 42.2529 55.9832 48.0181 57.2728 53.2523Z" fill="#7CABDF"/>
<path d="M39.9011 54.997C40.2046 56.7417 40.2046 58.4106 39.5218 59.9278C38.6874 61.8242 36.9427 61.1415 35.8048 62.4311C34.5152 63.9482 34.2877 67.3618 34.1359 69.5617C33.9842 71.2306 33.8325 74.4925 32.6188 75.4786C31.6326 76.3131 30.4948 75.3269 29.4327 75.7062C28.6742 76.0096 28.0673 76.9199 27.3846 77.4509C21.6194 82.3058 20.0264 66.5274 20.0264 60.9898C20.0264 49.9904 24.1986 39.6737 30.7982 34.4395C32.5429 33.074 39.5977 28.5984 41.1149 31.481C42.8596 34.8188 38.0805 40.1288 37.7013 43.1632C37.1703 46.956 39.2184 51.2041 39.9011 54.997Z" fill="#9AC2EB"/>
<path d="M62.5835 16.006C88.982 16.006 110.374 37.3979 110.374 63.7965C110.374 90.1951 88.982 111.587 62.5835 111.587C36.1849 111.587 14.793 90.1951 14.793 63.7965C14.793 37.3979 36.1849 16.006 62.5835 16.006Z" fill="#3B5998"/>
<path d="M62.5068 16.006C66.6789 16.006 69.865 17.599 71.5339 21.7712C73.051 25.4883 72.8234 27.4606 76.6163 29.6604C79.4231 31.3293 81.5471 31.6327 82.685 35.0464C83.8987 38.6117 82.6091 42.0253 82.0781 45.4389C81.4712 49.0801 82.2298 52.7212 84.4297 56.1349C86.6296 59.6243 91.6362 61.2932 93.4568 64.8585C97.098 71.9133 86.7813 78.5129 85.5676 84.5816C84.6573 89.133 86.4779 90.2709 88.526 93.8362C96.1877 107.263 71.2304 111.056 62.5068 111.056C36.2599 111.056 14.9438 89.8158 14.9438 63.4931C14.9438 37.2462 36.2599 16.006 62.5068 16.006Z" fill="#4563A2"/>
<path d="M44.6807 40.584C47.1081 43.9976 51.432 44.1493 55.2249 44.301C62.659 44.6045 74.2653 43.9217 74.0377 53.8591C73.9618 57.3486 71.5344 59.776 72.2171 63.1138C72.8998 66.4515 76.3134 69.1824 79.1202 70.6996C81.2442 71.8374 86.4025 72.8995 87.5404 75.1752C89.0575 78.0578 83.5199 81.2438 82.7613 84.9609C81.8511 89.2848 83.5958 90.3468 85.5681 93.7604C92.8504 106.505 69.1828 110.146 60.9143 110.146C35.957 110.146 15.7788 89.8916 15.7788 65.0102C15.7788 56.1349 18.4338 47.4112 23.2887 39.9771C25.5645 36.5635 28.5988 32.3913 32.0883 30.1915C34.5916 28.5984 42.9359 38.0807 44.6807 40.584Z" fill="#4F6DAC"/>
<path d="M52.0385 69.0307C54.3901 68.4238 56.6658 68.4238 58.6381 69.7893C61.2173 71.534 60.307 74.9476 62.0517 77.1475C64.0999 79.7267 68.7272 80.1818 71.7615 80.4852C74.0373 80.7887 78.437 81.0921 79.7266 83.5196C80.8645 85.4919 79.5749 87.7676 80.03 89.8916C80.4093 91.4088 81.6231 92.6225 82.3816 93.988C88.9054 105.442 67.6652 108.704 60.1553 108.704C45.2871 108.704 31.3293 100.284 24.2745 87.2366C22.4539 83.7471 16.3852 69.7134 20.254 66.6791C24.7296 63.1138 31.9361 72.7477 36.0324 73.5822C41.0391 74.4166 46.8043 70.3203 52.0385 69.0307Z" fill="#5977B6"/>
<path d="M53.7833 86.4022C55.5281 86.0987 57.1969 86.0987 58.7141 86.7815C60.6105 87.6159 59.9278 89.3606 61.2174 90.4985C62.7346 91.7881 66.1482 92.0156 68.348 92.1674C70.0169 92.3191 73.2788 92.4708 74.265 93.6845C75.0994 94.6707 74.1132 95.8085 74.4925 96.8706C74.796 97.6291 75.7063 98.236 76.2373 98.9187C81.0922 104.684 65.3137 106.277 59.7761 106.277C48.7767 106.277 38.46 102.105 33.2258 95.5051C31.8604 93.7604 27.3848 86.7056 30.2674 85.1884C33.6051 83.4437 38.9152 88.2228 41.9495 88.602C45.7424 89.133 49.9904 87.0849 53.7833 86.4022Z" fill="#6381C0"/>
</svg>
